<?xml version="1.0" standalone="no"?>
<!DOCTYPE svg PUBLIC "-//W3C//DTD SVG 20010904//EN"
 "http://www.w3.org/TR/2001/REC-SVG-20010904/DTD/svg10.dtd">
<svg version="1.0" xmlns="http://www.w3.org/2000/svg"
 width="1366.000000pt" height="768.000000pt" viewBox="0 0 1366.000000 768.000000"
 preserveAspectRatio="xMidYMid meet">
<metadata>
Created by potrace 1.16, written by Peter Selinger 2001-2019
</metadata>
<g transform="translate(0.000000,768.000000) scale(0.100000,-0.100000)"
fill="#000000" stroke="none">
<path d="M11610 7622 c-32 -26 -21 -69 18 -77 15 -3 40 -13 56 -21 16 -8 31
-12 34 -10 7 8 -19 37 -28 31 -4 -3 -6 10 -3 29 3 27 0 37 -19 50 -28 20 -31
20 -58 -2z m55 -8 c19 -20 16 -43 -7 -58 -21 -13 -51 2 -56 26 -3 16 23 48 38
48 5 0 16 -7 25 -16z"/>
<path d="M11868 7613 c7 -3 16 -2 19 1 4 3 -2 6 -13 5 -11 0 -14 -3 -6 -6z"/>
<path d="M12266 7611 c-4 -5 3 -7 14 -4 23 6 26 13 6 13 -8 0 -17 -4 -20 -9z"/>
<path d="M12508 7613 c7 -3 16 -2 19 1 4 3 -2 6 -13 5 -11 0 -14 -3 -6 -6z"/>
<path d="M51 7563 c1 -27 4 -38 6 -26 2 12 12 24 21 26 15 4 15 5 0 6 -10 0
-18 7 -18 15 0 8 8 17 18 19 13 4 11 5 -5 6 -21 1 -23 -3 -22 -46z"/>
<path d="M143 7565 c0 -27 2 -38 4 -22 2 15 2 37 0 50 -2 12 -4 0 -4 -28z"/>
<path d="M320 7565 c0 -40 2 -45 23 -44 16 1 18 2 5 6 -10 2 -18 11 -18 18 0
7 8 16 18 18 16 4 16 5 0 6 -10 0 -18 7 -18 15 0 8 8 17 18 19 13 4 11 5 -5 6
-21 1 -23 -4 -23 -44z"/>
<path d="M420 7596 c0 -7 -9 -16 -21 -19 -29 -8 -22 -51 9 -55 20 -3 22 1 22
42 0 25 -2 46 -5 46 -3 0 -5 -6 -5 -14z m0 -46 c0 -11 -7 -20 -15 -20 -8 0
-15 9 -15 20 0 11 7 20 15 20 8 0 15 -9 15 -20z"/>
<path d="M607 7589 c4 -13 8 -18 11 -10 2 7 -1 18 -6 23 -8 8 -9 4 -5 -13z"/>
<path d="M650 7584 c-6 -14 -10 -31 -10 -37 0 -7 -4 -6 -10 3 -5 8 -10 11 -10
5 0 -5 4 -16 9 -24 6 -9 13 0 24 33 16 48 14 65 -3 20z"/>
<path d="M941 7563 l2 -48 7 40 c4 22 8 36 9 30 0 -5 12 -23 26 -40 l24 -30
-1 50 c-1 50 -1 50 -7 11 l-6 -40 -20 37 c-11 20 -23 37 -27 37 -5 0 -7 -21
-7 -47z"/>
<path d="M1493 7594 c-4 -11 2 -23 18 -35 l24 -18 -25 -10 c-23 -9 -23 -10 -4
-10 30 -1 38 26 14 41 -25 16 -26 35 -2 41 16 4 16 5 -1 6 -10 0 -20 -6 -24
-15z"/>
<path d="M1941 7563 c1 -27 4 -38 6 -25 3 15 10 22 18 18 15 -5 30 27 20 44
-3 5 -15 10 -26 10 -16 0 -19 -7 -18 -47z m39 22 c0 -8 -7 -15 -15 -15 -8 0
-15 7 -15 15 0 8 7 15 15 15 8 0 15 -7 15 -15z"/>
<path d="M2072 7593 c-5 -10 -5 -31 -1 -48 l7 -30 2 30 c1 17 2 34 1 39 -1 5
4 13 11 17 9 6 10 9 1 9 -7 0 -16 -8 -21 -17z"/>
<path d="M2471 7563 c1 -27 4 -38 6 -25 3 15 10 22 18 18 15 -5 30 27 20 44
-3 5 -15 10 -26 10 -16 0 -19 -7 -18 -47z m39 22 c0 -8 -7 -15 -15 -15 -8 0
-15 7 -15 15 0 8 7 15 15 15 8 0 15 -7 15 -15z"/>
<path d="M2760 7565 c0 -37 3 -45 18 -45 10 0 23 5 30 12 17 17 15 65 -4 72
-36 14 -44 7 -44 -39z m45 0 c0 -20 -6 -31 -17 -33 -15 -3 -18 4 -18 33 0 29
3 36 18 33 11 -2 17 -13 17 -33z"/>
<path d="M2901 7567 c-1 -45 1 -48 22 -45 16 2 22 10 22 28 0 16 -6 25 -15 25
-8 0 -18 9 -22 20 -4 12 -6 2 -7 -28z m39 -17 c0 -11 -7 -20 -15 -20 -15 0
-21 21 -8 33 12 13 23 7 23 -13z"/>
<path d="M3191 7563 c1 -26 3 -41 6 -32 2 10 13 19 24 22 29 8 22 51 -8 55
-21 3 -23 0 -22 -45z m39 17 c0 -11 -7 -20 -15 -20 -8 0 -15 9 -15 20 0 11 7
20 15 20 8 0 15 -9 15 -20z"/>
<path d="M3372 7593 c-5 -10 -5 -31 -1 -48 l7 -30 2 30 c1 17 2 34 1 39 -1 5
4 13 11 17 9 6 10 9 1 9 -7 0 -16 -8 -21 -17z"/>
<path d="M3443 7565 c0 -27 2 -38 4 -22 2 15 2 37 0 50 -2 12 -4 0 -4 -28z"/>
<path d="M3623 7603 c12 -3 17 -16 19 -46 l1 -42 4 40 c3 22 10 43 16 47 7 4
-4 7 -23 7 -19 -1 -27 -3 -17 -6z"/>
<path d="M3993 7603 c12 -3 17 -16 19 -46 l1 -42 4 40 c3 22 10 43 16 47 7 4
-4 7 -23 7 -19 -1 -27 -3 -17 -6z"/>
<path d="M4193 7565 c0 -27 2 -38 4 -22 2 15 2 37 0 50 -2 12 -4 0 -4 -28z"/>
<path d="M4362 7573 c13 -51 24 -60 32 -28 4 15 5 30 1 33 -3 3 -5 -2 -5 -12
0 -9 -4 -14 -10 -11 -5 3 -10 15 -10 25 0 10 -4 21 -9 25 -6 3 -5 -11 1 -32z"/>
<path d="M4401 7605 c1 -19 18 -51 18 -35 0 8 -4 22 -9 30 -5 8 -9 11 -9 5z"/>
<path d="M4610 7596 c0 -7 -9 -16 -21 -19 -29 -8 -22 -51 9 -55 20 -3 22 1 22
42 0 25 -2 46 -5 46 -3 0 -5 -6 -5 -14z m0 -46 c0 -11 -7 -20 -15 -20 -8 0
-15 9 -15 20 0 11 7 20 15 20 8 0 15 -9 15 -20z"/>
<path d="M4893 7565 c0 -27 2 -40 4 -27 3 15 11 22 28 22 17 0 25 -7 28 -22 2
-13 4 0 4 27 0 28 -2 40 -4 28 -3 -16 -11 -23 -28 -23 -17 0 -25 7 -28 23 -2
12 -4 0 -4 -28z"/>
<path d="M5043 7565 c0 -27 2 -38 4 -22 2 15 2 37 0 50 -2 12 -4 0 -4 -28z"/>
<path d="M478 7588 c-9 -25 5 -68 21 -67 10 0 11 2 4 6 -15 5 -17 40 -4 45 5
2 3 8 -4 15 -10 9 -15 9 -17 1z"/>
<path d="M1308 7588 c-9 -25 5 -68 21 -67 10 0 11 2 4 6 -15 5 -17 40 -4 45 5
2 3 8 -4 15 -10 9 -15 9 -17 1z"/>
<path d="M2228 7588 c-9 -25 5 -68 21 -67 10 0 11 2 4 6 -15 5 -17 40 -4 45 5
2 3 8 -4 15 -10 9 -15 9 -17 1z"/>
<path d="M11928 7593 c7 -3 16 -2 19 1 4 3 -2 6 -13 5 -11 0 -14 -3 -6 -6z"/>
<path d="M11988 7593 c7 -3 16 -2 19 1 4 3 -2 6 -13 5 -11 0 -14 -3 -6 -6z"/>
<path d="M12088 7593 c7 -3 16 -2 19 1 4 3 -2 6 -13 5 -11 0 -14 -3 -6 -6z"/>
<path d="M4441 7574 c0 -11 3 -14 6 -6 3 7 2 16 -1 19 -3 4 -6 -2 -5 -13z"/>
<path d="M11720 7586 c0 -2 6 -9 14 -15 10 -9 16 -8 26 4 11 13 8 15 -14 15
-14 0 -26 -2 -26 -4z"/>
<path d="M112 7550 c0 -19 2 -27 5 -17 2 9 2 25 0 35 -3 9 -5 1 -5 -18z"/>
<path d="M174 7565 c-10 -24 4 -45 28 -44 l23 2 -22 4 c-13 2 -23 8 -23 13 0
5 10 11 23 13 21 4 21 4 -3 6 -23 2 -24 3 -5 11 18 8 18 9 2 9 -10 1 -20 -6
-23 -14z"/>
<path d="M452 7550 c0 -19 2 -27 5 -17 2 9 2 25 0 35 -3 9 -5 1 -5 -18z"/>
<path d="M682 7550 c0 -19 2 -27 5 -17 2 9 2 25 0 35 -3 9 -5 1 -5 -18z"/>
<path d="M714 7565 c-10 -24 4 -45 28 -44 l23 2 -22 4 c-13 2 -23 8 -23 13 0
5 10 11 23 13 21 4 21 4 -3 6 -23 2 -24 3 -5 11 18 8 18 9 2 9 -10 1 -20 -6
-23 -14z"/>
<path d="M772 7549 l11 -32 12 23 13 23 7 -23 c6 -17 9 -20 16 -9 5 8 9 19 9
24 0 6 -4 4 -9 -4 -7 -11 -10 -8 -16 9 l-7 23 -14 -24 c-10 -18 -13 -20 -14
-7 0 9 -4 19 -10 23 -5 3 -4 -8 2 -26z"/>
<path d="M1044 7571 c18 -7 18 -8 3 -14 -24 -9 -21 -37 3 -37 16 0 20 7 20 30
0 25 -4 30 -22 29 -21 0 -21 -1 -4 -8z m16 -31 c0 -5 -4 -10 -10 -10 -5 0 -10
5 -10 10 0 6 5 10 10 10 6 0 10 -4 10 -10z"/>
<path d="M1086 7567 c3 -10 9 -15 12 -12 3 3 0 11 -7 18 -10 9 -11 8 -5 -6z"/>
<path d="M1125 7569 c-4 -6 -5 -12 -2 -15 2 -3 7 2 10 11 7 17 1 20 -8 4z"/>
<path d="M1152 7550 c0 -19 2 -27 5 -17 2 9 2 25 0 35 -3 9 -5 1 -5 -18z"/>
<path d="M1187 7573 c-15 -14 -6 -44 16 -52 l22 -9 -25 -11 -25 -11 25 3 c22
2 25 7 28 45 3 36 0 42 -16 42 -10 0 -22 -3 -25 -7z m33 -23 c0 -11 -7 -20
-15 -20 -8 0 -15 9 -15 20 0 11 7 20 15 20 8 0 15 -9 15 -20z"/>
<path d="M1264 7571 c18 -7 18 -8 3 -14 -24 -9 -21 -37 3 -37 16 0 20 7 20 30
0 25 -4 30 -22 29 -21 0 -21 -1 -4 -8z m16 -31 c0 -5 -4 -10 -10 -10 -5 0 -10
5 -10 10 0 6 5 10 10 10 6 0 10 -4 10 -10z"/>
<path d="M1354 7565 c-10 -24 4 -45 28 -44 l23 2 -22 4 c-13 2 -23 8 -23 13 0
5 10 11 23 13 21 4 21 4 -3 6 -23 2 -24 3 -5 11 18 8 18 9 2 9 -10 1 -20 -6
-23 -14z"/>
<path d="M1554 7566 c-9 -24 4 -48 23 -44 12 2 18 12 18 28 0 29 -32 41 -41
16z m36 -16 c0 -11 -7 -20 -15 -20 -8 0 -15 9 -15 20 0 11 7 20 15 20 8 0 15
-9 15 -20z"/>
<path d="M1624 7550 c1 -18 7 -26 24 -28 19 -3 22 1 21 30 -2 30 -2 31 -6 6
-5 -34 -30 -37 -36 -5 -3 19 -4 19 -3 -3z"/>
<path d="M1691 7548 c2 -28 2 -29 6 -8 3 14 10 28 17 32 7 5 5 8 -6 8 -14 0
-18 -8 -17 -32z"/>
<path d="M1734 7565 c-9 -23 3 -45 23 -44 17 1 17 2 1 6 -10 2 -18 13 -18 23
0 10 8 21 18 23 16 4 16 5 -1 6 -10 0 -20 -6 -23 -14z"/>
<path d="M1794 7565 c-10 -24 4 -45 28 -44 l23 2 -22 4 c-13 2 -23 8 -23 13 0
5 10 11 23 13 21 4 21 4 -3 6 -23 2 -24 3 -5 11 18 8 18 9 2 9 -10 1 -20 -6
-23 -14z"/>
<path d="M2014 7565 c-10 -24 4 -45 28 -44 l23 2 -22 4 c-13 2 -23 8 -23 13 0
5 10 11 23 13 21 4 21 4 -3 6 -23 2 -24 3 -5 11 18 8 18 9 2 9 -10 1 -20 -6
-23 -14z"/>
<path d="M2124 7571 c18 -7 18 -8 3 -14 -24 -9 -21 -37 3 -37 16 0 20 7 20 30
0 25 -4 30 -22 29 -21 0 -21 -1 -4 -8z m16 -31 c0 -5 -4 -10 -10 -10 -5 0 -10
5 -10 10 0 6 5 10 10 10 6 0 10 -4 10 -10z"/>
<path d="M2174 7565 c-9 -23 3 -45 23 -44 17 1 17 2 1 6 -10 2 -18 13 -18 23
0 10 8 21 18 23 16 4 16 5 -1 6 -10 0 -20 -6 -23 -14z"/>
<path d="M2274 7566 c-9 -24 4 -48 23 -44 12 2 18 12 18 28 0 29 -32 41 -41
16z m36 -16 c0 -11 -7 -20 -15 -20 -8 0 -15 9 -15 20 0 11 7 20 15 20 8 0 15
-9 15 -20z"/>
<path d="M2341 7548 c2 -28 2 -29 6 -8 3 14 10 28 17 32 7 5 5 8 -6 8 -14 0
-18 -8 -17 -32z"/>
<path d="M2544 7550 c1 -18 7 -26 24 -28 19 -3 22 1 21 30 -2 30 -2 31 -6 6
-5 -34 -30 -37 -36 -5 -3 19 -4 19 -3 -3z"/>
<path d="M2611 7546 c1 -28 2 -29 8 -7 9 34 29 37 34 6 4 -24 4 -24 3 2 -1 22
-6 28 -23 29 -19 1 -23 -4 -22 -30z"/>
<path d="M2844 7565 c-10 -24 4 -45 28 -44 l23 2 -22 4 c-13 2 -23 8 -23 13 0
5 10 11 23 13 21 4 21 4 -3 6 -23 2 -24 3 -5 11 18 8 18 9 2 9 -10 1 -20 -6
-23 -14z"/>
<path d="M2974 7550 c1 -18 7 -26 24 -28 19 -3 22 1 21 30 -2 30 -2 31 -6 6
-5 -34 -30 -37 -36 -5 -3 19 -4 19 -3 -3z"/>
<path d="M3047 7573 c-15 -14 -6 -44 16 -52 l22 -9 -25 -11 -25 -11 25 3 c22
2 25 7 28 45 3 36 0 42 -16 42 -10 0 -22 -3 -25 -7z m33 -23 c0 -11 -7 -20
-15 -20 -8 0 -15 9 -15 20 0 11 7 20 15 20 8 0 15 -9 15 -20z"/>
<path d="M3261 7548 c2 -28 2 -29 6 -8 3 14 10 28 17 32 7 5 5 8 -6 8 -14 0
-18 -8 -17 -32z"/>
<path d="M3304 7566 c-9 -24 4 -48 23 -44 12 2 18 12 18 28 0 29 -32 41 -41
16z m36 -16 c0 -11 -7 -20 -15 -20 -8 0 -15 9 -15 20 0 11 7 20 15 20 8 0 15
-9 15 -20z"/>
<path d="M3412 7550 c0 -19 2 -27 5 -17 2 9 2 25 0 35 -3 9 -5 1 -5 -18z"/>
<path d="M3474 7565 c-10 -24 4 -45 28 -44 l23 2 -22 4 c-13 2 -23 8 -23 13 0
5 10 11 23 13 21 4 21 4 -3 6 -23 2 -24 3 -5 11 18 8 18 9 2 9 -10 1 -20 -6
-23 -14z"/>
<path d="M3684 7565 c-10 -24 4 -45 28 -44 l23 2 -22 4 c-13 2 -23 8 -23 13 0
5 10 11 23 13 21 4 21 4 -3 6 -23 2 -24 3 -5 11 18 8 18 9 2 9 -10 1 -20 -6
-23 -14z"/>
<path d="M3754 7571 c18 -7 18 -8 3 -14 -24 -9 -21 -37 3 -37 16 0 20 7 20 30
0 25 -4 30 -22 29 -21 0 -21 -1 -4 -8z m16 -31 c0 -5 -4 -10 -10 -10 -5 0 -10
5 -10 10 0 6 5 10 10 10 6 0 10 -4 10 -10z"/>
<path d="M3801 7546 c1 -28 2 -29 8 -7 9 34 29 37 34 6 4 -24 4 -24 3 2 -1 22
-6 28 -23 29 -19 1 -23 -4 -22 -30z"/>
<path d="M3866 7573 c7 -4 14 -19 17 -33 4 -22 5 -21 4 4 -1 17 -9 31 -17 33
-10 3 -11 2 -4 -4z"/>
<path d="M4054 7566 c-9 -24 4 -48 23 -44 12 2 18 12 18 28 0 29 -32 41 -41
16z m36 -16 c0 -11 -7 -20 -15 -20 -8 0 -15 9 -15 20 0 11 7 20 15 20 8 0 15
-9 15 -20z"/>
<path d="M4124 7566 c-9 -24 4 -48 23 -44 12 2 18 12 18 28 0 29 -32 41 -41
16z m36 -16 c0 -11 -7 -20 -15 -20 -8 0 -15 9 -15 20 0 11 7 20 15 20 8 0 15
-9 15 -20z"/>
<path d="M4220 7563 c0 -10 4 -14 8 -8 4 6 11 13 16 18 5 4 2 7 -7 7 -10 0
-17 -8 -17 -17z"/>
<path d="M4472 7550 c0 -19 2 -27 5 -17 2 9 2 25 0 35 -3 9 -5 1 -5 -18z"/>
<path d="M4501 7546 c1 -28 2 -29 8 -7 9 34 29 37 34 6 4 -24 4 -24 3 2 -1 22
-6 28 -23 29 -19 1 -23 -4 -22 -30z"/>
<path d="M4644 7566 c-9 -24 4 -48 23 -44 12 2 18 12 18 28 0 29 -32 41 -41
16z m36 -16 c0 -11 -7 -20 -15 -20 -8 0 -15 9 -15 20 0 11 7 20 15 20 8 0 15
-9 15 -20z"/>
<path d="M4712 7549 l11 -32 12 23 13 23 7 -23 c6 -17 9 -20 16 -9 5 8 9 19 9
24 0 6 -4 4 -9 -4 -7 -11 -10 -8 -16 9 l-7 23 -14 -24 c-10 -18 -13 -20 -14
-7 0 9 -4 19 -10 23 -5 3 -4 -8 2 -26z"/>
<path d="M4984 7565 c-10 -24 4 -45 28 -44 l23 2 -22 4 c-13 2 -23 8 -23 13 0
5 10 11 23 13 21 4 21 4 -3 6 -23 2 -24 3 -5 11 18 8 18 9 2 9 -10 1 -20 -6
-23 -14z"/>
<path d="M5071 7531 c1 -25 3 -39 6 -30 2 10 13 19 24 22 29 8 22 52 -8 53
-21 1 -23 -3 -22 -45z m39 19 c0 -11 -7 -20 -15 -20 -15 0 -21 21 -8 33 12 13
23 7 23 -13z"/>
<path d="M11923 7573 c9 -2 23 -2 30 0 6 3 -1 5 -18 5 -16 0 -22 -2 -12 -5z"/>
<path d="M11976 7571 c-4 -5 3 -7 14 -4 23 6 26 13 6 13 -8 0 -17 -4 -20 -9z"/>
<path d="M12443 7573 c9 -2 25 -2 35 0 9 3 1 5 -18 5 -19 0 -27 -2 -17 -5z"/>
<path d="M11918 7548 c5 -5 16 -8 23 -6 8 3 3 7 -10 11 -17 4 -21 3 -13 -5z"/>
<path d="M12268 7548 c5 -5 16 -8 23 -6 8 3 3 7 -10 11 -17 4 -21 3 -13 -5z"/>
<path d="M4420 7535 c0 -8 5 -15 10 -15 6 0 10 7 10 15 0 8 -4 15 -10 15 -5 0
-10 -7 -10 -15z"/>
<path d="M11868 7543 c7 -3 16 -2 19 1 4 3 -2 6 -13 5 -11 0 -14 -3 -6 -6z"/>
<path d="M12088 7543 c7 -3 16 -2 19 1 4 3 -2 6 -13 5 -11 0 -14 -3 -6 -6z"/>
<path d="M12508 7543 c7 -3 16 -2 19 1 4 3 -2 6 -13 5 -11 0 -14 -3 -6 -6z"/>
<path d="M1100 7530 c0 -5 5 -10 10 -10 6 0 10 5 10 10 0 6 -4 10 -10 10 -5 0
-10 -4 -10 -10z"/>
<path d="M4228 7523 c7 -3 16 -2 19 1 4 3 -2 6 -13 5 -11 0 -14 -3 -6 -6z"/>
<path d="M242 7318 l2 -103 3 98 4 97 6684 0 6684 0 4 -97 3 -98 2 103 2 102
-6695 0 -6695 0 2 -102z"/>
<path d="M90 7340 c0 -11 -7 -20 -15 -20 -10 0 -15 -10 -15 -30 0 -28 3 -30
35 -30 28 0 35 4 35 20 0 11 7 20 15 20 10 0 15 10 15 30 0 28 -3 30 -35 30
-28 0 -35 -4 -35 -20z m60 -16 c0 -11 -5 -14 -16 -10 -9 3 -20 6 -25 6 -5 0
-9 5 -9 10 0 6 11 10 25 10 16 0 25 -6 25 -16z m-30 -39 c0 -9 -9 -15 -25 -15
-16 0 -25 6 -25 15 0 9 9 15 25 15 16 0 25 -6 25 -15z"/>
<path d="M285 7350 c-3 -5 -1 -10 4 -10 6 0 11 5 11 10 0 6 -2 10 -4 10 -3 0
-8 -4 -11 -10z"/>
<path d="M13470 7340 c0 -11 -7 -20 -15 -20 -10 0 -15 -10 -15 -30 0 -28 3
-30 35 -30 28 0 35 4 35 20 0 11 7 20 15 20 10 0 15 10 15 30 0 28 -3 30 -35
30 -28 0 -35 -4 -35 -20z m60 -16 c0 -11 -5 -14 -16 -10 -9 3 -20 6 -25 6 -5
0 -9 5 -9 10 0 6 11 10 25 10 16 0 25 -6 25 -16z m-30 -39 c0 -9 -9 -15 -25
-15 -16 0 -25 6 -25 15 0 9 9 15 25 15 16 0 25 -6 25 -15z"/>
<path d="M354 7336 c-3 -8 -4 -25 -2 -38 2 -17 9 -23 28 -23 22 0 25 4 25 35
0 29 -4 36 -23 38 -13 2 -24 -3 -28 -12z m41 -26 c0 -13 -6 -25 -12 -27 -16
-6 -27 21 -19 43 9 23 31 11 31 -16z"/>
<path d="M1142 7338 c-14 -14 -16 -32 -3 -23 5 3 12 -7 14 -22 3 -20 4 -16 6
15 1 46 0 47 -17 30z"/>
<path d="M1227 7343 c-9 -9 -9 -81 1 -86 4 -3 7 17 7 44 0 27 0 49 -1 49 0 0
-4 -3 -7 -7z"/>
<path d="M1454 7300 c0 -27 3 -47 8 -44 10 6 11 81 1 87 -5 3 -8 -17 -9 -43z"/>
<path d="M13284 7331 c15 -16 15 -19 1 -31 -9 -7 -13 -15 -10 -18 2 -3 11 1
20 8 12 10 18 10 30 0 9 -7 18 -11 20 -8 3 3 -1 11 -10 18 -14 12 -14 15 1 31
19 21 6 27 -14 7 -9 -9 -15 -9 -24 0 -20 20 -33 14 -14 -7z"/>
<path d="M499 7335 c-10 -9 3 -65 15 -65 13 0 13 63 -1 67 -5 2 -12 1 -14 -2z"/>
<path d="M679 7335 c-10 -9 3 -65 15 -65 13 0 13 63 -1 67 -5 2 -12 1 -14 -2z"/>
<path d="M819 7335 c-10 -9 3 -65 15 -65 13 0 13 63 -1 67 -5 2 -12 1 -14 -2z"/>
<path d="M431 7303 c-1 -29 2 -33 24 -33 21 0 25 5 25 30 0 17 -4 30 -10 30
-5 0 -10 -11 -10 -25 0 -34 -18 -32 -23 3 -4 25 -4 25 -6 -5z"/>
<path d="M540 7288 c0 -24 4 -38 8 -32 4 6 15 13 25 17 26 10 18 51 -10 55
-21 3 -23 -1 -23 -40z m40 12 c0 -11 -4 -20 -9 -20 -14 0 -23 18 -16 30 10 17
25 11 25 -10z"/>
<path d="M611 7303 c-1 -29 2 -33 24 -33 21 0 25 5 25 30 0 17 -4 30 -10 30
-5 0 -10 -11 -10 -25 0 -34 -18 -32 -23 3 -4 25 -4 25 -6 -5z"/>
<path d="M861 7303 c-1 -29 2 -33 24 -33 21 0 25 5 25 30 0 17 -4 30 -10 30
-5 0 -10 -11 -10 -25 0 -34 -18 -32 -23 3 -4 25 -4 25 -6 -5z"/>
<path d="M937 7323 c-4 -3 -7 -22 -7 -40 0 -30 3 -34 23 -31 18 2 23 10 25 41
3 31 0 37 -16 37 -10 0 -22 -3 -25 -7z m28 -23 c0 -7 -6 -15 -12 -17 -8 -3
-13 4 -13 17 0 13 5 20 13 18 6 -3 12 -11 12 -18z m2 -36 c-3 -3 -12 -4 -19
-1 -8 3 -5 6 6 6 11 1 17 -2 13 -5z"/>
<path d="M1003 7315 c4 -8 2 -17 -4 -20 -14 -9 -1 -25 22 -25 14 0 19 7 19 30
0 24 -4 30 -21 30 -14 0 -19 -5 -16 -15z m27 -25 c0 -5 -4 -10 -10 -10 -5 0
-10 5 -10 10 0 6 5 10 10 10 6 0 10 -4 10 -10z"/>
<path d="M1065 7320 c-8 -13 -8 -12 20 -29 19 -12 19 -12 -4 -7 -17 3 -21 2
-13 -6 17 -17 42 -1 38 24 -3 25 -30 36 -41 18z"/>
<path d="M1261 7298 c0 -32 1 -32 10 -8 6 13 15 28 22 32 8 5 4 8 -10 8 -19 0
-23 -5 -22 -32z"/>
<path d="M1311 7303 c-1 -29 2 -33 24 -33 21 0 25 5 25 30 0 17 -4 30 -10 30
-5 0 -10 -11 -10 -25 0 -34 -18 -32 -23 3 -4 25 -4 25 -6 -5z"/>
<path d="M1381 7298 c1 -30 2 -30 8 -9 9 35 29 37 34 4 4 -27 4 -27 6 5 1 28
-2 32 -24 32 -22 0 -25 -4 -24 -32z"/>
<path d="M285 7310 c-3 -5 -1 -10 4 -10 6 0 11 5 11 10 0 6 -2 10 -4 10 -3 0
-8 -4 -11 -10z"/>
<path d="M758 7293 c7 -3 16 -2 19 1 4 3 -2 6 -13 5 -11 0 -14 -3 -6 -6z"/>
<path d="M285 7270 c-3 -5 -1 -10 4 -10 6 0 11 5 11 10 0 6 -2 10 -4 10 -3 0
-8 -4 -11 -10z"/>
<path d="M280 7105 c0 -41 3 -75 7 -75 4 0 17 10 30 22 l23 21 0 -21 c0 -31
10 -28 53 16 l37 38 -38 37 c-44 43 -52 45 -52 15 l0 -21 -23 21 c-13 12 -26
22 -30 22 -4 0 -7 -34 -7 -75z m60 0 c0 -12 -11 -32 -25 -45 l-25 -23 0 68 0
68 25 -23 c14 -13 25 -33 25 -45z m48 32 l32 -33 -35 -34 -35 -34 0 67 c0 37
1 67 3 67 2 0 17 -15 35 -33z"/>
<path d="M13517 7132 c-23 -26 -23 -52 0 -29 16 15 18 15 35 0 15 -14 18 -14
18 -1 0 8 -8 22 -18 32 -18 15 -20 15 -35 -2z"/>
<path d="M90 7126 c0 -24 20 -29 36 -10 14 17 15 17 10 2 -3 -10 -1 -18 4 -18
13 0 13 27 -1 35 -6 4 -17 -1 -25 -11 -14 -17 -15 -17 -10 -1 3 9 1 17 -4 17
-6 0 -10 -6 -10 -14z"/>
<path d="M94 7075 c-8 -20 4 -35 27 -35 23 0 36 27 21 42 -8 8 -9 5 -5 -11 3
-12 1 -21 -6 -21 -6 0 -11 9 -11 20 0 23 -18 27 -26 5z m13 -17 c-3 -8 -6 -5
-6 6 -1 11 2 17 5 13 3 -3 4 -12 1 -19z"/>
<path d="M94 7010 c2 -24 50 -19 53 5 1 16 1 16 -3 3 -6 -21 -40 -24 -47 -5
-2 7 -3 6 -3 -3z"/>
<path d="M103 6973 c9 -2 25 -2 35 0 9 3 1 5 -18 5 -19 0 -27 -2 -17 -5z"/>
<path d="M100 6950 c8 -5 20 -10 25 -10 6 0 3 5 -5 10 -8 5 -19 10 -25 10 -5
0 -3 -5 5 -10z"/>
<path d="M280 6875 c0 -41 3 -75 7 -75 4 0 17 10 30 22 l23 21 0 -21 c0 -31
10 -28 53 16 l37 38 -38 37 c-44 43 -52 45 -52 15 l0 -21 -23 21 c-13 12 -26
22 -30 22 -4 0 -7 -34 -7 -75z m60 0 c0 -12 -11 -32 -25 -45 l-25 -23 0 68 0
68 25 -23 c14 -13 25 -33 25 -45z m48 32 l32 -33 -35 -34 -35 -34 0 67 c0 37
1 67 3 67 2 0 17 -15 35 -33z"/>
<path d="M100 6920 c-8 -5 -10 -10 -5 -10 6 0 17 5 25 10 8 5 11 10 5 10 -5 0
-17 -5 -25 -10z"/>
<path d="M103 6873 c9 -2 25 -2 35 0 9 3 1 5 -18 5 -19 0 -27 -2 -17 -5z"/>
<path d="M691 6858 c1 -17 2 -19 6 -5 8 30 23 19 23 -17 0 -19 -6 -37 -12 -39
-7 -3 1 -5 17 -5 17 0 24 2 18 5 -18 7 -17 73 1 73 8 0 17 -8 19 -17 4 -14 5
-12 6 5 1 19 -4 22 -39 22 -35 0 -40 -3 -39 -22z"/>
<path d="M94 6845 c-8 -20 4 -35 27 -35 23 0 36 27 21 42 -8 8 -9 5 -5 -11 3
-12 1 -21 -6 -21 -6 0 -11 9 -11 20 0 23 -18 27 -26 5z m13 -17 c-3 -8 -6 -5
-6 6 -1 11 2 17 5 13 3 -3 4 -12 1 -19z"/>
<path d="M799 6828 c6 -28 11 -33 37 -35 28 -1 30 1 26 33 -5 40 -18 46 -17 7
0 -18 -6 -29 -17 -31 -14 -3 -18 3 -18 27 0 17 -4 31 -9 31 -5 0 -5 -15 -2
-32z"/>
<path d="M899 6843 c-17 -20 1 -48 30 -47 27 1 28 -23 1 -29 -17 -4 -16 -4 2
-3 20 1 24 8 28 47 5 45 5 46 -22 47 -14 0 -32 -6 -39 -15z m49 -16 c4 -20
-25 -34 -40 -19 -15 15 -1 44 19 40 10 -2 19 -11 21 -21z"/>
<path d="M1010 6854 c43 -16 44 -17 15 -23 -44 -9 -39 -36 6 -37 35 -2 36 -1
30 30 -6 26 -12 31 -36 33 -17 1 -23 0 -15 -3z m35 -44 c-3 -5 -15 -10 -26
-10 -10 0 -19 5 -19 10 0 6 12 10 26 10 14 0 23 -4 19 -10z"/>
<path d="M1105 6850 c-9 -15 4 -30 26 -30 10 0 19 -5 19 -11 0 -7 -10 -9 -25
-7 -14 3 -25 1 -25 -4 0 -5 12 -8 28 -6 33 4 37 32 5 36 -13 2 -23 8 -23 14 0
6 11 8 25 6 14 -3 25 -1 25 3 0 12 -47 11 -55 -1z"/>
<path d="M1331 6828 c0 -16 -8 -28 -18 -31 -10 -3 -2 -5 17 -6 19 0 30 3 24 7
-7 4 -14 18 -17 32 l-4 25 -2 -27z"/>
<path d="M71 6783 c-1 -27 16 -40 32 -24 9 9 8 11 -5 6 -12 -5 -18 0 -21 17
-4 22 -4 22 -6 1z"/>
<path d="M106 6791 c-3 -5 2 -7 13 -4 14 4 21 -1 24 -19 5 -22 5 -22 4 2 -2
25 -30 40 -41 21z"/>
<path d="M40 6675 c0 -33 2 -35 35 -35 19 0 35 -4 35 -10 0 -12 -45 -24 -59
-15 -6 3 -11 1 -11 -6 0 -7 13 -10 35 -7 19 2 37 -1 39 -7 3 -7 5 -7 5 0 1 7
16 9 36 7 22 -3 35 0 35 7 0 7 -5 9 -11 6 -14 -9 -59 3 -59 15 0 6 16 10 35
10 33 0 35 2 35 35 l0 35 -75 0 -75 0 0 -35z m107 18 c-20 -2 -52 -2 -70 0
-17 2 0 4 38 4 39 0 53 -2 32 -4z m33 -28 c0 -12 -14 -15 -65 -15 -51 0 -65 3
-65 15 0 12 14 15 65 15 51 0 65 -3 65 -15z"/>
<path d="M1117 6652 c-21 -23 -22 -56 -1 -73 17 -14 45 -3 52 22 2 8 -2 5 -10
-5 -9 -12 -21 -17 -32 -13 -22 9 -20 22 7 36 l22 12 -22 -5 c-41 -8 -20 26 22
37 19 4 19 5 -1 6 -11 0 -28 -7 -37 -17z"/>
<path d="M708 6633 c7 -3 16 -2 19 1 4 3 -2 6 -13 5 -11 0 -14 -3 -6 -6z"/>
<path d="M908 6633 c12 -2 32 -2 45 0 12 2 2 4 -23 4 -25 0 -35 -2 -22 -4z"/>
<path d="M908 6603 c12 -2 32 -2 45 0 12 2 2 4 -23 4 -25 0 -35 -2 -22 -4z"/>
<path d="M80 6568 c0 -5 16 -8 35 -8 19 0 35 3 35 8 0 4 -16 7 -35 7 -19 0
-35 -3 -35 -7z"/>
<path d="M718 6573 c12 -2 30 -2 40 0 9 3 -1 5 -23 4 -22 0 -30 -2 -17 -4z"/>
<path d="M385 6483 c6 -4 10 -15 10 -23 0 -8 7 -15 15 -15 8 0 19 -4 23 -10 5
-6 7 -4 4 5 -2 8 -12 14 -21 12 -12 -2 -16 2 -14 14 2 9 -4 19 -12 21 -9 3
-11 1 -5 -4z"/>
<path d="M284 6450 c2 -24 50 -19 53 5 1 16 1 16 -3 3 -6 -21 -40 -24 -47 -5
-2 7 -3 6 -3 -3z"/>
<path d="M300 6460 c0 -5 5 -10 10 -10 6 0 10 5 10 10 0 6 -4 10 -10 10 -5 0
-10 -4 -10 -10z"/>
<path d="M1106 6441 c-4 -5 2 -7 13 -4 34 9 36 -19 3 -48 -18 -16 -32 -31 -32
-34 0 -3 16 -5 35 -5 19 0 35 4 35 9 0 4 -12 6 -27 3 l-28 -5 29 31 c24 26 27
34 16 47 -14 17 -36 20 -44 6z"/>
<path d="M90 6426 c0 -24 20 -29 36 -10 14 17 15 17 10 2 -3 -10 -1 -18 4 -18
13 0 13 27 -1 35 -6 4 -17 -1 -25 -11 -14 -17 -15 -17 -10 -1 3 9 1 17 -4 17
-6 0 -10 -6 -10 -14z"/>
<path d="M308 6413 c7 -3 16 -2 19 1 4 3 -2 6 -13 5 -11 0 -14 -3 -6 -6z"/>
<path d="M398 6413 c7 -3 16 -2 19 1 4 3 -2 6 -13 5 -11 0 -14 -3 -6 -6z"/>
<path d="M718 6413 c18 -4 22 -11 22 -43 0 -32 -4 -39 -22 -43 -20 -3 -20 -4
2 -3 23 1 25 6 28 49 3 46 2 47 -25 46 -24 -2 -24 -2 -5 -6z"/>
<path d="M908 6413 c12 -2 32 -2 45 0 12 2 2 4 -23 4 -25 0 -35 -2 -22 -4z"/>
<path d="M280 6386 c0 -14 5 -17 20 -13 17 4 20 2 14 -15 -5 -16 -2 -19 17
-16 13 2 24 10 25 18 0 9 -1 10 -3 3 -7 -20 -31 -15 -29 5 0 9 -6 17 -14 17
-8 0 -18 5 -22 10 -4 6 -8 2 -8 -9z"/>
<path d="M393 6390 c-28 -12 -30 -39 -3 -41 11 -1 26 -2 33 -3 14 -1 17 46 2
50 -5 1 -20 -1 -32 -6z m34 -32 c-3 -7 -5 -2 -5 12 0 14 2 19 5 13 2 -7 2 -19
0 -25z m-17 12 c0 -5 -7 -10 -15 -10 -8 0 -15 5 -15 10 0 6 7 10 15 10 8 0 15
-4 15 -10z"/>
<path d="M94 6375 c-8 -20 4 -35 27 -35 23 0 36 27 21 42 -8 8 -9 5 -5 -11 3
-12 1 -21 -6 -21 -6 0 -11 9 -11 20 0 23 -18 27 -26 5z m13 -17 c-3 -8 -6 -5
-6 6 -1 11 2 17 5 13 3 -3 4 -12 1 -19z"/>
<path d="M908 6383 c12 -2 32 -2 45 0 12 2 2 4 -23 4 -25 0 -35 -2 -22 -4z"/>
<path d="M83 6323 c15 -2 37 -2 50 0 12 2 0 4 -28 4 -27 0 -38 -2 -22 -4z"/>
<path d="M103 6303 c9 -2 25 -2 35 0 9 3 1 5 -18 5 -19 0 -27 -2 -17 -5z"/>
<path d="M71 6268 c-1 -27 1 -28 42 -27 23 1 32 4 20 6 -13 2 -24 13 -26 26
l-4 22 -2 -22 c0 -13 -5 -23 -10 -23 -5 0 -12 10 -14 23 -4 19 -4 18 -6 -5z"/>
<path d="M1106 6221 c-4 -5 2 -7 13 -4 34 9 36 -19 3 -48 -18 -16 -32 -31 -32
-34 0 -3 16 -5 35 -5 19 0 35 4 35 9 0 4 -12 6 -27 3 l-28 -5 29 31 c24 26 27
34 16 47 -14 17 -36 20 -44 6z"/>
<path d="M1200 6221 c0 -4 11 -6 25 -3 29 5 29 6 10 -47 -15 -44 -11 -58 5
-16 25 67 24 75 -9 75 -17 0 -31 -4 -31 -9z"/>
<path d="M1417 6201 c-22 -37 -21 -41 3 -41 22 0 27 -15 8 -23 -7 -3 -4 -6 8
-6 16 -1 20 4 18 22 -1 12 -3 34 -3 50 -1 35 -12 34 -34 -2z m23 -11 c0 -11
-7 -20 -15 -20 -13 0 -14 4 -5 20 6 11 13 20 15 20 3 0 5 -9 5 -20z"/>
<path d="M1500 6221 c0 -4 11 -6 25 -3 29 5 29 6 10 -47 -15 -44 -11 -58 5
-16 25 67 24 75 -9 75 -17 0 -31 -4 -31 -9z"/>
<path d="M1600 6206 c0 -19 6 -25 29 -28 17 -2 28 -1 25 4 -3 4 -14 8 -25 8
-30 0 -23 28 9 33 25 4 25 4 -5 6 -29 1 -33 -2 -33 -23z"/>
<path d="M703 6183 c15 -16 15 -18 0 -35 -15 -17 -15 -18 0 -18 10 0 16 6 15
13 -2 6 4 12 12 12 8 0 14 -6 13 -12 -2 -7 5 -13 14 -13 16 0 16 1 0 17 -15
16 -15 18 0 35 14 16 14 18 0 18 -8 0 -18 -6 -21 -12 -5 -10 -7 -10 -12 0 -3
6 -13 12 -22 12 -15 0 -15 -2 1 -17z"/>
<path d="M908 6193 c12 -2 32 -2 45 0 12 2 2 4 -23 4 -25 0 -35 -2 -22 -4z"/>
<path d="M908 6163 c12 -2 32 -2 45 0 12 2 2 4 -23 4 -25 0 -35 -2 -22 -4z"/>
<path d="M32 6118 c-2 -45 0 -48 23 -48 14 0 25 -4 25 -10 0 -5 25 -10 55 -10
l55 0 0 49 c0 46 -1 49 -22 43 -19 -5 -20 -7 -5 -10 12 -2 17 -13 17 -38 0
-34 0 -34 -45 -34 l-45 0 -2 43 c-1 36 -2 38 -5 10 -3 -24 -9 -33 -23 -33 -15
0 -20 9 -23 43 l-4 42 -1 -47z"/>
<path d="M1320 6140 c0 -5 5 -10 10 -10 6 0 10 5 10 10 0 6 -4 10 -10 10 -5 0
-10 -4 -10 -10z"/>
<path d="M1607 6138 c2 -5 13 -8 23 -8 10 0 21 3 23 8 3 4 -8 7 -23 7 -15 0
-26 -3 -23 -7z"/>
<path d="M1100 6001 c0 -4 11 -6 25 -3 29 5 29 6 10 -47 -15 -44 -11 -58 5
-16 25 67 24 75 -9 75 -17 0 -31 -4 -31 -9z"/>
<path d="M1306 6001 c-4 -5 2 -7 13 -4 34 9 36 -19 3 -48 -18 -16 -32 -31 -32
-34 0 -3 16 -5 35 -5 19 0 35 4 35 9 0 4 -12 6 -27 3 l-28 -5 29 31 c24 26 27
34 16 47 -14 17 -36 20 -44 6z"/>
<path d="M1406 6001 c-4 -5 2 -7 13 -4 34 9 36 -19 3 -48 -18 -16 -32 -31 -32
-34 0 -3 16 -5 35 -5 19 0 35 4 35 9 0 4 -12 6 -27 3 l-28 -5 29 31 c24 26 27
34 16 47 -14 17 -36 20 -44 6z"/>
<path d="M709 5946 c26 -42 26 -45 -1 -56 -22 -8 -22 -9 5 -9 16 -1 26 3 23 7
-3 5 6 27 19 50 20 35 21 42 8 42 -9 0 -13 -3 -10 -6 3 -4 1 -16 -5 -27 -10
-20 -11 -20 -24 -2 -7 10 -11 22 -8 26 3 5 -2 9 -11 9 -15 0 -14 -4 4 -34z"/>
<path d="M908 5973 c12 -2 32 -2 45 0 12 2 2 4 -23 4 -25 0 -35 -2 -22 -4z"/>
<path d="M908 5943 c12 -2 32 -2 45 0 12 2 2 4 -23 4 -25 0 -35 -2 -22 -4z"/>
<path d="M90 5916 c0 -24 20 -29 36 -10 14 17 15 17 10 2 -3 -10 -1 -18 4 -18
13 0 13 27 -1 35 -6 4 -17 -1 -25 -11 -14 -17 -15 -17 -10 -1 3 9 1 17 -4 17
-6 0 -10 -6 -10 -14z"/>
<path d="M1220 5920 c0 -5 5 -10 10 -10 6 0 10 5 10 10 0 6 -4 10 -10 10 -5 0
-10 -4 -10 -10z"/>
<path d="M81 5863 c-11 -12 -8 -14 25 -11 20 2 39 9 40 16 1 7 0 8 -3 2 -6
-12 -40 -13 -45 -1 -1 5 -9 2 -17 -6z"/>
<path d="M94 5820 c2 -24 50 -19 53 5 1 16 1 16 -3 3 -6 -21 -40 -24 -47 -5
-2 7 -3 6 -3 -3z"/>
<path d="M94 5775 c-8 -20 4 -35 27 -35 23 0 36 27 21 42 -8 8 -9 5 -5 -11 3
-12 1 -21 -6 -21 -6 0 -11 9 -11 20 0 23 -18 27 -26 5z m13 -17 c-3 -8 -6 -5
-6 6 -1 11 2 17 5 13 3 -3 4 -12 1 -19z"/>
<path d="M707 5774 c7 -3 9 -13 6 -22 -4 -15 -3 -15 6 -2 10 13 12 13 21 0 7
-12 4 -16 -13 -18 -13 -2 -28 -12 -35 -22 -11 -18 -9 -20 10 -20 18 0 20 2 8
10 -12 8 -12 10 3 16 9 3 25 3 34 0 15 -6 15 -8 3 -16 -12 -8 -11 -10 6 -10
l22 0 -21 45 c-15 33 -26 45 -41 44 -12 0 -16 -3 -9 -5z"/>
<path d="M795 5735 c0 -42 2 -45 26 -45 26 0 49 16 49 35 0 5 -5 2 -11 -7 -5
-10 -19 -18 -29 -18 -16 0 -20 7 -20 35 0 28 4 35 20 35 10 0 24 -8 29 -17 6
-10 11 -13 11 -7 0 18 -23 34 -49 34 -24 0 -26 -3 -26 -45z"/>
<path d="M895 5735 c0 -42 2 -45 26 -45 26 0 49 16 49 35 0 5 -5 2 -11 -7 -5
-10 -19 -18 -29 -18 -16 0 -20 7 -20 35 0 28 4 35 20 35 10 0 24 -8 29 -17 6
-10 11 -13 11 -7 0 18 -23 34 -49 34 -24 0 -26 -3 -26 -45z"/>
<path d="M1013 5773 c9 -2 25 -2 35 0 9 3 1 5 -18 5 -19 0 -27 -2 -17 -5z"/>
<path d="M1095 5735 c0 -25 5 -45 10 -45 13 0 13 82 0 87 -6 2 -10 -17 -10
-42z"/>
<path d="M1145 5741 c0 -22 4 -43 8 -47 4 -4 7 11 7 34 0 23 5 42 13 45 6 3 3
6 -8 6 -17 1 -20 -5 -20 -38z"/>
<path d="M1202 5768 c-30 -30 -3 -82 40 -76 32 4 38 38 6 37 -17 -1 -18 -3 -5
-6 28 -7 20 -25 -10 -21 -24 2 -28 8 -28 33 0 23 6 31 25 36 21 6 22 7 5 8
-12 1 -26 -4 -33 -11z"/>
<path d="M1120 5741 c0 -5 5 -13 10 -16 6 -3 10 -2 10 4 0 5 -4 13 -10 16 -5
3 -10 2 -10 -4z"/>
<path d="M90 5723 c0 -5 18 -8 39 -8 22 0 37 3 34 8 -2 4 -20 7 -39 7 -19 0
-34 -3 -34 -7z"/>
<path d="M94 5685 c-4 -9 -2 -21 4 -27 16 -16 47 -5 47 17 0 26 -42 34 -51 10z
m46 -10 c0 -8 -9 -15 -20 -15 -11 0 -20 7 -20 15 0 8 9 15 20 15 11 0 20 -7
20 -15z"/>
<path d="M1013 5693 c9 -2 25 -2 35 0 9 3 1 5 -18 5 -19 0 -27 -2 -17 -5z"/>
<path d="M103 5613 c9 -2 25 -2 35 0 9 3 1 5 -18 5 -19 0 -27 -2 -17 -5z"/>
<path d="M77 5593 c-4 -3 -7 -15 -7 -25 0 -15 8 -18 43 -17 23 1 35 3 26 6
-10 2 -19 13 -22 24 -5 19 -27 26 -40 12z m33 -18 c0 -8 -7 -15 -15 -15 -8 0
-15 7 -15 15 0 8 7 15 15 15 8 0 15 -7 15 -15z"/>
<path d="M717 5552 c-21 -23 -22 -56 -1 -73 17 -14 45 -3 52 22 2 8 -2 5 -10
-5 -9 -12 -21 -17 -32 -13 -22 9 -20 22 7 36 l22 12 -22 -5 c-41 -8 -20 26 22
37 19 4 19 5 -1 6 -11 0 -28 -7 -37 -17z"/>
<path d="M1106 5561 c-4 -5 2 -7 13 -4 34 9 36 -19 3 -48 -18 -16 -32 -31 -32
-34 0 -3 16 -5 35 -5 19 0 35 4 35 9 0 4 -12 6 -27 3 l-28 -5 29 31 c24 26 27
34 16 47 -14 17 -36 20 -44 6z"/>
<path d="M1504 5555 c-4 -9 -2 -21 4 -27 16 -16 47 -5 47 17 0 26 -42 34 -51
10z m46 -10 c0 -8 -9 -15 -20 -15 -11 0 -20 7 -20 15 0 8 9 15 20 15 11 0 20
-7 20 -15z"/>
<path d="M1308 5533 c12 -2 32 -2 45 0 12 2 2 4 -23 4 -25 0 -35 -2 -22 -4z"/>
<path d="M908 5513 c12 -2 32 -2 45 0 12 2 2 4 -23 4 -25 0 -35 -2 -22 -4z"/>
<path d="M1308 5503 c12 -2 32 -2 45 0 12 2 2 4 -23 4 -25 0 -35 -2 -22 -4z"/>
<path d="M1504 5490 c2 -24 50 -19 53 5 1 16 1 16 -3 3 -6 -21 -40 -24 -47 -5
-2 7 -3 6 -3 -3z"/>
<path d="M32 5443 c-2 -40 0 -43 23 -43 18 0 25 -5 25 -20 0 -18 7 -20 55 -20
l55 0 -2 48 -1 47 -4 -42 -4 -43 -45 0 -44 0 0 45 0 45 48 1 c36 1 41 3 22 8
-41 12 -75 -2 -78 -32 -2 -19 -9 -27 -22 -27 -14 0 -20 9 -23 38 l-4 37 -1
-42z"/>
<path d="M706 5341 c-4 -5 2 -7 13 -4 34 9 36 -19 3 -48 -18 -16 -32 -31 -32
-34 0 -3 16 -5 35 -5 19 0 35 4 35 9 0 4 -12 6 -27 3 l-28 -5 29 31 c24 26 27
34 16 47 -14 17 -36 20 -44 6z"/>
<path d="M800 5341 c0 -4 11 -6 25 -3 29 5 29 6 10 -47 -15 -44 -11 -58 5 -16
25 67 24 75 -9 75 -17 0 -31 -4 -31 -9z"/>
<path d="M1017 5321 c-22 -37 -21 -41 3 -41 22 0 27 -15 8 -23 -7 -3 -4 -6 8
-6 16 -1 20 4 18 22 -1 12 -3 34 -3 50 -1 35 -12 34 -34 -2z m23 -11 c0 -11
-7 -20 -15 -20 -13 0 -14 4 -5 20 6 11 13 20 15 20 3 0 5 -9 5 -20z"/>
<path d="M1100 5341 c0 -4 11 -6 25 -3 29 5 29 6 10 -47 -15 -44 -11 -58 5
-16 25 67 24 75 -9 75 -17 0 -31 -4 -31 -9z"/>
<path d="M1200 5326 c0 -19 6 -25 29 -28 17 -2 28 -1 25 4 -3 4 -14 8 -25 8
-30 0 -23 28 9 33 25 4 25 4 -5 6 -29 1 -33 -2 -33 -23z"/>
<path d="M1600 5341 c0 -4 11 -6 25 -3 29 5 29 6 10 -47 -15 -44 -11 -58 5
-16 25 67 24 75 -9 75 -17 0 -31 -4 -31 -9z"/>
<path d="M1806 5341 c-4 -5 2 -7 13 -4 34 9 36 -19 3 -48 -18 -16 -32 -31 -32
-34 0 -3 16 -5 35 -5 19 0 35 4 35 9 0 4 -12 6 -27 3 l-28 -5 29 31 c24 26 27
34 16 47 -14 17 -36 20 -44 6z"/>
<path d="M1906 5341 c-4 -5 2 -7 13 -4 34 9 36 -19 3 -48 -18 -16 -32 -31 -32
-34 0 -3 16 -5 35 -5 19 0 35 4 35 9 0 4 -12 6 -27 3 l-28 -5 29 31 c24 26 27
34 16 47 -14 17 -36 20 -44 6z"/>
<path d="M2306 5342 c-3 -6 2 -8 13 -5 23 6 38 -15 16 -23 -14 -6 -14 -8 1
-19 22 -16 8 -38 -19 -31 -14 3 -17 2 -10 -5 6 -6 19 -9 29 -7 15 3 19 12 19
48 0 38 -3 45 -22 48 -11 2 -24 -1 -27 -6z"/>
<path d="M2417 5321 c-22 -37 -21 -41 3 -41 22 0 27 -15 8 -23 -7 -3 -4 -6 8
-6 16 -1 20 4 18 22 -1 12 -3 34 -3 50 -1 35 -12 34 -34 -2z m23 -11 c0 -11
-7 -20 -15 -20 -13 0 -14 4 -5 20 6 11 13 20 15 20 3 0 5 -9 5 -20z"/>
<path d="M2617 5332 c-21 -23 -22 -56 -1 -73 17 -14 45 -3 52 22 2 8 -2 5 -10
-5 -9 -12 -21 -17 -32 -13 -22 9 -20 22 7 36 l22 12 -22 -5 c-41 -8 -20 26 22
37 19 4 19 5 -1 6 -11 0 -28 -7 -37 -17z"/>
<path d="M2704 5335 c-11 -28 4 -45 36 -43 16 1 30 6 30 10 0 4 -12 6 -26 5
-34 -3 -43 20 -12 32 l23 10 -23 0 c-12 1 -25 -6 -28 -14z"/>
<path d="M2800 5326 c0 -19 6 -25 29 -28 17 -2 28 -1 25 4 -3 4 -14 8 -25 8
-30 0 -23 28 9 33 25 4 25 4 -5 6 -29 1 -33 -2 -33 -23z"/>
<path d="M2108 5313 c12 -2 32 -2 45 0 12 2 2 4 -23 4 -25 0 -35 -2 -22 -4z"/>
<path d="M1408 5293 c12 -2 32 -2 45 0 12 2 2 4 -23 4 -25 0 -35 -2 -22 -4z"/>
<path d="M2108 5283 c12 -2 32 -2 45 0 12 2 2 4 -23 4 -25 0 -35 -2 -22 -4z"/>
<path d="M2745 5271 c-6 -5 -19 -11 -30 -14 -19 -4 -19 -5 1 -6 12 0 27 6 34
14 14 16 10 20 -5 6z"/>
<path d="M920 5260 c0 -5 5 -10 10 -10 6 0 10 5 10 10 0 6 -4 10 -10 10 -5 0
-10 -4 -10 -10z"/>
<path d="M1207 5258 c2 -5 13 -8 23 -8 10 0 21 3 23 8 3 4 -8 7 -23 7 -15 0
-26 -3 -23 -7z"/>
<path d="M1720 5260 c0 -5 5 -10 10 -10 6 0 10 5 10 10 0 6 -4 10 -10 10 -5 0
-10 -4 -10 -10z"/>
<path d="M2520 5260 c0 -5 5 -10 10 -10 6 0 10 5 10 10 0 6 -4 10 -10 10 -5 0
-10 -4 -10 -10z"/>
<path d="M2807 5258 c2 -5 13 -8 23 -8 10 0 21 3 23 8 3 4 -8 7 -23 7 -15 0
-26 -3 -23 -7z"/>
<path d="M90 5100 c0 -11 -7 -20 -15 -20 -10 0 -15 -10 -15 -30 0 -28 3 -30
35 -30 28 0 35 4 35 20 0 11 7 20 15 20 10 0 15 10 15 30 0 28 -3 30 -35 30
-28 0 -35 -4 -35 -20z m60 -16 c0 -11 -5 -14 -16 -10 -9 3 -20 6 -25 6 -5 0
-9 5 -9 10 0 6 11 10 25 10 16 0 25 -6 25 -16z m-30 -39 c0 -9 -9 -15 -25 -15
-16 0 -25 6 -25 15 0 9 9 15 25 15 16 0 25 -6 25 -15z"/>
<path d="M704 5105 c-8 -20 4 -35 26 -35 10 0 22 -5 25 -10 10 -16 -26 -24
-46 -11 -15 9 -19 8 -19 -2 0 -16 49 -21 67 -6 17 15 -1 39 -28 39 -11 0 -19
7 -19 16 0 12 7 15 25 12 14 -3 25 -1 25 3 0 15 -50 10 -56 -6z"/>
<path d="M787 5112 c6 -4 13 -23 15 -42 2 -29 7 -35 27 -35 13 0 25 6 27 13 1
7 0 8 -3 2 -2 -5 -14 -10 -25 -10 -17 0 -20 5 -16 40 3 35 1 40 -17 40 -12 0
-16 -3 -8 -8z"/>
<path d="M848 5113 c6 -2 18 -2 25 0 6 3 1 5 -13 5 -14 0 -19 -2 -12 -5z"/>
<path d="M895 5075 c0 -44 1 -45 33 -45 37 0 45 13 34 55 -7 24 -15 31 -38 33
-28 3 -29 2 -29 -43z m55 20 c0 -8 -9 -15 -20 -15 -11 0 -20 7 -20 15 0 8 9
15 20 15 11 0 20 -7 20 -15z m8 -42 c2 -8 -6 -13 -22 -13 -17 0 -26 5 -26 16
0 19 41 16 48 -3z"/>
<path d="M991 5098 c1 -17 2 -19 6 -5 8 30 23 19 23 -17 0 -19 -6 -37 -12 -39
-7 -3 1 -5 17 -5 17 0 24 2 18 5 -18 7 -17 73 1 73 8 0 17 -8 19 -17 4 -14 5
-12 6 5 1 19 -4 22 -39 22 -35 0 -40 -3 -39 -22z"/>
<path d="M1095 5075 c0 -39 3 -45 20 -44 11 0 14 3 8 6 -18 7 -16 33 2 33 8 0
19 -9 25 -20 7 -14 21 -20 43 -20 24 0 28 3 17 10 -12 8 -12 10 3 16 9 3 25 3
34 0 15 -6 15 -8 3 -16 -12 -8 -11 -10 6 -10 l22 0 -21 45 c-15 33 -26 45 -41
44 -12 0 -16 -3 -9 -5 7 -3 9 -13 6 -22 -4 -15 -3 -15 6 -2 10 13 12 13 21 0
7 -12 4 -16 -13 -18 -12 -2 -26 -10 -30 -18 -4 -8 -15 -14 -22 -14 -15 0 -17
5 -19 50 -1 20 -7 26 -31 28 -29 3 -30 2 -30 -43z m53 23 c-7 -19 -38 -22 -38
-4 0 10 9 16 21 16 12 0 19 -5 17 -12z"/>
<path d="M1302 5108 c-15 -15 -15 -51 0 -66 13 -13 54 -16 61 -4 3 4 -9 7 -26
7 -27 0 -32 4 -35 28 -4 32 21 46 49 28 15 -9 19 -8 19 2 0 17 -52 21 -68 5z"/>
<path d="M1391 5098 c1 -17 2 -19 6 -5 8 30 23 19 23 -17 0 -19 -6 -37 -12
-39 -7 -3 1 -5 17 -5 17 0 24 2 18 5 -18 7 -17 73 1 73 8 0 17 -8 19 -17 4
-14 5 -12 6 5 1 19 -4 22 -39 22 -35 0 -40 -3 -39 -22z"/>
<path d="M717 4892 c-21 -23 -22 -56 -1 -73 17 -14 45 -3 52 22 2 8 -2 5 -10
-5 -9 -12 -21 -17 -32 -13 -22 9 -20 22 7 36 l22 12 -22 -5 c-41 -8 -20 26 22
37 19 4 19 5 -1 6 -11 0 -28 -7 -37 -17z"/>
<path d="M1106 4901 c-4 -5 2 -7 13 -4 34 9 36 -19 3 -48 -18 -16 -32 -31 -32
-34 0 -3 16 -5 35 -5 19 0 35 4 35 9 0 4 -12 6 -27 3 l-28 -5 29 31 c24 26 27
34 16 47 -14 17 -36 20 -44 6z"/>
<path d="M1517 4881 c-22 -37 -21 -41 3 -41 22 0 27 -15 8 -23 -7 -3 -4 -6 8
-6 16 -1 20 4 18 22 -1 12 -3 34 -3 50 -1 35 -12 34 -34 -2z m23 -11 c0 -11
-7 -20 -15 -20 -13 0 -14 4 -5 20 6 11 13 20 15 20 3 0 5 -9 5 -20z"/>
<path d="M103 4883 c9 -2 25 -2 35 0 9 3 1 5 -18 5 -19 0 -27 -2 -17 -5z"/>
<path d="M1308 4873 c12 -2 32 -2 45 0 12 2 2 4 -23 4 -25 0 -35 -2 -22 -4z"/>
<path d="M94 4855 c-4 -9 -2 -21 4 -27 16 -16 47 -5 47 17 0 26 -42 34 -51 10z
m46 -10 c0 -8 -9 -15 -20 -15 -11 0 -20 7 -20 15 0 8 9 15 20 15 11 0 20 -7
20 -15z"/>
<path d="M908 4853 c12 -2 32 -2 45 0 12 2 2 4 -23 4 -25 0 -35 -2 -22 -4z"/>
<path d="M1308 4843 c12 -2 32 -2 45 0 12 2 2 4 -23 4 -25 0 -35 -2 -22 -4z"/>
<path d="M81 4793 c-11 -12 -8 -14 25 -11 20 2 39 9 40 16 1 7 0 8 -3 2 -6
-12 -40 -13 -45 -1 -1 5 -9 2 -17 -6z"/>
<path d="M93 4755 c-3 -9 -3 -19 1 -22 3 -4 6 2 7 13 0 16 2 15 10 -4 9 -24
31 -26 35 -4 1 7 0 8 -3 2 -7 -15 -23 -12 -23 4 0 8 8 17 18 19 10 3 6 5 -11
6 -16 1 -30 -5 -34 -14z"/>
<path d="M92 4688 c4 -33 47 -38 55 -7 6 22 7 22 15 3 8 -18 8 -18 5 1 -2 15
-11 21 -40 23 -35 3 -38 1 -35 -20z m48 -3 c0 -8 -9 -15 -20 -15 -11 0 -20 7
-20 15 0 8 9 15 20 15 11 0 20 -7 20 -15z"/>
<path d="M706 4681 c-4 -5 2 -7 13 -4 34 9 36 -19 3 -48 -18 -16 -32 -31 -32
-34 0 -3 16 -5 35 -5 19 0 35 4 35 9 0 4 -12 6 -27 3 l-28 -5 29 31 c24 26 27
34 16 47 -14 17 -36 20 -44 6z"/>
<path d="M800 4681 c0 -4 11 -6 25 -3 29 5 29 6 10 -47 -15 -44 -11 -58 5 -16
25 67 24 75 -9 75 -17 0 -31 -4 -31 -9z"/>
<path d="M1017 4661 c-22 -37 -21 -41 3 -41 22 0 27 -15 8 -23 -7 -3 -4 -6 8
-6 16 -1 20 4 18 22 -1 12 -3 34 -3 50 -1 35 -12 34 -34 -2z m23 -11 c0 -11
-7 -20 -15 -20 -13 0 -14 4 -5 20 6 11 13 20 15 20 3 0 5 -9 5 -20z"/>
<path d="M1100 4681 c0 -4 11 -6 25 -3 29 5 29 6 10 -47 -15 -44 -11 -58 5
-16 25 67 24 75 -9 75 -17 0 -31 -4 -31 -9z"/>
<path d="M1200 4666 c0 -19 6 -25 29 -28 17 -2 28 -1 25 4 -3 4 -14 8 -25 8
-30 0 -23 28 9 33 25 4 25 4 -5 6 -29 1 -33 -2 -33 -23z"/>
<path d="M1600 4681 c0 -4 11 -6 25 -3 29 5 29 6 10 -47 -15 -44 -11 -58 5
-16 25 67 24 75 -9 75 -17 0 -31 -4 -31 -9z"/>
<path d="M1806 4681 c-4 -5 2 -7 13 -4 34 9 36 -19 3 -48 -18 -16 -32 -31 -32
-34 0 -3 16 -5 35 -5 19 0 35 4 35 9 0 4 -12 6 -27 3 l-28 -5 29 31 c24 26 27
34 16 47 -14 17 -36 20 -44 6z"/>
<path d="M1906 4681 c-4 -5 2 -7 13 -4 34 9 36 -19 3 -48 -18 -16 -32 -31 -32
-34 0 -3 16 -5 35 -5 19 0 35 4 35 9 0 4 -12 6 -27 3 l-28 -5 29 31 c24 26 27
34 16 47 -14 17 -36 20 -44 6z"/>
<path d="M2306 4681 c-4 -5 2 -7 13 -4 34 9 36 -19 3 -48 -18 -16 -32 -31 -32
-34 0 -3 16 -5 35 -5 19 0 35 4 35 9 0 4 -12 6 -27 3 l-28 -5 29 31 c24 26 27
34 16 47 -14 17 -36 20 -44 6z"/>
<path d="M2433 4684 c12 -4 17 -16 17 -44 0 -29 -5 -40 -17 -43 -14 -3 -13 -4
2 -3 17 1 20 8 20 46 0 37 -3 45 -20 47 -16 1 -16 1 -2 -3z"/>
<path d="M2606 4681 c-4 -5 2 -7 13 -4 34 9 36 -19 3 -48 -18 -16 -32 -31 -32
-34 0 -3 16 -5 35 -5 19 0 35 4 35 9 0 4 -12 6 -27 3 l-28 -5 29 31 c24 26 27
34 16 47 -14 17 -36 20 -44 6z"/>
<path d="M2700 4666 c0 -19 6 -25 29 -28 17 -2 28 -1 25 4 -3 4 -14 8 -25 8
-30 0 -23 28 9 33 25 4 25 4 -5 6 -29 1 -33 -2 -33 -23z"/>
<path d="M2800 4666 c0 -19 6 -25 29 -28 17 -2 28 -1 25 4 -3 4 -14 8 -25 8
-30 0 -23 28 9 33 25 4 25 4 -5 6 -29 1 -33 -2 -33 -23z"/>
<path d="M2933 4684 c12 -4 17 -16 17 -44 0 -29 -5 -40 -17 -43 -14 -3 -13 -4
2 -3 17 1 20 8 20 46 0 37 -3 45 -20 47 -16 1 -16 1 -2 -3z"/>
<path d="M3033 4684 c12 -4 17 -16 17 -44 0 -29 -5 -40 -17 -43 -14 -3 -13 -4
2 -3 17 1 20 8 20 46 0 37 -3 45 -20 47 -16 1 -16 1 -2 -3z"/>
<path d="M3133 4684 c12 -4 17 -16 17 -44 0 -29 -5 -40 -17 -43 -14 -3 -13 -4
2 -3 17 1 20 8 20 46 0 37 -3 45 -20 47 -16 1 -16 1 -2 -3z"/>
<path d="M3233 4684 c12 -4 17 -16 17 -44 0 -29 -5 -40 -17 -43 -14 -3 -13 -4
2 -3 17 1 20 8 20 46 0 37 -3 45 -20 47 -16 1 -16 1 -2 -3z"/>
<path d="M3333 4684 c12 -4 17 -16 17 -44 0 -29 -5 -40 -17 -43 -14 -3 -13 -4
2 -3 17 1 20 8 20 46 0 37 -3 45 -20 47 -16 1 -16 1 -2 -3z"/>
<path d="M3433 4684 c12 -4 17 -16 17 -44 0 -29 -5 -40 -17 -43 -14 -3 -13 -4
2 -3 17 1 20 8 20 46 0 37 -3 45 -20 47 -16 1 -16 1 -2 -3z"/>
<path d="M3533 4684 c12 -4 17 -16 17 -44 0 -29 -5 -40 -17 -43 -14 -3 -13 -4
2 -3 17 1 20 8 20 46 0 37 -3 45 -20 47 -16 1 -16 1 -2 -3z"/>
<path d="M3633 4684 c12 -4 17 -16 17 -44 0 -29 -5 -40 -17 -43 -14 -3 -13 -4
2 -3 17 1 20 8 20 46 0 37 -3 45 -20 47 -16 1 -16 1 -2 -3z"/>
<path d="M3733 4684 c12 -4 17 -16 17 -44 0 -29 -5 -40 -17 -43 -14 -3 -13 -4
2 -3 17 1 20 8 20 46 0 37 -3 45 -20 47 -16 1 -16 1 -2 -3z"/>
<path d="M3833 4684 c12 -4 17 -16 17 -44 0 -29 -5 -40 -17 -43 -14 -3 -13 -4
2 -3 17 1 20 8 20 46 0 37 -3 45 -20 47 -16 1 -16 1 -2 -3z"/>
<path d="M3933 4684 c12 -4 17 -16 17 -44 0 -29 -5 -40 -17 -43 -14 -3 -13 -4
2 -3 17 1 20 8 20 46 0 37 -3 45 -20 47 -16 1 -16 1 -2 -3z"/>
<path d="M4006 4682 c-3 -6 2 -8 13 -5 23 6 38 -15 16 -23 -14 -6 -14 -8 1
-19 22 -16 8 -38 -19 -31 -14 3 -17 2 -10 -5 6 -6 19 -9 29 -7 15 3 19 12 19
48 0 38 -3 45 -22 48 -11 2 -24 -1 -27 -6z"/>
<path d="M2402 4640 c0 -19 2 -27 5 -17 2 9 2 25 0 35 -3 9 -5 1 -5 -18z"/>
<path d="M2902 4640 c0 -19 2 -27 5 -17 2 9 2 25 0 35 -3 9 -5 1 -5 -18z"/>
<path d="M3002 4640 c0 -19 2 -27 5 -17 2 9 2 25 0 35 -3 9 -5 1 -5 -18z"/>
<path d="M3102 4640 c0 -19 2 -27 5 -17 2 9 2 25 0 35 -3 9 -5 1 -5 -18z"/>
<path d="M3202 4640 c0 -19 2 -27 5 -17 2 9 2 25 0 35 -3 9 -5 1 -5 -18z"/>
<path d="M3302 4640 c0 -19 2 -27 5 -17 2 9 2 25 0 35 -3 9 -5 1 -5 -18z"/>
<path d="M3402 4640 c0 -19 2 -27 5 -17 2 9 2 25 0 35 -3 9 -5 1 -5 -18z"/>
<path d="M3502 4640 c0 -19 2 -27 5 -17 2 9 2 25 0 35 -3 9 -5 1 -5 -18z"/>
<path d="M3602 4640 c0 -19 2 -27 5 -17 2 9 2 25 0 35 -3 9 -5 1 -5 -18z"/>
<path d="M3702 4640 c0 -19 2 -27 5 -17 2 9 2 25 0 35 -3 9 -5 1 -5 -18z"/>
<path d="M3802 4640 c0 -19 2 -27 5 -17 2 9 2 25 0 35 -3 9 -5 1 -5 -18z"/>
<path d="M3902 4640 c0 -19 2 -27 5 -17 2 9 2 25 0 35 -3 9 -5 1 -5 -18z"/>
<path d="M2108 4653 c12 -2 32 -2 45 0 12 2 2 4 -23 4 -25 0 -35 -2 -22 -4z"/>
<path d="M103 4643 c9 -2 25 -2 35 0 9 3 1 5 -18 5 -19 0 -27 -2 -17 -5z"/>
<path d="M1408 4633 c12 -2 32 -2 45 0 12 2 2 4 -23 4 -25 0 -35 -2 -22 -4z"/>
<path d="M100 4620 c8 -5 20 -10 25 -10 6 0 3 5 -5 10 -8 5 -19 10 -25 10 -5
0 -3 -5 5 -10z"/>
<path d="M2108 4623 c12 -2 32 -2 45 0 12 2 2 4 -23 4 -25 0 -35 -2 -22 -4z"/>
<path d="M920 4600 c0 -5 5 -10 10 -10 6 0 10 5 10 10 0 6 -4 10 -10 10 -5 0
-10 -4 -10 -10z"/>
<path d="M1207 4598 c2 -5 13 -8 23 -8 10 0 21 3 23 8 3 4 -8 7 -23 7 -15 0
-26 -3 -23 -7z"/>
<path d="M1720 4600 c0 -5 5 -10 10 -10 6 0 10 5 10 10 0 6 -4 10 -10 10 -5 0
-10 -4 -10 -10z"/>
<path d="M2520 4600 c0 -5 5 -10 10 -10 6 0 10 5 10 10 0 6 -4 10 -10 10 -5 0
-10 -4 -10 -10z"/>
<path d="M2707 4598 c2 -5 13 -8 23 -8 10 0 21 3 23 8 3 4 -8 7 -23 7 -15 0
-26 -3 -23 -7z"/>
<path d="M2807 4598 c2 -5 13 -8 23 -8 10 0 21 3 23 8 3 4 -8 7 -23 7 -15 0
-26 -3 -23 -7z"/>
<path d="M100 4590 c-8 -5 -10 -10 -5 -10 6 0 17 5 25 10 8 5 11 10 5 10 -5 0
-17 -5 -25 -10z"/>
<path d="M93 4555 c-3 -9 -3 -19 1 -22 3 -4 6 2 7 13 0 16 2 15 10 -4 9 -24
31 -26 35 -4 1 7 0 8 -3 2 -7 -15 -23 -12 -23 4 0 8 8 17 18 19 10 3 6 5 -11
6 -16 1 -30 -5 -34 -14z"/>
<path d="M100 4501 l35 -6 -32 -14 c-45 -19 -41 -31 10 -30 l42 2 -35 6 -35 6
33 14 c44 19 40 31 -10 30 l-43 -2 35 -6z"/>
<path d="M685 4415 c0 -39 3 -45 20 -44 11 0 14 3 8 6 -7 2 -13 19 -12 36 0
30 1 31 11 10 6 -13 14 -23 18 -23 4 0 12 10 18 23 10 21 11 20 11 -10 1 -17
-5 -34 -11 -36 -7 -3 -4 -6 7 -6 18 -1 20 4 17 39 -3 31 -1 40 11 40 11 0 17
-12 19 -37 3 -33 6 -38 27 -38 13 0 25 6 27 13 1 7 0 8 -3 2 -2 -5 -14 -10
-25 -10 -17 0 -20 5 -16 40 3 39 3 40 -29 40 -23 0 -33 -5 -38 -20 -3 -11 -10
-20 -15 -20 -5 0 -12 9 -15 20 -12 37 -30 22 -30 -25z"/>
<path d="M848 4453 c6 -2 18 -2 25 0 6 3 1 5 -13 5 -14 0 -19 -2 -12 -5z"/>
<path d="M898 4453 c6 -2 12 -20 12 -38 0 -18 -6 -36 -12 -38 -7 -3 6 -6 30
-6 37 -1 42 1 41 22 -1 16 -2 18 -6 5 -2 -10 -13 -18 -24 -18 -15 0 -19 7 -19
34 0 19 6 37 13 39 6 3 -1 5 -18 5 -16 0 -24 -2 -17 -5z"/>
<path d="M991 4438 c1 -17 2 -19 6 -5 8 30 23 19 23 -17 0 -19 -6 -37 -12 -39
-7 -3 1 -5 17 -5 17 0 24 2 18 5 -18 7 -17 73 1 73 8 0 17 -8 19 -17 4 -14 5
-12 6 5 1 19 -4 22 -39 22 -35 0 -40 -3 -39 -22z"/>
<path d="M1113 4453 c9 -2 25 -2 35 0 9 3 1 5 -18 5 -19 0 -27 -2 -17 -5z"/>
<path d="M1205 4415 c0 -39 3 -45 20 -44 11 0 14 3 8 6 -20 8 -15 21 10 25 16
2 22 10 22 28 0 20 -5 26 -30 28 -29 3 -30 2 -30 -43z m55 15 c0 -13 -7 -20
-20 -20 -13 0 -20 7 -20 20 0 13 7 20 20 20 13 0 20 -7 20 -20z"/>
<path d="M1298 4453 c6 -2 12 -20 12 -38 0 -18 -6 -36 -12 -38 -7 -3 6 -6 30
-6 37 -1 42 1 41 22 -1 16 -2 18 -6 5 -2 -10 -13 -18 -24 -18 -15 0 -19 7 -19
34 0 19 6 37 13 39 6 3 -1 5 -18 5 -16 0 -24 -2 -17 -5z"/>
<path d="M1409 4434 c26 -33 27 -51 4 -57 -10 -3 -2 -5 17 -5 19 0 29 2 23 5
-18 7 -16 34 3 61 14 20 14 22 0 22 -9 0 -15 -3 -15 -7 4 -27 -1 -35 -16 -23
-8 7 -12 16 -9 21 3 5 -2 9 -11 9 -14 0 -13 -4 4 -26z"/>
<path d="M108 4403 c7 -3 16 -2 19 1 4 3 -2 6 -13 5 -11 0 -14 -3 -6 -6z"/>
<path d="M1113 4373 c9 -2 25 -2 35 0 9 3 1 5 -18 5 -19 0 -27 -2 -17 -5z"/>
<path d="M41 4332 c-1 -30 42 -72 74 -72 32 0 75 41 74 72 0 18 -3 15 -12 -12
-23 -66 -106 -65 -126 2 -7 26 -9 28 -10 10z"/>
<path d="M717 4232 c-21 -23 -22 -56 -1 -73 17 -14 45 -3 52 22 2 8 -2 5 -10
-5 -9 -12 -21 -17 -32 -13 -22 9 -20 22 7 36 l22 12 -22 -5 c-41 -8 -20 26 22
37 19 4 19 5 -1 6 -11 0 -28 -7 -37 -17z"/>
<path d="M1106 4241 c-4 -5 2 -7 13 -4 34 9 36 -19 3 -48 -18 -16 -32 -31 -32
-34 0 -3 16 -5 35 -5 19 0 35 4 35 9 0 4 -12 6 -27 3 l-28 -5 29 31 c24 26 27
34 16 47 -14 17 -36 20 -44 6z"/>
<path d="M1606 4241 c-4 -5 2 -7 13 -4 34 9 36 -19 3 -48 -18 -16 -32 -31 -32
-34 0 -3 16 -5 35 -5 19 0 35 4 35 9 0 4 -12 6 -27 3 l-28 -5 29 31 c24 26 27
34 16 47 -14 17 -36 20 -44 6z"/>
<path d="M916 4214 c-8 -21 -9 -20 13 -20 12 0 17 6 13 18 -5 22 -18 23 -26 2z"/>
<path d="M1308 4213 c12 -2 32 -2 45 0 12 2 2 4 -23 4 -25 0 -35 -2 -22 -4z"/>
<path d="M1531 4188 c0 -16 -8 -28 -18 -31 -10 -3 -2 -5 17 -6 19 0 30 3 24 7
-7 4 -14 18 -17 32 l-4 25 -2 -27z"/>
<path d="M1308 4183 c12 -2 32 -2 45 0 12 2 2 4 -23 4 -25 0 -35 -2 -22 -4z"/>
<path d="M706 4021 c-4 -5 2 -7 13 -4 34 9 36 -19 3 -48 -18 -16 -32 -31 -32
-34 0 -3 16 -5 35 -5 19 0 35 4 35 9 0 4 -12 6 -27 3 l-28 -5 29 31 c24 26 27
34 16 47 -14 17 -36 20 -44 6z"/>
<path d="M800 4021 c0 -4 11 -6 25 -3 29 5 29 6 10 -47 -15 -44 -11 -58 5 -16
25 67 24 75 -9 75 -17 0 -31 -4 -31 -9z"/>
<path d="M1017 4001 c-22 -37 -21 -41 3 -41 22 0 27 -15 8 -23 -7 -3 -4 -6 8
-6 16 -1 20 4 18 22 -1 12 -3 34 -3 50 -1 35 -12 34 -34 -2z m23 -11 c0 -11
-7 -20 -15 -20 -13 0 -14 4 -5 20 6 11 13 20 15 20 3 0 5 -9 5 -20z"/>
<path d="M1100 4021 c0 -4 11 -6 25 -3 29 5 29 6 10 -47 -15 -44 -11 -58 5
-16 25 67 24 75 -9 75 -17 0 -31 -4 -31 -9z"/>
<path d="M1200 4006 c0 -19 6 -25 29 -28 17 -2 28 -1 25 4 -3 4 -14 8 -25 8
-30 0 -23 28 9 33 25 4 25 4 -5 6 -29 1 -33 -2 -33 -23z"/>
<path d="M1600 4021 c0 -4 11 -6 25 -3 29 5 29 6 10 -47 -15 -44 -11 -58 5
-16 25 67 24 75 -9 75 -17 0 -31 -4 -31 -9z"/>
<path d="M1806 4021 c-4 -5 2 -7 13 -4 34 9 36 -19 3 -48 -18 -16 -32 -31 -32
-34 0 -3 16 -5 35 -5 19 0 35 4 35 9 0 4 -12 6 -27 3 l-28 -5 29 31 c24 26 27
34 16 47 -14 17 -36 20 -44 6z"/>
<path d="M1906 4021 c-4 -5 2 -7 13 -4 34 9 36 -19 3 -48 -18 -16 -32 -31 -32
-34 0 -3 16 -5 35 -5 19 0 35 4 35 9 0 4 -12 6 -27 3 l-28 -5 29 31 c24 26 27
34 16 47 -14 17 -36 20 -44 6z"/>
<path d="M2404 4015 c-11 -28 4 -45 36 -43 16 1 30 6 30 10 0 4 -12 6 -26 5
-34 -3 -43 20 -12 32 l23 10 -23 0 c-12 1 -25 -6 -28 -14z"/>
<path d="M2504 4015 c-4 -9 -2 -21 4 -27 16 -16 47 -5 47 17 0 26 -42 34 -51
10z m46 -10 c0 -8 -9 -15 -20 -15 -11 0 -20 7 -20 15 0 8 9 15 20 15 11 0 20
-7 20 -15z"/>
<path d="M2706 4022 c-3 -6 2 -8 13 -5 23 6 38 -15 16 -23 -14 -6 -14 -8 1
-19 22 -16 8 -38 -19 -31 -14 3 -17 2 -10 -5 6 -6 19 -9 29 -7 15 3 19 12 19
48 0 38 -3 45 -22 48 -11 2 -24 -1 -27 -6z"/>
<path d="M2817 4012 c-21 -23 -22 -56 -1 -73 17 -14 45 -3 52 22 2 8 -2 5 -10
-5 -9 -12 -21 -17 -32 -13 -22 9 -20 22 7 36 l22 12 -22 -5 c-41 -8 -20 26 22
37 19 4 19 5 -1 6 -11 0 -28 -7 -37 -17z"/>
<path d="M2904 4015 c-11 -28 4 -45 36 -43 16 1 30 6 30 10 0 4 -12 6 -26 5
-34 -3 -43 20 -12 32 l23 10 -23 0 c-12 1 -25 -6 -28 -14z"/>
<path d="M3000 4006 c0 -19 6 -25 29 -28 17 -2 28 -1 25 4 -3 4 -14 8 -25 8
-30 0 -23 28 9 33 25 4 25 4 -5 6 -29 1 -33 -2 -33 -23z"/>
<path d="M3133 4024 c12 -4 17 -16 17 -44 0 -29 -5 -40 -17 -43 -14 -3 -13 -4
2 -3 17 1 20 8 20 46 0 37 -3 45 -20 47 -16 1 -16 1 -2 -3z"/>
<path d="M3233 4024 c12 -4 17 -16 17 -44 0 -29 -5 -40 -17 -43 -14 -3 -13 -4
2 -3 17 1 20 8 20 46 0 37 -3 45 -20 47 -16 1 -16 1 -2 -3z"/>
<path d="M3333 4024 c12 -4 17 -16 17 -44 0 -29 -5 -40 -17 -43 -14 -3 -13 -4
2 -3 17 1 20 8 20 46 0 37 -3 45 -20 47 -16 1 -16 1 -2 -3z"/>
<path d="M3433 4024 c12 -4 17 -16 17 -44 0 -29 -5 -40 -17 -43 -14 -3 -13 -4
2 -3 17 1 20 8 20 46 0 37 -3 45 -20 47 -16 1 -16 1 -2 -3z"/>
<path d="M3533 4024 c12 -4 17 -16 17 -44 0 -29 -5 -40 -17 -43 -14 -3 -13 -4
2 -3 17 1 20 8 20 46 0 37 -3 45 -20 47 -16 1 -16 1 -2 -3z"/>
<path d="M3633 4024 c12 -4 17 -16 17 -44 0 -29 -5 -40 -17 -43 -14 -3 -13 -4
2 -3 17 1 20 8 20 46 0 37 -3 45 -20 47 -16 1 -16 1 -2 -3z"/>
<path d="M3733 4024 c12 -4 17 -16 17 -44 0 -29 -5 -40 -17 -43 -14 -3 -13 -4
2 -3 17 1 20 8 20 46 0 37 -3 45 -20 47 -16 1 -16 1 -2 -3z"/>
<path d="M3833 4024 c12 -4 17 -16 17 -44 0 -29 -5 -40 -17 -43 -14 -3 -13 -4
2 -3 17 1 20 8 20 46 0 37 -3 45 -20 47 -16 1 -16 1 -2 -3z"/>
<path d="M3933 4024 c12 -4 17 -16 17 -44 0 -29 -5 -40 -17 -43 -14 -3 -13 -4
2 -3 17 1 20 8 20 46 0 37 -3 45 -20 47 -16 1 -16 1 -2 -3z"/>
<path d="M4006 4021 c-4 -5 2 -7 13 -4 34 9 36 -19 3 -48 -18 -16 -32 -31 -32
-34 0 -3 16 -5 35 -5 19 0 35 4 35 9 0 4 -12 6 -27 3 l-28 -5 29 31 c24 26 27
34 16 47 -14 17 -36 20 -44 6z"/>
<path d="M1416 3994 c-8 -21 -9 -20 13 -20 12 0 17 6 13 18 -5 22 -18 23 -26
2z"/>
<path d="M3102 3980 c0 -19 2 -27 5 -17 2 9 2 25 0 35 -3 9 -5 1 -5 -18z"/>
<path d="M3202 3980 c0 -19 2 -27 5 -17 2 9 2 25 0 35 -3 9 -5 1 -5 -18z"/>
<path d="M3302 3980 c0 -19 2 -27 5 -17 2 9 2 25 0 35 -3 9 -5 1 -5 -18z"/>
<path d="M3402 3980 c0 -19 2 -27 5 -17 2 9 2 25 0 35 -3 9 -5 1 -5 -18z"/>
<path d="M3502 3980 c0 -19 2 -27 5 -17 2 9 2 25 0 35 -3 9 -5 1 -5 -18z"/>
<path d="M3602 3980 c0 -19 2 -27 5 -17 2 9 2 25 0 35 -3 9 -5 1 -5 -18z"/>
<path d="M3702 3980 c0 -19 2 -27 5 -17 2 9 2 25 0 35 -3 9 -5 1 -5 -18z"/>
<path d="M3802 3980 c0 -19 2 -27 5 -17 2 9 2 25 0 35 -3 9 -5 1 -5 -18z"/>
<path d="M3902 3980 c0 -19 2 -27 5 -17 2 9 2 25 0 35 -3 9 -5 1 -5 -18z"/>
<path d="M2108 3993 c12 -2 32 -2 45 0 12 2 2 4 -23 4 -25 0 -35 -2 -22 -4z"/>
<path d="M2331 3968 c0 -16 -8 -28 -18 -31 -10 -3 -2 -5 17 -6 19 0 30 3 24 7
-7 4 -14 18 -17 32 l-4 25 -2 -27z"/>
<path d="M2108 3963 c12 -2 32 -2 45 0 12 2 2 4 -23 4 -25 0 -35 -2 -22 -4z"/>
<path d="M2504 3950 c2 -24 50 -19 53 5 1 16 1 16 -3 3 -6 -21 -40 -24 -47 -5
-2 7 -3 6 -3 -3z"/>
<path d="M2445 3951 c-6 -5 -19 -11 -30 -14 -19 -4 -19 -5 1 -6 12 0 27 6 34
14 14 16 10 20 -5 6z"/>
<path d="M2945 3951 c-6 -5 -19 -11 -30 -14 -19 -4 -19 -5 1 -6 12 0 27 6 34
14 14 16 10 20 -5 6z"/>
<path d="M920 3940 c0 -5 5 -10 10 -10 6 0 10 5 10 10 0 6 -4 10 -10 10 -5 0
-10 -4 -10 -10z"/>
<path d="M1207 3938 c2 -5 13 -8 23 -8 10 0 21 3 23 8 3 4 -8 7 -23 7 -15 0
-26 -3 -23 -7z"/>
<path d="M1720 3940 c0 -5 5 -10 10 -10 6 0 10 5 10 10 0 6 -4 10 -10 10 -5 0
-10 -4 -10 -10z"/>
<path d="M2620 3940 c0 -5 5 -10 10 -10 6 0 10 5 10 10 0 6 -4 10 -10 10 -5 0
-10 -4 -10 -10z"/>
<path d="M3007 3938 c2 -5 13 -8 23 -8 10 0 21 3 23 8 3 4 -8 7 -23 7 -15 0
-26 -3 -23 -7z"/>
<path d="M695 3755 c0 -42 2 -45 26 -45 26 0 49 16 49 35 0 5 -5 2 -11 -7 -5
-10 -19 -18 -29 -18 -16 0 -20 7 -20 35 0 28 4 35 20 35 10 0 24 -8 29 -17 6
-10 11 -13 11 -7 0 18 -23 34 -49 34 -24 0 -26 -3 -26 -45z"/>
<path d="M813 3793 c9 -2 25 -2 35 0 9 3 1 5 -18 5 -19 0 -27 -2 -17 -5z"/>
<path d="M888 3793 c6 -2 18 -2 25 0 6 3 1 5 -13 5 -14 0 -19 -2 -12 -5z"/>
<path d="M946 3794 c13 -6 -4 -64 -18 -64 -4 0 -8 -4 -8 -10 0 -23 16 -7 36
35 l21 45 -21 -1 c-12 0 -16 -3 -10 -5z"/>
<path d="M1013 3793 c9 -2 25 -2 35 0 9 3 1 5 -18 5 -19 0 -27 -2 -17 -5z"/>
<path d="M1095 3755 c0 -42 2 -45 26 -45 26 0 49 16 49 35 0 5 -5 2 -11 -7 -5
-10 -19 -18 -29 -18 -16 0 -20 7 -20 35 0 28 4 35 20 35 10 0 24 -8 29 -17 6
-10 11 -13 11 -7 0 18 -23 34 -49 34 -24 0 -26 -3 -26 -45z"/>
<path d="M1195 3755 l0 -45 38 0 c20 0 37 4 37 8 0 5 -13 7 -30 4 -23 -3 -30
0 -30 13 0 11 5 15 15 11 9 -3 15 0 15 9 0 9 -6 12 -15 9 -9 -4 -15 0 -15 9 0
9 11 17 28 20 23 3 22 4 -8 6 l-35 1 0 -45z"/>
<path d="M900 3775 c0 -5 5 -17 10 -25 5 -8 10 -10 10 -5 0 6 -5 17 -10 25 -5
8 -10 11 -10 5z"/>
<path d="M813 3713 c9 -2 25 -2 35 0 9 3 1 5 -18 5 -19 0 -27 -2 -17 -5z"/>
<path d="M1013 3713 c9 -2 25 -2 35 0 9 3 1 5 -18 5 -19 0 -27 -2 -17 -5z"/>
<path d="M927 3544 c-37 -74 -33 -83 4 -10 17 32 29 60 27 62 -2 2 -16 -21
-31 -52z"/>
<path d="M717 3572 c-21 -23 -22 -56 -1 -73 17 -14 45 -3 52 22 2 8 -2 5 -10
-5 -9 -12 -21 -17 -32 -13 -22 9 -20 22 7 36 l22 12 -22 -5 c-41 -8 -20 26 22
37 19 4 19 5 -1 6 -11 0 -28 -7 -37 -17z"/>
<path d="M1106 3581 c-4 -5 2 -7 13 -4 34 9 36 -19 3 -48 -18 -16 -32 -31 -32
-34 0 -3 16 -5 35 -5 19 0 35 4 35 9 0 4 -12 6 -27 3 l-28 -5 29 31 c24 26 27
34 16 47 -14 17 -36 20 -44 6z"/>
<path d="M1506 3582 c-3 -6 2 -8 13 -5 23 6 38 -15 16 -23 -14 -6 -14 -8 1
-19 22 -16 8 -38 -19 -31 -14 3 -17 2 -10 -5 6 -6 19 -9 29 -7 15 3 19 12 19
48 0 38 -3 45 -22 48 -11 2 -24 -1 -27 -6z"/>
<path d="M1308 3553 c12 -2 32 -2 45 0 12 2 2 4 -23 4 -25 0 -35 -2 -22 -4z"/>
<path d="M1308 3523 c12 -2 32 -2 45 0 12 2 2 4 -23 4 -25 0 -35 -2 -22 -4z"/>
<path d="M1427 3324 c-37 -74 -33 -83 4 -10 17 32 29 60 27 62 -2 2 -16 -21
-31 -52z"/>
<path d="M706 3361 c-4 -5 2 -7 13 -4 34 9 36 -19 3 -48 -18 -16 -32 -31 -32
-34 0 -3 16 -5 35 -5 19 0 35 4 35 9 0 4 -12 6 -27 3 l-28 -5 29 31 c24 26 27
34 16 47 -14 17 -36 20 -44 6z"/>
<path d="M800 3361 c0 -4 11 -6 25 -3 29 5 29 6 10 -47 -15 -44 -11 -58 5 -16
25 67 24 75 -9 75 -17 0 -31 -4 -31 -9z"/>
<path d="M1017 3341 c-22 -37 -21 -41 3 -41 22 0 27 -15 8 -23 -7 -3 -4 -6 8
-6 16 -1 20 4 18 22 -1 12 -3 34 -3 50 -1 35 -12 34 -34 -2z m23 -11 c0 -11
-7 -20 -15 -20 -13 0 -14 4 -5 20 6 11 13 20 15 20 3 0 5 -9 5 -20z"/>
<path d="M1100 3361 c0 -4 11 -6 25 -3 29 5 29 6 10 -47 -15 -44 -11 -58 5
-16 25 67 24 75 -9 75 -17 0 -31 -4 -31 -9z"/>
<path d="M1200 3346 c0 -19 6 -25 29 -28 17 -2 28 -1 25 4 -3 4 -14 8 -25 8
-30 0 -23 28 9 33 25 4 25 4 -5 6 -29 1 -33 -2 -33 -23z"/>
<path d="M1600 3361 c0 -4 11 -6 25 -3 29 5 29 6 10 -47 -15 -44 -11 -58 5
-16 25 67 24 75 -9 75 -17 0 -31 -4 -31 -9z"/>
<path d="M1806 3361 c-4 -5 2 -7 13 -4 34 9 36 -19 3 -48 -18 -16 -32 -31 -32
-34 0 -3 16 -5 35 -5 19 0 35 4 35 9 0 4 -12 6 -27 3 l-28 -5 29 31 c24 26 27
34 16 47 -14 17 -36 20 -44 6z"/>
<path d="M1906 3361 c-4 -5 2 -7 13 -4 34 9 36 -19 3 -48 -18 -16 -32 -31 -32
-34 0 -3 16 -5 35 -5 19 0 35 4 35 9 0 4 -12 6 -27 3 l-28 -5 29 31 c24 26 27
34 16 47 -14 17 -36 20 -44 6z"/>
<path d="M2306 3362 c-3 -6 2 -8 13 -5 23 6 38 -15 16 -23 -14 -6 -14 -8 1
-19 22 -16 8 -38 -19 -31 -14 3 -17 2 -10 -5 6 -6 19 -9 29 -7 15 3 19 12 19
48 0 38 -3 45 -22 48 -11 2 -24 -1 -27 -6z"/>
<path d="M2504 3355 c-4 -9 -2 -21 4 -27 16 -16 47 -5 47 17 0 26 -42 34 -51
10z m46 -10 c0 -8 -9 -15 -20 -15 -11 0 -20 7 -20 15 0 8 9 15 20 15 11 0 20
-7 20 -15z"/>
<path d="M2633 3364 c12 -4 17 -16 17 -44 0 -29 -5 -40 -17 -43 -14 -3 -13 -4
2 -3 17 1 20 8 20 46 0 37 -3 45 -20 47 -16 1 -16 1 -2 -3z"/>
<path d="M2700 3346 c0 -19 6 -25 29 -28 17 -2 28 -1 25 4 -3 4 -14 8 -25 8
-30 0 -23 28 9 33 25 4 25 4 -5 6 -29 1 -33 -2 -33 -23z"/>
<path d="M2817 3341 c-22 -37 -21 -41 3 -41 22 0 27 -15 8 -23 -7 -3 -4 -6 8
-6 16 -1 20 4 18 22 -1 12 -3 34 -3 50 -1 35 -12 34 -34 -2z m23 -11 c0 -11
-7 -20 -15 -20 -13 0 -14 4 -5 20 6 11 13 20 15 20 3 0 5 -9 5 -20z"/>
<path d="M2933 3364 c12 -4 17 -16 17 -44 0 -29 -5 -40 -17 -43 -14 -3 -13 -4
2 -3 17 1 20 8 20 46 0 37 -3 45 -20 47 -16 1 -16 1 -2 -3z"/>
<path d="M3117 3352 c-21 -23 -22 -56 -1 -73 17 -14 45 -3 52 22 2 8 -2 5 -10
-5 -9 -12 -21 -17 -32 -13 -22 9 -20 22 7 36 l22 12 -22 -5 c-41 -8 -20 26 22
37 19 4 19 5 -1 6 -11 0 -28 -7 -37 -17z"/>
<path d="M3217 3352 c-21 -23 -22 -56 -1 -73 17 -14 45 -3 52 22 2 8 -2 5 -10
-5 -9 -12 -21 -17 -32 -13 -22 9 -20 22 7 36 l22 12 -22 -5 c-41 -8 -20 26 22
37 19 4 19 5 -1 6 -11 0 -28 -7 -37 -17z"/>
<path d="M3306 3361 c-4 -5 2 -7 13 -4 34 9 36 -19 3 -48 -18 -16 -32 -31 -32
-34 0 -3 16 -5 35 -5 19 0 35 4 35 9 0 4 -12 6 -27 3 l-28 -5 29 31 c24 26 27
34 16 47 -14 17 -36 20 -44 6z"/>
<path d="M3433 3364 c12 -4 17 -16 17 -44 0 -29 -5 -40 -17 -43 -14 -3 -13 -4
2 -3 17 1 20 8 20 46 0 37 -3 45 -20 47 -16 1 -16 1 -2 -3z"/>
<path d="M3517 3341 c-22 -37 -21 -41 3 -41 22 0 27 -15 8 -23 -7 -3 -4 -6 8
-6 16 -1 20 4 18 22 -1 12 -3 34 -3 50 -1 35 -12 34 -34 -2z m23 -11 c0 -11
-7 -20 -15 -20 -13 0 -14 4 -5 20 6 11 13 20 15 20 3 0 5 -9 5 -20z"/>
<path d="M3604 3355 c-11 -28 4 -45 36 -43 16 1 30 6 30 10 0 4 -12 6 -26 5
-34 -3 -43 20 -12 32 l23 10 -23 0 c-12 1 -25 -6 -28 -14z"/>
<path d="M3704 3355 c-4 -9 -2 -21 4 -27 16 -16 47 -5 47 17 0 26 -42 34 -51
10z m46 -10 c0 -8 -9 -15 -20 -15 -11 0 -20 7 -20 15 0 8 9 15 20 15 11 0 20
-7 20 -15z"/>
<path d="M3817 3352 c-21 -23 -22 -56 -1 -73 17 -14 45 -3 52 22 2 8 -2 5 -10
-5 -9 -12 -21 -17 -32 -13 -22 9 -20 22 7 36 l22 12 -22 -5 c-41 -8 -20 26 22
37 19 4 19 5 -1 6 -11 0 -28 -7 -37 -17z"/>
<path d="M3906 3361 c-4 -5 2 -7 13 -4 34 9 36 -19 3 -48 -18 -16 -32 -31 -32
-34 0 -3 16 -5 35 -5 19 0 35 4 35 9 0 4 -12 6 -27 3 l-28 -5 29 31 c24 26 27
34 16 47 -14 17 -36 20 -44 6z"/>
<path d="M2602 3320 c0 -19 2 -27 5 -17 2 9 2 25 0 35 -3 9 -5 1 -5 -18z"/>
<path d="M2902 3320 c0 -19 2 -27 5 -17 2 9 2 25 0 35 -3 9 -5 1 -5 -18z"/>
<path d="M3402 3320 c0 -19 2 -27 5 -17 2 9 2 25 0 35 -3 9 -5 1 -5 -18z"/>
<path d="M2108 3333 c12 -2 32 -2 45 0 12 2 2 4 -23 4 -25 0 -35 -2 -22 -4z"/>
<path d="M3031 3308 c0 -16 -8 -28 -18 -31 -10 -3 -2 -5 17 -6 19 0 30 3 24 7
-7 4 -14 18 -17 32 l-4 25 -2 -27z"/>
<path d="M2108 3303 c12 -2 32 -2 45 0 12 2 2 4 -23 4 -25 0 -35 -2 -22 -4z"/>
<path d="M2504 3290 c2 -24 50 -19 53 5 1 16 1 16 -3 3 -6 -21 -40 -24 -47 -5
-2 7 -3 6 -3 -3z"/>
<path d="M3704 3290 c2 -24 50 -19 53 5 1 16 1 16 -3 3 -6 -21 -40 -24 -47 -5
-2 7 -3 6 -3 -3z"/>
<path d="M3645 3291 c-6 -5 -19 -11 -30 -14 -19 -4 -19 -5 1 -6 12 0 27 6 34
14 14 16 10 20 -5 6z"/>
<path d="M920 3280 c0 -5 5 -10 10 -10 6 0 10 5 10 10 0 6 -4 10 -10 10 -5 0
-10 -4 -10 -10z"/>
<path d="M1207 3278 c2 -5 13 -8 23 -8 10 0 21 3 23 8 3 4 -8 7 -23 7 -15 0
-26 -3 -23 -7z"/>
<path d="M1720 3280 c0 -5 5 -10 10 -10 6 0 10 5 10 10 0 6 -4 10 -10 10 -5 0
-10 -4 -10 -10z"/>
<path d="M2420 3280 c0 -5 5 -10 10 -10 6 0 10 5 10 10 0 6 -4 10 -10 10 -5 0
-10 -4 -10 -10z"/>
<path d="M2707 3278 c2 -5 13 -8 23 -8 10 0 21 3 23 8 3 4 -8 7 -23 7 -15 0
-26 -3 -23 -7z"/>
<path d="M685 3095 c0 -39 3 -45 20 -44 11 0 14 3 8 6 -7 2 -13 19 -12 36 0
30 1 31 11 10 6 -13 14 -23 18 -23 4 0 12 10 18 23 10 21 11 20 11 -10 1 -17
-5 -34 -11 -36 -7 -3 -4 -6 7 -6 17 -1 20 5 20 44 0 47 -18 62 -30 25 -3 -11
-10 -20 -15 -20 -5 0 -12 9 -15 20 -12 37 -30 22 -30 -25z"/>
<path d="M800 3126 c-28 -34 11 -93 47 -70 9 6 19 17 21 25 2 8 -2 6 -10 -5
-20 -26 -58 -13 -58 19 0 32 38 45 57 19 7 -10 13 -13 13 -8 0 31 -49 44 -70
20z"/>
<path d="M895 3095 c0 -42 2 -45 26 -45 26 0 49 16 49 35 0 5 -5 2 -11 -7 -5
-10 -19 -18 -29 -18 -16 0 -20 7 -20 35 0 28 4 35 20 35 10 0 24 -8 29 -17 6
-10 11 -13 11 -7 0 18 -23 34 -49 34 -24 0 -26 -3 -26 -45z"/>
<path d="M987 3132 c6 -4 13 -23 15 -42 2 -29 7 -35 27 -35 13 0 25 6 27 13 1
7 0 8 -3 2 -2 -5 -14 -10 -25 -10 -17 0 -20 5 -16 40 3 35 1 40 -17 40 -12 0
-16 -3 -8 -8z"/>
<path d="M1048 3133 c6 -2 18 -2 25 0 6 3 1 5 -13 5 -14 0 -19 -2 -12 -5z"/>
<path d="M1098 3133 c6 -2 12 -20 12 -38 0 -18 -6 -36 -12 -38 -7 -3 6 -6 30
-6 37 -1 42 1 41 22 -1 16 -2 18 -6 5 -2 -10 -13 -18 -24 -18 -15 0 -19 7 -19
34 0 19 6 37 13 39 6 3 -1 5 -18 5 -16 0 -24 -2 -17 -5z"/>
<path d="M1200 3126 c-28 -34 11 -93 47 -70 9 6 19 17 21 25 2 8 -2 6 -10 -5
-20 -26 -58 -13 -58 19 0 32 38 45 57 19 7 -10 13 -13 13 -8 0 31 -49 44 -70
20z"/>
<path d="M717 2912 c-21 -23 -22 -56 -1 -73 17 -14 45 -3 52 22 2 8 -2 5 -10
-5 -9 -12 -21 -17 -32 -13 -22 9 -20 22 7 36 l22 12 -22 -5 c-41 -8 -20 26 22
37 19 4 19 5 -1 6 -11 0 -28 -7 -37 -17z"/>
<path d="M900 2911 c0 -13 7 -21 18 -22 14 0 14 -2 -3 -9 -16 -7 -16 -9 -4 -9
10 -1 16 -9 15 -18 0 -10 7 -19 17 -21 12 -2 17 3 17 17 0 13 -7 21 -17 22
-12 1 -10 4 7 9 23 7 23 8 4 9 -14 1 -21 7 -20 18 0 10 -7 19 -16 21 -13 2
-18 -3 -18 -17z m30 -1 c0 -5 -4 -10 -10 -10 -5 0 -10 5 -10 10 0 6 5 10 10
10 6 0 10 -4 10 -10z m20 -60 c0 -5 -4 -10 -10 -10 -5 0 -10 5 -10 10 0 6 5
10 10 10 6 0 10 -4 10 -10z"/>
<path d="M1106 2921 c-4 -5 2 -7 13 -4 34 9 36 -19 3 -48 -18 -16 -32 -31 -32
-34 0 -3 16 -5 35 -5 19 0 35 4 35 9 0 4 -12 6 -27 3 l-28 -5 29 31 c24 26 27
34 16 47 -14 17 -36 20 -44 6z"/>
<path d="M1533 2924 c12 -4 17 -16 17 -44 0 -29 -5 -40 -17 -43 -14 -3 -13 -4
2 -3 17 1 20 8 20 46 0 37 -3 45 -20 47 -16 1 -16 1 -2 -3z"/>
<path d="M1502 2880 c0 -19 2 -27 5 -17 2 9 2 25 0 35 -3 9 -5 1 -5 -18z"/>
<path d="M1308 2893 c12 -2 32 -2 45 0 12 2 2 4 -23 4 -25 0 -35 -2 -22 -4z"/>
<path d="M1308 2863 c12 -2 32 -2 45 0 12 2 2 4 -23 4 -25 0 -35 -2 -22 -4z"/>
<path d="M706 2701 c-4 -5 2 -7 13 -4 34 9 36 -19 3 -48 -18 -16 -32 -31 -32
-34 0 -3 16 -5 35 -5 19 0 35 4 35 9 0 4 -12 6 -27 3 l-28 -5 29 31 c24 26 27
34 16 47 -14 17 -36 20 -44 6z"/>
<path d="M800 2701 c0 -4 11 -6 25 -3 29 5 29 6 10 -47 -15 -44 -11 -58 5 -16
25 67 24 75 -9 75 -17 0 -31 -4 -31 -9z"/>
<path d="M1017 2681 c-22 -37 -21 -41 3 -41 22 0 27 -15 8 -23 -7 -3 -4 -6 8
-6 16 -1 20 4 18 22 -1 12 -3 34 -3 50 -1 35 -12 34 -34 -2z m23 -11 c0 -11
-7 -20 -15 -20 -13 0 -14 4 -5 20 6 11 13 20 15 20 3 0 5 -9 5 -20z"/>
<path d="M1100 2701 c0 -4 11 -6 25 -3 29 5 29 6 10 -47 -15 -44 -11 -58 5
-16 25 67 24 75 -9 75 -17 0 -31 -4 -31 -9z"/>
<path d="M1200 2686 c0 -19 6 -25 29 -28 17 -2 28 -1 25 4 -3 4 -14 8 -25 8
-30 0 -23 28 9 33 25 4 25 4 -5 6 -29 1 -33 -2 -33 -23z"/>
<path d="M1400 2691 c0 -13 7 -21 18 -22 14 0 14 -2 -3 -9 -16 -7 -16 -9 -4
-9 10 -1 16 -9 15 -18 0 -10 7 -19 17 -21 12 -2 17 3 17 17 0 13 -7 21 -17 22
-12 1 -10 4 7 9 23 7 23 8 4 9 -14 1 -21 7 -20 18 0 10 -7 19 -16 21 -13 2
-18 -3 -18 -17z m30 -1 c0 -5 -4 -10 -10 -10 -5 0 -10 5 -10 10 0 6 5 10 10
10 6 0 10 -4 10 -10z m20 -60 c0 -5 -4 -10 -10 -10 -5 0 -10 5 -10 10 0 6 5
10 10 10 6 0 10 -4 10 -10z"/>
<path d="M1600 2701 c0 -4 11 -6 25 -3 29 5 29 6 10 -47 -15 -44 -11 -58 5
-16 25 67 24 75 -9 75 -17 0 -31 -4 -31 -9z"/>
<path d="M1806 2701 c-4 -5 2 -7 13 -4 34 9 36 -19 3 -48 -18 -16 -32 -31 -32
-34 0 -3 16 -5 35 -5 19 0 35 4 35 9 0 4 -12 6 -27 3 l-28 -5 29 31 c24 26 27
34 16 47 -14 17 -36 20 -44 6z"/>
<path d="M1906 2701 c-4 -5 2 -7 13 -4 34 9 36 -19 3 -48 -18 -16 -32 -31 -32
-34 0 -3 16 -5 35 -5 19 0 35 4 35 9 0 4 -12 6 -27 3 l-28 -5 29 31 c24 26 27
34 16 47 -14 17 -36 20 -44 6z"/>
<path d="M2300 2686 c0 -19 6 -25 29 -28 17 -2 28 -1 25 4 -3 4 -14 8 -25 8
-30 0 -23 28 9 33 25 4 25 4 -5 6 -29 1 -33 -2 -33 -23z"/>
<path d="M2504 2695 c-4 -9 -2 -21 4 -27 16 -16 47 -5 47 17 0 26 -42 34 -51
10z m46 -10 c0 -8 -9 -15 -20 -15 -11 0 -20 7 -20 15 0 8 9 15 20 15 11 0 20
-7 20 -15z"/>
<path d="M2700 2686 c0 -19 6 -25 29 -28 17 -2 28 -1 25 4 -3 4 -14 8 -25 8
-30 0 -23 28 9 33 25 4 25 4 -5 6 -29 1 -33 -2 -33 -23z"/>
<path d="M2833 2704 c12 -4 17 -16 17 -44 0 -29 -5 -40 -17 -43 -14 -3 -13 -4
2 -3 17 1 20 8 20 46 0 37 -3 45 -20 47 -16 1 -16 1 -2 -3z"/>
<path d="M2933 2704 c12 -4 17 -16 17 -44 0 -29 -5 -40 -17 -43 -14 -3 -13 -4
2 -3 17 1 20 8 20 46 0 37 -3 45 -20 47 -16 1 -16 1 -2 -3z"/>
<path d="M3033 2704 c12 -4 17 -16 17 -44 0 -29 -5 -40 -17 -43 -14 -3 -13 -4
2 -3 17 1 20 8 20 46 0 37 -3 45 -20 47 -16 1 -16 1 -2 -3z"/>
<path d="M3133 2704 c12 -4 17 -16 17 -44 0 -29 -5 -40 -17 -43 -14 -3 -13 -4
2 -3 17 1 20 8 20 46 0 37 -3 45 -20 47 -16 1 -16 1 -2 -3z"/>
<path d="M3233 2704 c12 -4 17 -16 17 -44 0 -29 -5 -40 -17 -43 -14 -3 -13 -4
2 -3 17 1 20 8 20 46 0 37 -3 45 -20 47 -16 1 -16 1 -2 -3z"/>
<path d="M3333 2704 c12 -4 17 -16 17 -44 0 -29 -5 -40 -17 -43 -14 -3 -13 -4
2 -3 17 1 20 8 20 46 0 37 -3 45 -20 47 -16 1 -16 1 -2 -3z"/>
<path d="M3433 2704 c12 -4 17 -16 17 -44 0 -29 -5 -40 -17 -43 -14 -3 -13 -4
2 -3 17 1 20 8 20 46 0 37 -3 45 -20 47 -16 1 -16 1 -2 -3z"/>
<path d="M3533 2704 c12 -4 17 -16 17 -44 0 -29 -5 -40 -17 -43 -14 -3 -13 -4
2 -3 17 1 20 8 20 46 0 37 -3 45 -20 47 -16 1 -16 1 -2 -3z"/>
<path d="M3633 2704 c12 -4 17 -16 17 -44 0 -29 -5 -40 -17 -43 -14 -3 -13 -4
2 -3 17 1 20 8 20 46 0 37 -3 45 -20 47 -16 1 -16 1 -2 -3z"/>
<path d="M3733 2704 c12 -4 17 -16 17 -44 0 -29 -5 -40 -17 -43 -14 -3 -13 -4
2 -3 17 1 20 8 20 46 0 37 -3 45 -20 47 -16 1 -16 1 -2 -3z"/>
<path d="M3833 2704 c12 -4 17 -16 17 -44 0 -29 -5 -40 -17 -43 -14 -3 -13 -4
2 -3 17 1 20 8 20 46 0 37 -3 45 -20 47 -16 1 -16 1 -2 -3z"/>
<path d="M3906 2701 c-4 -5 2 -7 13 -4 34 9 36 -19 3 -48 -18 -16 -32 -31 -32
-34 0 -3 16 -5 35 -5 19 0 35 4 35 9 0 4 -12 6 -27 3 l-28 -5 29 31 c24 26 27
34 16 47 -14 17 -36 20 -44 6z"/>
<path d="M2802 2660 c0 -19 2 -27 5 -17 2 9 2 25 0 35 -3 9 -5 1 -5 -18z"/>
<path d="M2902 2660 c0 -19 2 -27 5 -17 2 9 2 25 0 35 -3 9 -5 1 -5 -18z"/>
<path d="M3002 2660 c0 -19 2 -27 5 -17 2 9 2 25 0 35 -3 9 -5 1 -5 -18z"/>
<path d="M3102 2660 c0 -19 2 -27 5 -17 2 9 2 25 0 35 -3 9 -5 1 -5 -18z"/>
<path d="M3202 2660 c0 -19 2 -27 5 -17 2 9 2 25 0 35 -3 9 -5 1 -5 -18z"/>
<path d="M3302 2660 c0 -19 2 -27 5 -17 2 9 2 25 0 35 -3 9 -5 1 -5 -18z"/>
<path d="M3402 2660 c0 -19 2 -27 5 -17 2 9 2 25 0 35 -3 9 -5 1 -5 -18z"/>
<path d="M3502 2660 c0 -19 2 -27 5 -17 2 9 2 25 0 35 -3 9 -5 1 -5 -18z"/>
<path d="M3602 2660 c0 -19 2 -27 5 -17 2 9 2 25 0 35 -3 9 -5 1 -5 -18z"/>
<path d="M3702 2660 c0 -19 2 -27 5 -17 2 9 2 25 0 35 -3 9 -5 1 -5 -18z"/>
<path d="M3802 2660 c0 -19 2 -27 5 -17 2 9 2 25 0 35 -3 9 -5 1 -5 -18z"/>
<path d="M2108 2673 c12 -2 32 -2 45 0 12 2 2 4 -23 4 -25 0 -35 -2 -22 -4z"/>
<path d="M2631 2648 c0 -16 -8 -28 -18 -31 -10 -3 -2 -5 17 -6 19 0 30 3 24 7
-7 4 -14 18 -17 32 l-4 25 -2 -27z"/>
<path d="M2108 2643 c12 -2 32 -2 45 0 12 2 2 4 -23 4 -25 0 -35 -2 -22 -4z"/>
<path d="M2504 2630 c2 -24 50 -19 53 5 1 16 1 16 -3 3 -6 -21 -40 -24 -47 -5
-2 7 -3 6 -3 -3z"/>
<path d="M920 2620 c0 -5 5 -10 10 -10 6 0 10 5 10 10 0 6 -4 10 -10 10 -5 0
-10 -4 -10 -10z"/>
<path d="M1207 2618 c2 -5 13 -8 23 -8 10 0 21 3 23 8 3 4 -8 7 -23 7 -15 0
-26 -3 -23 -7z"/>
<path d="M1720 2620 c0 -5 5 -10 10 -10 6 0 10 5 10 10 0 6 -4 10 -10 10 -5 0
-10 -4 -10 -10z"/>
<path d="M2307 2618 c2 -5 13 -8 23 -8 10 0 21 3 23 8 3 4 -8 7 -23 7 -15 0
-26 -3 -23 -7z"/>
<path d="M2420 2620 c0 -5 5 -10 10 -10 6 0 10 5 10 10 0 6 -4 10 -10 10 -5 0
-10 -4 -10 -10z"/>
<path d="M2707 2618 c2 -5 13 -8 23 -8 10 0 21 3 23 8 3 4 -8 7 -23 7 -15 0
-26 -3 -23 -7z"/>
<path d="M1306 2041 c-4 -5 2 -7 13 -4 34 9 36 -19 3 -48 -18 -16 -32 -31 -32
-34 0 -3 16 -5 35 -5 19 0 35 4 35 9 0 4 -12 6 -27 3 l-28 -5 29 31 c24 26 27
34 16 47 -14 17 -36 20 -44 6z"/>
<path d="M691 2018 c1 -17 2 -19 6 -5 8 30 23 19 23 -17 0 -19 -6 -37 -12 -39
-7 -3 1 -5 17 -5 17 0 24 2 18 5 -18 7 -17 73 1 73 8 0 17 -8 19 -17 4 -14 5
-12 6 5 1 19 -4 22 -39 22 -35 0 -40 -3 -39 -22z"/>
<path d="M799 1988 c6 -28 11 -33 37 -35 28 -1 30 1 26 33 -5 40 -18 46 -17 7
0 -18 -6 -29 -17 -31 -14 -3 -18 3 -18 27 0 17 -4 31 -9 31 -5 0 -5 -15 -2
-32z"/>
<path d="M899 2003 c-17 -20 1 -48 30 -47 27 1 28 -23 1 -29 -17 -4 -16 -4 2
-3 20 1 24 8 28 47 5 45 5 46 -22 47 -14 0 -32 -6 -39 -15z m49 -16 c4 -20
-25 -34 -40 -19 -15 15 -1 44 19 40 10 -2 19 -11 21 -21z"/>
<path d="M1010 2014 c43 -16 44 -17 15 -23 -44 -9 -39 -36 6 -37 35 -2 36 -1
30 30 -6 26 -12 31 -36 33 -17 1 -23 0 -15 -3z m35 -44 c-3 -5 -15 -10 -26
-10 -10 0 -19 5 -19 10 0 6 12 10 26 10 14 0 23 -4 19 -10z"/>
<path d="M1105 2010 c-9 -15 4 -30 26 -30 10 0 19 -5 19 -11 0 -7 -10 -9 -25
-7 -14 3 -25 1 -25 -4 0 -5 12 -8 28 -6 33 4 37 32 5 36 -13 2 -23 8 -23 14 0
6 11 8 25 6 14 -3 25 -1 25 3 0 12 -47 11 -55 -1z"/>
<path d="M1733 1824 c12 -4 17 -16 17 -44 0 -29 -5 -40 -17 -43 -14 -3 -13 -4
2 -3 17 1 20 8 20 46 0 37 -3 45 -20 47 -16 1 -16 1 -2 -3z"/>
<path d="M695 1775 c0 -25 5 -45 10 -45 13 0 13 82 0 87 -6 2 -10 -17 -10 -42z"/>
<path d="M745 1781 c0 -22 4 -43 8 -47 4 -4 7 11 7 34 0 23 5 42 13 45 6 3 3
6 -8 6 -17 1 -20 -5 -20 -38z"/>
<path d="M1702 1780 c0 -19 2 -27 5 -17 2 9 2 25 0 35 -3 9 -5 1 -5 -18z"/>
<path d="M799 1768 c6 -32 9 -33 58 -36 48 -2 50 -1 46 22 -3 13 0 27 6 30 7
5 11 -4 11 -23 0 -23 5 -31 18 -31 13 0 14 2 4 9 -16 10 -12 43 6 49 8 2 12
-7 12 -27 0 -29 1 -30 46 -28 56 2 79 26 52 53 -17 17 -58 12 -58 -8 0 -6 6
-6 15 2 18 15 45 6 45 -15 0 -21 -27 -30 -45 -15 -10 9 -15 9 -15 1 0 -24 -29
-10 -32 16 -3 25 -8 28 -44 31 -40 2 -41 2 -36 -28 3 -23 0 -30 -12 -30 -11 0
-16 9 -16 30 0 17 -4 30 -8 30 -4 0 -8 -12 -7 -27 0 -18 -6 -29 -17 -31 -14
-3 -18 3 -18 27 0 17 -4 31 -9 31 -5 0 -5 -15 -2 -32z"/>
<path d="M1095 1780 c-12 -38 29 -63 65 -40 11 7 6 8 -16 4 -19 -4 -34 -1 -38
5 -5 7 5 11 28 11 38 0 44 8 24 28 -19 19 -56 14 -63 -8z m60 0 c4 -6 -7 -10
-25 -10 -18 0 -29 4 -25 10 3 6 15 10 25 10 10 0 22 -4 25 -10z"/>
<path d="M1208 1772 c3 -14 -1 -28 -9 -33 -9 -6 0 -8 26 -7 24 0 31 2 17 5
-29 6 -26 33 7 49 22 12 22 12 -11 11 -31 -1 -34 -3 -30 -25z"/>
<path d="M1408 1793 c12 -2 32 -2 45 0 12 2 2 4 -23 4 -25 0 -35 -2 -22 -4z"/>
<path d="M720 1781 c0 -5 5 -13 10 -16 6 -3 10 -2 10 4 0 5 -4 13 -10 16 -5 3
-10 2 -10 -4z"/>
<path d="M1631 1768 c0 -16 -8 -28 -18 -31 -10 -3 -2 -5 17 -6 19 0 30 3 24 7
-7 4 -14 18 -17 32 l-4 25 -2 -27z"/>
<path d="M1408 1763 c12 -2 32 -2 45 0 12 2 2 4 -23 4 -25 0 -35 -2 -22 -4z"/>
<path d="M708 1603 c7 -3 16 -2 19 1 4 3 -2 6 -13 5 -11 0 -14 -3 -6 -6z"/>
<path d="M902 1584 c-7 -8 -8 -14 -2 -14 5 0 10 -11 10 -25 0 -30 21 -41 47
-26 15 9 13 10 -9 5 -25 -6 -28 -3 -28 20 0 20 5 26 23 27 20 1 20 2 2 6 -11
3 -22 9 -25 13 -3 4 -11 2 -18 -6z"/>
<path d="M1002 1584 c-7 -8 -8 -14 -2 -14 5 0 10 -11 10 -25 0 -30 21 -41 47
-26 15 9 13 10 -9 5 -25 -6 -28 -3 -28 20 0 20 5 26 23 27 20 1 20 2 2 6 -11
3 -22 9 -25 13 -3 4 -11 2 -18 -6z"/>
<path d="M795 1560 c-12 -38 29 -63 65 -40 11 7 6 8 -16 4 -19 -4 -34 -1 -38
5 -5 7 5 11 28 11 38 0 44 8 24 28 -19 19 -56 14 -63 -8z m60 0 c4 -6 -7 -10
-25 -10 -18 0 -29 4 -25 10 3 6 15 10 25 10 10 0 22 -4 25 -10z"/>
<path d="M1095 1560 c-12 -38 29 -63 65 -40 11 7 6 8 -16 4 -19 -4 -34 -1 -38
5 -5 7 5 11 28 11 38 0 44 8 24 28 -19 19 -56 14 -63 -8z m60 0 c4 -6 -7 -10
-25 -10 -18 0 -29 4 -25 10 3 6 15 10 25 10 10 0 22 -4 25 -10z"/>
<path d="M1208 1552 c3 -14 -1 -28 -9 -33 -9 -6 0 -8 26 -7 24 0 31 2 17 5
-29 6 -26 33 7 49 22 12 22 12 -11 11 -31 -1 -34 -3 -30 -25z"/>
<path d="M1408 1573 c12 -2 32 -2 45 0 12 2 2 4 -23 4 -25 0 -35 -2 -22 -4z"/>
<path d="M1610 1574 c43 -16 44 -17 15 -23 -44 -9 -39 -36 6 -37 35 -2 36 -1
30 30 -6 26 -12 31 -36 33 -17 1 -23 0 -15 -3z m35 -44 c-3 -5 -15 -10 -26
-10 -10 0 -19 5 -19 10 0 6 12 10 26 10 14 0 23 -4 19 -10z"/>
<path d="M1408 1543 c12 -2 32 -2 45 0 12 2 2 4 -23 4 -25 0 -35 -2 -22 -4z"/>
<path d="M718 1513 c12 -2 30 -2 40 0 9 3 -1 5 -23 4 -22 0 -30 -2 -17 -4z"/>
<path d="M1108 1383 c7 -3 16 -2 19 1 4 3 -2 6 -13 5 -11 0 -14 -3 -6 -6z"/>
<path d="M1202 1364 c-7 -8 -8 -14 -2 -14 5 0 10 -11 10 -25 0 -30 21 -41 47
-26 15 9 13 10 -9 5 -25 -6 -28 -3 -28 20 0 20 5 26 23 27 20 1 20 2 2 6 -11
3 -22 9 -25 13 -3 4 -11 2 -18 -6z"/>
<path d="M1602 1364 c-7 -8 -8 -14 -2 -14 5 0 10 -11 10 -25 0 -30 21 -41 47
-26 15 9 13 10 -9 5 -25 -6 -28 -3 -28 20 0 20 5 26 23 27 20 1 20 2 2 6 -11
3 -22 9 -25 13 -3 4 -11 2 -18 -6z"/>
<path d="M708 1332 c3 -14 -1 -28 -9 -33 -9 -6 0 -8 26 -7 24 0 31 2 17 5 -29
6 -26 33 7 49 22 12 22 12 -11 11 -31 -1 -34 -3 -30 -25z"/>
<path d="M795 1340 c-12 -38 29 -63 65 -40 11 7 6 8 -16 4 -19 -4 -34 -1 -38
5 -5 7 5 11 28 11 38 0 44 8 24 28 -19 19 -56 14 -63 -8z m60 0 c4 -6 -7 -10
-25 -10 -18 0 -29 4 -25 10 3 6 15 10 25 10 10 0 22 -4 25 -10z"/>
<path d="M905 1350 c-9 -15 4 -30 26 -30 10 0 19 -5 19 -11 0 -7 -10 -9 -25
-7 -14 3 -25 1 -25 -4 0 -5 12 -8 28 -6 33 4 37 32 5 36 -13 2 -23 8 -23 14 0
6 11 8 25 6 14 -3 25 -1 25 3 0 12 -47 11 -55 -1z"/>
<path d="M999 1328 c6 -28 11 -33 37 -35 28 -1 30 1 26 33 -5 40 -18 46 -17 7
0 -18 -6 -29 -17 -31 -14 -3 -18 3 -18 27 0 17 -4 31 -9 31 -5 0 -5 -15 -2
-32z"/>
<path d="M1408 1353 c12 -2 32 -2 45 0 12 2 2 4 -23 4 -25 0 -35 -2 -22 -4z"/>
<path d="M1708 1332 c3 -14 -1 -28 -9 -33 -9 -6 0 -8 26 -7 24 0 31 2 17 5
-29 6 -26 33 7 49 22 12 22 12 -11 11 -31 -1 -34 -3 -30 -25z"/>
<path d="M1799 1328 c6 -28 11 -33 37 -35 28 -1 30 1 26 33 -5 40 -18 46 -17
7 0 -18 -6 -29 -17 -31 -14 -3 -18 3 -18 27 0 17 -4 31 -9 31 -5 0 -5 -15 -2
-32z"/>
<path d="M1895 1340 c-12 -38 29 -63 65 -40 11 7 6 8 -16 4 -19 -4 -34 -1 -38
5 -5 7 5 11 28 11 38 0 44 8 24 28 -19 19 -56 14 -63 -8z m60 0 c4 -6 -7 -10
-25 -10 -18 0 -29 4 -25 10 3 6 15 10 25 10 10 0 22 -4 25 -10z"/>
<path d="M1408 1323 c12 -2 32 -2 45 0 12 2 2 4 -23 4 -25 0 -35 -2 -22 -4z"/>
<path d="M1118 1293 c12 -2 30 -2 40 0 9 3 -1 5 -23 4 -22 0 -30 -2 -17 -4z"/>
<path d="M1295 1120 c0 -28 5 -50 10 -50 6 0 11 12 10 27 0 19 6 29 19 31 16
3 18 -1 14 -27 -3 -20 0 -31 7 -31 9 0 10 10 6 33 -6 25 -12 32 -29 31 -15 0
-22 5 -22 18 0 10 -3 18 -7 18 -5 0 -8 -22 -8 -50z"/>
<path d="M1508 1163 c7 -3 16 -2 19 1 4 3 -2 6 -13 5 -11 0 -14 -3 -6 -6z"/>
<path d="M1608 1163 c7 -3 16 -2 19 1 4 3 -2 6 -13 5 -11 0 -14 -3 -6 -6z"/>
<path d="M802 1144 c-7 -8 -8 -14 -2 -14 5 0 10 -11 10 -25 0 -30 21 -41 47
-26 15 9 13 10 -9 5 -25 -6 -28 -3 -28 20 0 20 5 26 23 27 20 1 20 2 2 6 -11
3 -22 9 -25 13 -3 4 -11 2 -18 -6z"/>
<path d="M705 1130 c-9 -15 4 -30 26 -30 10 0 19 -5 19 -11 0 -7 -10 -9 -25
-7 -14 3 -25 1 -25 -4 0 -5 12 -8 28 -6 33 4 37 32 5 36 -13 2 -23 8 -23 14 0
6 11 8 25 6 14 -3 25 -1 25 3 0 12 -47 11 -55 -1z"/>
<path d="M908 1112 c3 -14 -1 -28 -9 -33 -9 -6 0 -8 26 -7 24 0 31 2 17 5 -29
6 -26 33 7 49 22 12 22 12 -11 11 -31 -1 -34 -3 -30 -25z"/>
<path d="M1108 1133 c12 -2 32 -2 45 0 12 2 2 4 -23 4 -25 0 -35 -2 -22 -4z"/>
<path d="M1395 1120 c-12 -38 29 -63 65 -40 11 7 6 8 -16 4 -19 -4 -34 -1 -38
5 -5 7 5 11 28 11 38 0 44 8 24 28 -19 19 -56 14 -63 -8z m60 0 c4 -6 -7 -10
-25 -10 -18 0 -29 4 -25 10 3 6 15 10 25 10 10 0 22 -4 25 -10z"/>
<path d="M1699 1124 c-17 -21 0 -49 31 -49 31 0 48 28 31 49 -8 9 -21 16 -31
16 -10 0 -23 -7 -31 -16z m56 -19 c0 -22 -31 -33 -47 -17 -17 17 -1 44 24 40
15 -2 23 -10 23 -23z"/>
<path d="M1108 1103 c12 -2 32 -2 45 0 12 2 2 4 -23 4 -25 0 -35 -2 -22 -4z"/>
<path d="M1518 1073 c12 -2 30 -2 40 0 9 3 -1 5 -23 4 -22 0 -30 -2 -17 -4z"/>
<path d="M1618 1073 c12 -2 30 -2 40 0 9 3 -1 5 -23 4 -22 0 -30 -2 -17 -4z"/>
<path d="M1306 502 c-3 -6 2 -8 13 -5 23 6 38 -15 16 -23 -14 -6 -14 -8 1 -19
22 -16 8 -38 -19 -31 -14 3 -17 2 -10 -5 6 -6 19 -9 29 -7 15 3 19 12 19 48 0
38 -3 45 -22 48 -11 2 -24 -1 -27 -6z"/>
<path d="M691 478 c1 -17 2 -19 6 -5 8 30 23 19 23 -17 0 -19 -6 -37 -12 -39
-7 -3 1 -5 17 -5 17 0 24 2 18 5 -18 7 -17 73 1 73 8 0 17 -8 19 -17 4 -14 5
-12 6 5 1 19 -4 22 -39 22 -35 0 -40 -3 -39 -22z"/>
<path d="M799 448 c6 -28 11 -33 37 -35 28 -1 30 1 26 33 -5 40 -18 46 -17 7
0 -18 -6 -29 -17 -31 -14 -3 -18 3 -18 27 0 17 -4 31 -9 31 -5 0 -5 -15 -2
-32z"/>
<path d="M899 463 c-17 -20 1 -48 30 -47 27 1 28 -23 1 -29 -17 -4 -16 -4 2
-3 20 1 24 8 28 47 5 45 5 46 -22 47 -14 0 -32 -6 -39 -15z m49 -16 c4 -20
-25 -34 -40 -19 -15 15 -1 44 19 40 10 -2 19 -11 21 -21z"/>
<path d="M1010 474 c43 -16 44 -17 15 -23 -44 -9 -39 -36 6 -37 35 -2 36 -1
30 30 -6 26 -12 31 -36 33 -17 1 -23 0 -15 -3z m35 -44 c-3 -5 -15 -10 -26
-10 -10 0 -19 5 -19 10 0 6 12 10 26 10 14 0 23 -4 19 -10z"/>
<path d="M1105 470 c-9 -15 4 -30 26 -30 10 0 19 -5 19 -11 0 -7 -10 -9 -25
-7 -14 3 -25 1 -25 -4 0 -5 12 -8 28 -6 33 4 37 32 5 36 -13 2 -23 8 -23 14 0
6 11 8 25 6 14 -3 25 -1 25 3 0 12 -47 11 -55 -1z"/>
<path d="M13500 349 c0 -9 8 -23 18 -33 18 -15 20 -15 35 2 24 26 23 50 -1 29
-17 -15 -19 -15 -35 0 -15 15 -17 15 -17 2z"/>
<path d="M1107 270 c3 -11 7 -20 9 -20 2 0 4 9 4 20 0 11 -4 20 -9 20 -5 0 -7
-9 -4 -20z"/>
<path d="M1207 270 c3 -11 7 -20 9 -20 2 0 4 9 4 20 0 11 -4 20 -9 20 -5 0 -7
-9 -4 -20z"/>
<path d="M686 267 c3 -8 11 -14 18 -14 8 0 12 6 9 14 -3 7 -11 13 -19 13 -7 0
-11 -6 -8 -13z"/>
<path d="M747 267 c-3 -8 1 -14 9 -14 7 0 15 6 18 14 3 7 -1 13 -8 13 -8 0
-16 -6 -19 -13z"/>
<path d="M813 253 c9 -2 23 -2 30 0 6 3 -1 5 -18 5 -16 0 -22 -2 -12 -5z"/>
<path d="M923 253 c9 -2 23 -2 30 0 6 3 -1 5 -18 5 -16 0 -22 -2 -12 -5z"/>
<path d="M1148 253 c7 -3 16 -2 19 1 4 3 -2 6 -13 5 -11 0 -14 -3 -6 -6z"/>
<path d="M1248 253 c7 -3 16 -2 19 1 4 3 -2 6 -13 5 -11 0 -14 -3 -6 -6z"/>
<path d="M1313 253 c9 -2 23 -2 30 0 6 3 -1 5 -18 5 -16 0 -22 -2 -12 -5z"/>
<path d="M1428 253 c7 -3 16 -2 19 1 4 3 -2 6 -13 5 -11 0 -14 -3 -6 -6z"/>
<path d="M1613 253 c9 -2 23 -2 30 0 6 3 -1 5 -18 5 -16 0 -22 -2 -12 -5z"/>
<path d="M1713 253 c9 -2 23 -2 30 0 6 3 -1 5 -18 5 -16 0 -22 -2 -12 -5z"/>
<path d="M1793 253 c9 -2 23 -2 30 0 6 3 -1 5 -18 5 -16 0 -22 -2 -12 -5z"/>
<path d="M100 150 c0 -11 -7 -20 -15 -20 -10 0 -15 -10 -15 -30 0 -28 3 -30
35 -30 28 0 35 4 35 20 0 11 7 20 15 20 10 0 15 10 15 30 0 28 -3 30 -35 30
-28 0 -35 -4 -35 -20z m60 -16 c0 -11 -5 -14 -16 -10 -9 3 -20 6 -25 6 -5 0
-9 5 -9 10 0 6 11 10 25 10 16 0 25 -6 25 -16z m-30 -39 c0 -9 -9 -15 -25 -15
-16 0 -25 6 -25 15 0 9 9 15 25 15 16 0 25 -6 25 -15z"/>
<path d="M308 163 c23 -2 59 -2 80 0 20 2 1 4 -43 4 -44 0 -61 -2 -37 -4z"/>
<path d="M477 154 c-11 -11 -8 -62 4 -69 5 -4 21 -4 35 -1 21 6 25 12 22 39
-2 26 -8 33 -28 35 -14 2 -29 0 -33 -4z m48 -34 c0 -29 -32 -41 -41 -16 -9 24
4 48 23 44 12 -2 18 -12 18 -28z"/>
<path d="M618 150 c-8 -24 4 -70 18 -70 8 0 14 -6 14 -12 0 -9 3 -9 8 -2 4 6
15 13 25 17 31 12 18 51 -18 55 -16 2 -33 8 -36 14 -4 6 -8 6 -11 -2z m32 -40
c0 -11 -4 -20 -10 -20 -5 0 -10 9 -10 20 0 11 5 20 10 20 6 0 10 -9 10 -20z
m40 0 c0 -11 -7 -20 -15 -20 -8 0 -15 9 -15 20 0 11 7 20 15 20 8 0 15 -9 15
-20z"/>
<path d="M778 148 c-9 -25 5 -68 21 -67 10 0 11 2 4 6 -15 5 -17 40 -4 45 5 2
3 8 -4 15 -10 9 -15 9 -17 1z"/>
<path d="M330 131 c0 -25 6 -27 13 -6 4 8 2 17 -3 20 -6 4 -10 -3 -10 -14z"/>
<path d="M12763 143 c21 -5 21 -7 2 -43 -9 -17 -13 -30 -10 -30 2 0 14 18 25
40 l20 40 -27 -1 c-17 -1 -21 -3 -10 -6z"/>
<path d="M12810 136 c-18 -23 -9 -61 15 -61 29 0 32 35 4 42 -21 6 -21 7 -4
20 11 7 14 13 8 13 -6 0 -16 -7 -23 -14z m30 -41 c0 -8 -7 -15 -15 -15 -8 0
-15 7 -15 15 0 8 7 15 15 15 8 0 15 -7 15 -15z"/>
<path d="M12910 136 c-18 -23 -9 -61 15 -61 29 0 32 35 4 42 -21 6 -21 7 -4
20 11 7 14 13 8 13 -6 0 -16 -7 -23 -14z m30 -41 c0 -8 -7 -15 -15 -15 -8 0
-15 7 -15 15 0 8 7 15 15 15 8 0 15 -7 15 -15z"/>
<path d="M13445 110 c0 -22 5 -40 10 -40 6 0 10 18 10 40 0 22 -4 40 -10 40
-5 0 -10 -18 -10 -40z"/>
<path d="M13482 110 c1 -45 1 -45 8 -10 4 19 8 31 9 25 1 -5 10 -21 21 -35
l20 -25 -2 45 c-1 32 -2 37 -5 16 l-5 -29 -23 29 -24 29 1 -45z"/>
<path d="M13557 143 c-13 -13 -7 -31 13 -36 11 -3 20 -11 20 -17 0 -7 -8 -10
-20 -7 -11 3 -20 1 -20 -5 0 -5 10 -8 22 -6 30 4 35 34 9 43 -27 8 -27 29 -1
22 11 -3 18 -1 14 4 -6 11 -28 12 -37 2z"/>
<path d="M551 113 c-1 -29 2 -33 24 -33 22 0 25 4 24 33 -1 29 -2 29 -8 8 -9
-35 -29 -37 -34 -4 -4 27 -4 27 -6 -4z"/>
<path d="M711 113 c-1 -29 2 -33 24 -33 22 0 25 4 24 33 -1 29 -2 29 -8 8 -9
-35 -29 -37 -34 -4 -4 27 -4 27 -6 -4z"/>
<path d="M368 123 c7 -3 16 -2 19 1 4 3 -2 6 -13 5 -11 0 -14 -3 -6 -6z"/>
<path d="M271 93 c-1 -17 5 -23 21 -23 12 0 36 -5 54 -12 40 -14 85 2 83 29
-1 17 -2 17 -6 1 -9 -35 -92 -35 -94 0 0 11 -3 12 -6 5 -7 -19 -41 -16 -46 5
-4 13 -5 11 -6 -5z"/>
</g>
</svg>
