<?xml version="1.0" standalone="no"?>
<!DOCTYPE svg PUBLIC "-//W3C//DTD SVG 20010904//EN"
 "http://www.w3.org/TR/2001/REC-SVG-20010904/DTD/svg10.dtd">
<svg version="1.0" xmlns="http://www.w3.org/2000/svg"
 width="640.000000pt" height="690.000000pt" viewBox="0 0 640.000000 690.000000"
 preserveAspectRatio="xMidYMid meet">

<g transform="translate(0.000000,690.000000) scale(0.100000,-0.100000)"
fill="#000000" stroke="none">
<path d="M3238 6624 c-122 -19 -334 -110 -426 -181 -20 -16 -43 -32 -53 -38
-24 -15 -96 -75 -131 -110 -62 -62 -114 -142 -135 -205 -36 -106 -62 -202 -68
-250 -25 -196 -27 -302 -9 -472 4 -43 3 -58 -6 -58 -9 0 -11 -14 -7 -50 6 -51
1 -60 -21 -38 -15 15 -15 7 -1 -65 11 -55 29 -78 29 -38 0 11 4 22 9 25 5 3 6
-22 4 -58 -6 -67 20 -180 39 -174 6 2 11 57 13 123 5 170 33 292 87 371 23 33
59 73 79 89 41 30 69 85 94 182 8 32 21 63 28 68 6 6 17 19 23 30 15 26 44 32
44 9 0 -10 3 -14 8 -10 4 4 7 13 7 19 0 16 67 47 80 38 18 -14 98 -13 106 1 6
9 9 5 10 -12 0 -14 3 -19 6 -12 2 6 14 12 26 12 12 0 33 9 47 20 14 11 32 20
40 20 8 0 28 7 43 15 34 17 97 16 97 -2 0 -7 5 -13 10 -13 6 0 10 5 10 11 0 6
7 9 15 5 9 -3 15 0 15 9 0 8 5 15 10 15 6 0 10 -5 10 -11 0 -6 14 1 31 16 23
18 35 23 42 16 15 -15 24 -14 31 5 5 14 4 15 -9 4 -8 -7 -15 -8 -15 -2 0 14
43 40 58 35 19 -7 14 -29 -14 -63 -15 -17 -24 -33 -22 -35 9 -9 73 18 86 37 7
10 22 18 32 18 14 0 18 -7 17 -27 -2 -22 2 -28 18 -26 11 1 23 -3 27 -10 4 -7
14 -3 27 14 16 19 22 21 30 10 6 -9 11 -10 15 -2 15 23 25 10 20 -26 -2 -21
-2 -32 2 -25 3 6 12 12 20 12 12 0 13 -8 8 -35 -7 -40 7 -47 24 -11 15 33 60
33 73 -1 5 -13 21 -28 36 -34 16 -5 36 -23 45 -39 9 -17 25 -30 34 -30 9 0 22
-7 29 -17 8 -11 17 -13 26 -7 36 22 106 -17 125 -71 8 -22 12 -45 10 -51 -10
-28 14 -146 43 -209 38 -82 50 -165 41 -295 -4 -52 -6 -96 -4 -98 6 -9 68 57
80 85 20 47 17 56 -11 37 -24 -15 -25 -15 -25 2 0 11 9 53 20 94 44 166 71
368 72 527 0 182 -10 237 -68 358 -24 52 -44 96 -44 99 0 3 -14 25 -30 48 -17
24 -38 54 -47 68 -26 38 -113 118 -188 170 -19 14 -46 33 -58 43 -22 19 -121
67 -136 67 -5 0 -11 7 -15 15 -3 8 -12 15 -21 15 -8 0 -54 13 -102 28 -49 16
-97 30 -108 31 -78 8 -273 6 -337 -5z"/>
<path d="M2849 5451 c-70 -34 -149 -97 -149 -119 0 -7 -18 -39 -40 -69 -52
-74 -52 -102 0 -137 22 -14 44 -26 50 -26 5 0 10 -4 10 -10 0 -5 13 -10 29
-10 23 0 30 -5 33 -22 4 -27 67 -61 144 -78 41 -9 76 -8 165 5 63 9 123 18
134 20 11 2 51 31 88 65 82 73 119 79 161 29 14 -17 26 -34 26 -37 0 -4 15
-24 33 -44 46 -53 156 -88 297 -95 113 -5 148 5 134 40 -7 18 -18 22 -96 32
-33 4 -48 11 -48 21 0 10 6 14 18 10 9 -2 72 -7 139 -11 122 -7 122 -7 148 19
32 32 32 45 -6 102 -31 46 -32 47 -15 75 l18 30 -65 66 -65 67 -59 -12 c-38
-8 -76 -9 -104 -4 -24 5 -91 9 -149 11 -57 1 -110 7 -117 13 -18 15 -37 0 -22
-18 16 -19 4 -30 -16 -14 -8 7 -48 14 -88 16 -101 5 -130 8 -144 17 -12 8
-127 32 -228 47 -33 5 -87 15 -121 23 -55 13 -64 13 -95 -2z m66 -361 c7 -12
-29 -12 -65 0 -21 7 -19 8 17 9 23 1 45 -3 48 -9z m75 -10 c12 -8 11 -10 -7
-10 -12 0 -25 5 -28 10 -8 13 15 13 35 0z"/>
<path d="M2455 4880 c-3 -11 -2 -28 4 -37 8 -15 10 -11 11 20 0 41 -5 47 -15
17z"/>
<path d="M3100 4827 c-14 -7 -42 -24 -61 -39 -20 -16 -43 -28 -51 -28 -9 0
-21 -6 -27 -14 -23 -27 -127 -56 -214 -59 -52 -2 -92 -8 -101 -16 -22 -19 -70
12 -61 38 7 22 -19 36 -32 18 -23 -30 -36 -97 -25 -122 8 -17 9 -40 2 -74 -13
-69 -2 -145 31 -219 l28 -63 -24 -9 c-102 -40 -139 -68 -170 -127 -11 -21 -26
-44 -33 -52 -8 -8 -11 -22 -9 -32 3 -10 1 -19 -3 -21 -5 -2 -19 -30 -32 -62
-22 -56 -26 -61 -68 -72 -25 -6 -78 -28 -119 -47 -40 -20 -99 -41 -130 -47
-31 -6 -101 -28 -156 -49 -55 -21 -134 -50 -176 -65 -109 -39 -185 -93 -327
-235 -70 -69 -137 -134 -149 -143 -27 -21 -30 -56 -6 -73 14 -11 13 -13 -14
-23 -26 -9 -34 -21 -56 -84 -14 -40 -48 -137 -75 -216 -33 -94 -46 -145 -38
-147 6 -2 33 -6 59 -8 27 -3 54 -10 60 -17 9 -10 9 -11 -1 -5 -8 4 -25 2 -38
-5 -19 -11 -29 -11 -50 -1 -22 10 -30 9 -46 -6 -13 -11 -17 -25 -14 -39 4 -13
2 -26 -4 -29 -5 -3 -10 -11 -10 -16 0 -6 12 -1 27 10 32 26 36 23 21 -17 -16
-41 -7 -47 32 -27 l33 17 35 -36 c56 -55 29 -57 -153 -10 -17 5 -22 -2 -31
-43 -10 -43 -9 -53 10 -93 26 -56 88 -93 153 -93 23 0 43 -3 43 -6 -1 -14 -96
-75 -115 -73 -54 4 -95 58 -95 126 0 20 -4 36 -9 36 -19 0 -31 -146 -34 -420
l-2 -155 -62 -142 c-64 -144 -93 -239 -93 -305 0 -20 -5 -40 -10 -43 -6 -4 -8
-10 -5 -15 3 -4 -2 -13 -10 -20 -24 -20 -42 -90 -26 -100 10 -6 9 -14 -5 -36
-11 -16 -19 -47 -20 -74 0 -25 -8 -72 -18 -105 -27 -95 -31 -190 -11 -265 9
-36 24 -94 32 -130 14 -56 23 -71 72 -121 91 -91 123 -103 271 -103 122 -1
127 0 193 32 129 64 230 186 252 305 6 32 11 37 36 37 l28 0 -2 180 c-2 148 1
182 13 193 8 8 54 28 103 45 127 44 175 75 198 128 11 24 24 46 29 49 6 4 17
22 24 40 10 24 23 36 43 41 38 9 110 42 117 53 6 9 -22 26 -37 22 -5 -1 -24 4
-42 10 -30 11 -36 10 -65 -14 -29 -25 -38 -27 -127 -27 -69 0 -101 4 -112 14
-9 8 -54 19 -101 25 -47 6 -112 15 -144 20 -33 6 -63 8 -68 5 -4 -3 -44 -9
-89 -14 -82 -9 -149 -28 -149 -41 0 -4 -9 -10 -19 -14 -19 -6 -19 -7 -3 -25 9
-11 32 -23 52 -26 19 -3 46 -13 59 -22 28 -17 181 -31 358 -31 123 -1 205 -14
228 -38 36 -36 -67 -106 -128 -87 -12 4 -62 8 -112 9 -49 1 -100 5 -112 9 -13
4 -28 4 -35 0 -7 -4 -26 -9 -42 -11 -17 -2 -35 -8 -40 -13 -6 -6 -19 -10 -30
-11 -20 0 -20 -1 -1 -8 15 -6 8 -9 -27 -14 -63 -9 -98 9 -98 47 0 12 -63 29
-115 31 -18 0 -34 22 -30 41 2 11 6 52 9 92 l4 73 -34 16 c-19 9 -40 31 -49
49 -14 30 -14 49 1 121 2 14 23 32 54 49 39 21 47 30 39 40 -6 7 -8 17 -6 21
3 5 -9 7 -27 5 -19 -2 -47 3 -65 12 -30 16 -30 17 -18 49 8 19 34 46 65 67 29
19 52 43 52 52 0 9 7 23 15 32 8 8 15 21 15 28 0 7 11 36 24 64 17 36 32 54
55 63 17 8 31 20 31 27 0 23 -36 16 -70 -12 -17 -15 -45 -28 -61 -30 -27 -3
-28 -2 -19 16 6 11 26 32 45 47 20 16 48 46 63 68 53 78 66 74 59 -20 -6 -83
-3 -86 52 -59 23 12 30 21 26 33 -4 9 -9 23 -13 31 -3 8 7 4 23 -10 l28 -25
-17 32 c-22 44 -5 42 18 -2 22 -41 25 -41 101 -15 32 11 77 20 101 20 l42 0 6
63 c3 34 8 137 12 230 6 160 5 167 -12 161 -18 -5 -18 -5 0 10 35 28 0 17 -42
-14 -22 -16 -53 -50 -67 -75 -15 -25 -31 -42 -36 -39 -5 3 -9 0 -9 -5 0 -6 -4
-11 -10 -11 -13 0 -13 40 0 60 6 9 5 19 -3 28 -8 11 -7 16 6 23 10 6 17 22 17
39 0 41 47 84 112 102 l53 15 3 54 c2 30 6 57 10 61 4 4 73 1 152 -7 192 -20
594 -54 598 -50 1 1 -4 15 -13 31 -12 23 -15 25 -15 9 0 -17 -4 -16 -32 12
-21 21 -34 46 -39 75 l-6 43 -2 -37 c-1 -50 -28 -49 -69 4 -17 22 -29 124 -13
114 6 -4 11 -5 11 -2 0 3 -9 10 -19 16 -18 9 -19 7 -14 -24 10 -61 -16 -116
-32 -67 -3 11 -10 45 -15 77 -13 80 -27 87 -23 12 l4 -63 -25 28 c-21 22 -26
39 -26 77 0 66 -16 72 -25 10 -8 -58 -18 -68 -38 -40 -11 17 -12 28 -2 68 7
26 10 52 7 57 -4 6 -7 3 -9 -5 -9 -70 -16 -90 -28 -90 -20 0 -23 21 -8 57 17
42 17 43 -6 43 -14 0 -27 16 -44 51 -20 42 -26 48 -36 35 -10 -12 -8 -16 9
-21 12 -4 19 -9 16 -12 -3 -3 1 -15 9 -26 15 -21 5 -47 -17 -47 -6 0 -4 8 3
17 13 16 13 16 -11 0 -13 -9 -31 -17 -38 -17 -12 0 -12 3 -1 17 10 11 10 14 2
9 -18 -10 -16 4 4 26 16 18 16 18 -13 3 -16 -8 -38 -15 -49 -15 -16 1 -14 4
10 17 17 9 25 18 17 21 -6 2 -9 9 -5 15 4 6 -7 1 -24 -11 -17 -12 -34 -22 -38
-22 -8 0 0 137 10 162 4 9 20 21 36 27 27 9 29 9 29 -18 0 -15 -6 -33 -12 -40
-11 -10 -10 -11 4 -6 11 4 18 20 20 43 3 36 4 37 58 46 38 6 55 5 58 -3 10
-31 127 -65 299 -86 140 -18 136 -17 129 -6 -4 5 7 38 24 73 24 51 30 58 30
35 0 -15 -9 -53 -20 -84 -22 -63 -19 -128 6 -119 16 6 18 -6 4 -20 -15 -15 13
-76 49 -107 l30 -25 -29 -12 c-39 -16 -38 -39 4 -79 35 -34 148 -73 184 -65
25 6 36 -6 61 -68 30 -75 37 -78 236 -94 76 -6 107 4 87 29 -8 9 -9 23 -2 48
6 18 10 45 10 59 0 21 5 26 24 25 13 0 33 -8 44 -18 12 -11 26 -16 31 -12 7 4
11 -9 11 -38 0 -29 -5 -47 -14 -50 -11 -4 -11 -12 -2 -41 l11 -36 77 0 c56 0
78 4 78 13 0 6 -18 50 -40 97 -22 47 -40 98 -40 114 0 21 -4 27 -15 22 -12 -4
-13 -2 -6 13 15 27 2 91 -18 92 -12 0 -11 2 4 8 11 4 48 6 83 3 52 -4 62 -7
62 -23 0 -13 5 -16 16 -12 10 4 17 -1 21 -15 7 -28 39 -34 95 -15 51 16 95 11
104 -12 4 -8 -9 -27 -30 -46 -34 -29 -63 -69 -52 -69 3 0 14 9 25 21 27 29 76
15 76 -22 0 -25 -1 -25 -106 -54 -31 -8 -59 -22 -63 -30 -4 -12 0 -14 18 -9
22 5 24 3 23 -27 -2 -26 3 -36 23 -45 13 -7 29 -9 35 -5 21 17 55 20 55 5 0
-12 48 -14 313 -14 l313 1 13 34 c16 46 31 44 32 -2 1 -30 3 -26 9 20 8 64 16
79 30 57 8 -12 10 -12 10 3 0 25 38 77 56 77 8 0 14 4 14 9 0 6 21 32 46 58
56 59 74 97 74 162 0 27 5 53 10 56 6 4 8 11 5 16 -4 5 1 12 9 15 9 3 16 14
16 24 0 25 15 33 37 21 58 -33 107 -52 93 -37 -8 8 -74 45 -145 82 -72 36
-135 70 -142 76 -6 5 -64 36 -128 69 -76 39 -124 58 -136 54 -15 -5 -19 -1
-19 16 0 18 -2 19 -15 9 -12 -10 -15 -10 -15 0 0 10 -3 10 -15 0 -13 -11 -15
-8 -15 14 0 14 -4 26 -10 26 -5 0 -7 -7 -4 -15 7 -18 4 -18 -29 -6 -20 8 -26
21 -36 73 -19 92 -21 98 -37 98 -16 0 -19 27 -3 32 7 2 2 21 -12 52 l-24 48
35 30 c71 62 96 86 128 121 18 20 32 39 32 42 -1 29 2 34 15 29 13 -5 13 -1 0
36 -18 50 -19 80 -4 80 5 0 7 5 4 10 -3 6 1 10 11 10 13 0 14 3 5 14 -9 11 -9
16 -1 21 16 10 7 75 -14 107 -17 26 -91 81 -111 83 -11 1 -65 26 -80 37 -49
37 -99 82 -122 108 -27 32 -94 80 -113 80 -21 0 -9 -39 24 -79 l34 -41 -14
-47 c-8 -25 -16 -48 -18 -50 -2 -3 -30 3 -63 12 -32 9 -89 20 -128 23 -38 4
-77 11 -84 16 -21 13 -113 17 -127 5 -15 -12 -112 -1 -121 14 -3 6 -9 28 -13
48 -6 31 -3 42 12 56 25 22 99 25 115 4 19 -26 27 -4 9 24 -9 14 -26 25 -37
25 -11 0 -18 4 -15 9 6 9 -17 22 -37 20 -7 0 -23 -6 -37 -12z m-60 -318 c0
-12 -7 -19 -19 -19 -11 0 -23 -4 -26 -10 -3 -5 -11 -10 -17 -10 -6 0 -4 8 5
18 10 10 17 25 17 34 0 8 3 18 7 21 10 11 33 -13 33 -34z m672 -57 c0 -15 2
-34 3 -42 2 -28 -17 -59 -45 -70 -22 -9 -45 -7 -116 10 -49 12 -92 24 -97 27
-16 10 7 21 55 27 69 9 75 13 91 59 8 25 23 47 38 54 21 12 26 10 47 -13 12
-14 23 -37 24 -52z m-668 4 c3 -13 9 -31 12 -40 8 -22 -7 -20 -38 5 -24 20
-25 22 -10 40 22 25 29 24 36 -5z m394 -203 c-10 -2 -26 -2 -35 0 -10 3 -2 5
17 5 19 0 27 -2 18 -5z m-313 -23 c8 -13 -25 -13 -45 0 -12 8 -9 10 12 10 15
0 30 -4 33 -10z m531 -31 c19 -12 34 -29 34 -39 0 -26 -38 -60 -67 -60 l-23 0
20 40 c11 22 16 40 11 40 -5 0 -13 -4 -16 -10 -7 -12 -131 -12 -160 0 -18 7
-17 8 10 15 17 5 39 14 50 21 30 21 102 17 141 -7z m-1296 -223 c0 -3 -4 -8
-10 -11 -5 -3 -10 -1 -10 4 0 6 5 11 10 11 6 0 10 -2 10 -4z m-6 -175 c-7 -26
-8 -25 -14 9 -3 19 -1 44 4 55 10 19 11 18 14 -9 2 -15 0 -40 -4 -55z m-55 4
c-23 -38 -29 -43 -29 -20 0 14 34 55 45 55 2 0 -5 -16 -16 -35z m31 -19 c0 -3
-4 -8 -10 -11 -5 -3 -10 -1 -10 4 0 6 5 11 10 11 6 0 10 -2 10 -4z m-3 -58
c-8 -18 -22 -49 -33 -69 -18 -33 -21 -34 -43 -23 l-23 12 31 7 c30 6 36 17 33
60 -2 17 7 26 46 44 1 0 -4 -14 -11 -31z m-70 -53 c-3 -6 -19 -15 -36 -18 -43
-9 -39 -25 7 -29 32 -3 37 -7 40 -30 3 -23 0 -26 -20 -20 -21 5 -20 3 10 -32
38 -44 37 -60 -4 -64 -45 -4 -69 19 -69 67 0 39 -10 51 -30 32 -15 -13 -105
-41 -132 -41 -19 0 -23 4 -18 19 5 15 1 18 -22 14 -23 -3 -25 -2 -11 7 9 6 37
11 62 12 26 1 40 6 33 10 -9 6 -9 8 1 8 6 0 12 10 12 23 0 26 86 87 124 87 13
0 30 8 37 17 13 15 14 13 17 -16 2 -18 1 -39 -1 -46z m1641 7 c3 -16 -1 -20
-12 -16 -19 7 -22 48 -3 42 6 -3 13 -14 15 -26z m-1893 3 c33 -6 37 -8 21 -17
-10 -5 -33 -7 -51 -4 -22 4 -56 0 -97 -13 -35 -11 -83 -25 -107 -31 -31 -8
-56 -24 -81 -51 -19 -21 -41 -39 -48 -39 -25 0 -7 44 27 67 43 29 34 29 -23 1
-41 -19 -44 -24 -39 -50 6 -32 -10 -37 -42 -14 -17 12 -18 17 -7 38 32 58 150
101 267 96 48 -2 65 1 79 15 10 10 27 15 39 13 12 -3 40 -8 62 -11z m522 -31
c2 -7 -8 -14 -21 -18 -29 -7 -61 -49 -51 -66 3 -5 16 -10 28 -11 20 -1 20 -2
-3 -8 -14 -5 -29 -5 -35 -2 -5 3 -17 4 -25 3 -14 -2 -50 48 -50 70 0 6 9 8 19
5 12 -3 34 5 53 19 34 24 78 28 85 8z m8 -34 c4 -6 -6 -10 -22 -10 -22 0 -25
2 -13 10 19 12 27 12 35 0z m1540 0 c3 -5 -1 -10 -9 -10 -9 0 -16 5 -16 10 0
6 4 10 9 10 6 0 13 -4 16 -10z m-2245 -10 c-20 -13 -43 -13 -35 0 3 6 16 10
28 10 18 0 19 -2 7 -10z m721 -20 c33 -18 21 -25 -36 -22 -52 4 -64 10 -48 25
10 11 62 8 84 -3z m1353 -5 c3 -8 14 -15 25 -15 10 0 26 -11 35 -25 9 -14 14
-25 11 -25 -2 0 0 -11 5 -24 5 -13 6 -27 3 -30 -9 -8 -34 44 -27 55 7 12 -14
39 -30 39 -12 0 -11 -58 1 -90 3 -8 5 -23 4 -32 -1 -10 2 -18 6 -18 5 0 7 -17
5 -37 l-5 -37 -14 28 c-15 29 -21 30 -90 10 -19 -5 -23 -2 -23 14 0 12 4 23 9
27 5 3 13 36 16 73 4 37 12 75 17 85 11 21 44 23 52 2z m-1764 -50 c0 -16 -34
-38 -43 -28 -10 9 12 43 28 43 8 0 15 -7 15 -15z m2015 -5 c26 -11 58 -20 71
-20 13 0 32 -4 42 -9 9 -5 36 -15 59 -22 43 -12 83 -41 83 -59 0 -16 -46 -11
-61 6 -12 14 -14 14 -21 -5 -10 -27 -22 -27 -36 2 -11 22 -11 22 -11 -4 -1
-29 -24 -54 -40 -44 -11 6 -4 64 10 80 27 29 -24 41 -67 15 -37 -23 -44 -24
-44 -7 0 7 12 20 28 30 l27 18 -40 -7 c-22 -3 -46 -13 -52 -22 -12 -14 -14
-14 -28 4 -24 31 -18 43 32 63 1 1 22 -8 48 -19z m-2535 -50 c-14 -10 -36 -25
-50 -32 -30 -15 -110 -77 -127 -98 -11 -14 -14 -12 -12 7 0 3 -13 12 -30 19
-40 17 -39 28 2 45 17 7 43 23 55 35 15 14 42 25 70 29 26 4 54 8 62 9 8 2 24
4 35 5 18 0 18 -1 -5 -19z m2410 -21 c0 -5 -4 -9 -10 -9 -5 0 -10 7 -10 16 0
8 5 12 10 9 6 -3 10 -10 10 -16z m200 3 c0 -14 -23 -32 -42 -32 -21 0 -23 11
-6 28 13 13 48 16 48 4z m-220 -31 c0 -22 -16 -36 -24 -22 -8 12 3 41 15 41 5
0 9 -9 9 -19z m70 -76 c0 -13 -4 -27 -10 -30 -11 -7 -65 19 -75 36 -11 16 1
22 24 10 24 -13 37 2 16 19 -8 7 -15 22 -15 34 1 19 3 18 30 -12 17 -18 30
-43 30 -57z m59 76 c9 -6 11 -18 7 -35 -6 -26 -26 -36 -26 -13 0 6 -3 22 -6
35 -7 23 2 28 25 13z m-1532 -28 c-9 -9 -20 -13 -24 -9 -4 4 1 14 11 22 25 18
35 8 13 -13z m-77 -7 c0 -13 -29 -31 -37 -22 -4 4 25 36 33 36 2 0 4 -6 4 -14z
m1260 1 c0 -7 -9 -18 -21 -25 -12 -8 -19 -10 -17 -5 3 4 8 16 11 26 7 20 27
23 27 4z m591 -27 c11 -38 10 -110 -1 -110 -5 0 -7 -7 -4 -15 4 -10 0 -15 -10
-15 -9 0 -19 6 -22 13 -6 18 -77 13 -126 -7 -65 -28 -75 -18 -32 33 14 17 54
45 90 61 47 23 64 36 64 51 0 29 32 20 41 -11z m-1676 10 c3 -5 1 -10 -4 -10
-6 0 -11 5 -11 10 0 6 2 10 4 10 3 0 8 -4 11 -10z m21 -57 c-1 -14 7 -18 33
-18 19 0 36 -6 38 -12 6 -18 101 -64 108 -52 12 18 35 9 35 -15 0 -39 -48 -41
-116 -6 -31 17 -66 30 -78 30 -15 0 -17 -3 -8 -9 10 -6 9 -11 -4 -22 -14 -12
-19 -10 -35 10 -21 25 -25 51 -9 51 14 0 13 33 -2 48 -9 9 -6 12 14 12 18 0
25 -5 24 -17z m-836 -50 c0 -21 -29 -53 -47 -53 -22 0 -27 29 -8 50 22 24 55
26 55 3z m2099 -17 c0 -7 -2 -6 -6 2 -7 18 -20 15 -26 -8 -3 -13 -13 -20 -29
-19 -17 1 -18 3 -5 6 9 2 17 13 17 23 0 10 6 20 13 23 15 5 37 -11 36 -27z
m50 2 c-1 -7 1 -21 5 -30 13 -28 2 -62 -24 -76 l-25 -13 27 4 c20 3 25 0 21
-12 -3 -10 4 -7 16 8 20 22 21 22 21 3 0 -33 -49 -65 -90 -59 -30 5 -32 4 -17
-6 53 -34 54 -36 16 -37 -44 0 -94 44 -69 60 8 5 22 10 30 10 9 1 6 5 -7 10
-32 13 -29 21 6 14 20 -4 30 -2 34 10 4 9 13 16 20 16 17 0 29 52 21 86 -4 15
-2 24 5 24 7 0 11 -6 10 -12z m-2795 -36 c-7 -23 -19 -29 -29 -12 -8 12 17 52
27 42 4 -4 5 -17 2 -30z m1901 28 c3 -5 -1 -10 -9 -10 -9 0 -16 5 -16 10 0 6
4 10 9 10 6 0 13 -4 16 -10z m-1845 -30 c-14 -10 -27 -17 -29 -14 -6 5 31 33
44 33 6 1 -1 -8 -15 -19z m1810 0 c0 -5 -2 -10 -4 -10 -3 0 -8 5 -11 10 -3 6
-1 10 4 10 6 0 11 -4 11 -10z m813 -6 c11 -12 -13 -44 -33 -44 -27 0 -34 17
-9 23 12 3 18 10 14 16 -7 12 17 15 28 5z m-2619 -29 c-4 -8 -13 -15 -22 -15
-13 0 -12 3 4 15 24 18 25 18 18 0z m2796 -13 c0 -15 -2 -15 -10 -2 -13 20
-13 33 0 25 6 -3 10 -14 10 -23z m-1095 8 c3 -5 2 -10 -4 -10 -5 0 -13 5 -16
10 -3 6 -2 10 4 10 5 0 13 -4 16 -10z m815 -15 c0 -17 -38 -35 -73 -35 -19 0
-18 2 8 16 17 8 34 19 40 25 14 14 25 11 25 -6z m-2490 -20 c-7 -9 -15 -13
-19 -10 -3 3 1 10 9 15 21 14 24 12 10 -5z m1603 8 c-7 -2 -19 -2 -25 0 -7 3
-2 5 12 5 14 0 19 -2 13 -5z m177 -28 c10 -12 8 -16 -11 -24 -29 -11 -39 -6
-39 20 0 23 32 26 50 4z m-1834 -30 c-7 -29 -26 -34 -26 -7 0 18 20 45 28 37
2 -2 2 -16 -2 -30z m1639 15 c3 -5 2 -10 -4 -10 -5 0 -13 5 -16 10 -3 6 -2 10
4 10 5 0 13 -4 16 -10z m871 -5 c-35 -26 -121 -34 -114 -10 2 6 26 10 55 10
29 1 55 4 59 8 4 4 10 7 13 7 3 0 -3 -7 -13 -15z m305 -28 c-16 -16 -26 0 -10
19 9 11 15 12 17 4 2 -6 -1 -17 -7 -23z m-1428 -32 c-7 -21 -12 -19 -10 4 0
11 5 18 9 15 4 -3 5 -11 1 -19z m1031 9 c24 -9 9 -24 -25 -24 -19 0 -29 5 -29
15 0 15 26 20 54 9z m-117 -120 c17 -18 19 -25 8 -20 -9 3 -23 6 -31 6 -9 0
-12 5 -9 10 3 6 -3 10 -14 10 -12 0 -21 -4 -21 -10 0 -5 -6 -10 -14 -10 -7 0
-16 -9 -19 -20 -6 -24 -35 -26 -44 -3 -10 25 40 63 84 63 26 0 43 -7 60 -26z
m-2288 -151 c8 8 11 3 11 -20 0 -34 -19 -57 -21 -26 -2 36 -17 -32 -18 -82 -2
-68 -21 -39 -21 33 0 28 -4 52 -9 52 -5 0 -20 15 -33 33 l-22 32 37 -28 c36
-27 46 -27 28 3 -16 24 1 35 19 12 13 -15 20 -18 29 -9z m51 -14 c0 -5 -4 -9
-10 -9 -5 0 -10 7 -10 16 0 8 5 12 10 9 6 -3 10 -10 10 -16z m-165 -79 c13 -6
15 -9 5 -9 -8 0 -22 4 -30 9 -18 12 -2 12 25 0z m31 -45 c25 -19 4 -19 -32 0
-24 12 -26 15 -8 15 11 0 29 -7 40 -15z m292 -34 c-3 -16 -34 -38 -42 -30 -3
3 -3 14 0 25 6 23 46 28 42 5z m-308 -26 c11 -13 8 -15 -14 -15 -25 0 -33 10
-19 23 10 11 19 8 33 -8z m126 -76 c8 -6 14 -22 14 -36 l0 -24 -26 20 c-15 12
-37 21 -50 21 -26 0 -39 14 -28 31 8 13 69 5 90 -12z m-148 -85 c2 -16 -4 -38
-12 -49 -14 -19 -15 -16 -16 33 0 39 4 53 13 50 6 -3 13 -18 15 -34z m127 17
c-15 -15 -65 -25 -65 -13 0 13 17 20 50 21 15 1 20 -3 15 -8z m-24 -69 c-7 -2
-18 1 -23 6 -8 8 -4 9 13 5 13 -4 18 -8 10 -11z m52 -39 c4 -2 7 -8 7 -14 0
-16 -27 -10 -51 11 l-24 20 30 -6 c17 -4 33 -9 38 -11z m31 -38 c-25 -19 -40
-19 -24 0 7 8 20 15 28 15 13 0 12 -3 -4 -15z m-3 -46 c-13 -14 -21 -18 -21
-9 0 13 32 42 38 35 2 -2 -5 -14 -17 -26z m-344 -155 c-3 -3 -12 -4 -19 -1 -8
3 -5 6 6 6 11 1 17 -2 13 -5z m4 -101 c-8 -15 -10 -15 -11 -2 0 17 10 32 18
25 2 -3 -1 -13 -7 -23z"/>
<path d="M2740 3276 c0 -2 7 -7 16 -10 8 -3 12 -2 9 4 -6 10 -25 14 -25 6z"/>
<path d="M3450 2910 c0 -5 5 -10 11 -10 5 0 7 5 4 10 -3 6 -8 10 -11 10 -2 0
-4 -4 -4 -10z"/>
<path d="M2572 4785 c-6 -13 -8 -27 -3 -29 4 -3 13 6 19 19 6 13 8 27 3 29 -4
3 -13 -6 -19 -19z"/>
<path d="M1769 3454 c-2 -26 -5 -64 -4 -64 0 0 8 8 16 18 14 16 14 22 3 37 -8
10 -14 15 -15 9z"/>
<path d="M4517 3333 c-4 -3 -7 -13 -7 -22 1 -13 3 -13 11 2 11 19 8 33 -4 20z"/>
<path d="M4688 3253 c-7 -9 -13 -35 -13 -59 0 -35 6 -49 33 -76 17 -19 32 -42
32 -51 0 -9 5 -16 12 -14 8 1 15 -15 19 -43 3 -25 11 -58 17 -73 7 -16 12 -43
12 -61 0 -31 2 -33 39 -34 22 -1 42 2 45 7 9 14 -15 71 -30 71 -10 0 -14 13
-14 43 0 38 -19 82 -42 98 -12 8 -48 110 -48 137 0 50 -38 84 -62 55z"/>
<path d="M4470 3249 c0 -5 5 -7 10 -4 6 3 10 8 10 11 0 2 -4 4 -10 4 -5 0 -10
-5 -10 -11z"/>
<path d="M3155 3210 c4 -6 11 -8 16 -5 14 9 11 15 -7 15 -8 0 -12 -5 -9 -10z"/>
<path d="M3193 3203 c-15 -5 -17 -23 -4 -23 5 0 11 7 15 15 3 8 4 15 3 14 -1
0 -8 -3 -14 -6z"/>
<path d="M3230 3170 c0 -5 7 -10 15 -10 8 0 15 5 15 10 0 6 -7 10 -15 10 -8 0
-15 -4 -15 -10z"/>
<path d="M3200 3120 c0 -5 5 -10 10 -10 6 0 10 5 10 10 0 6 -4 10 -10 10 -5 0
-10 -4 -10 -10z"/>
<path d="M2206 3085 c4 -8 8 -15 10 -15 2 0 4 7 4 15 0 8 -4 15 -10 15 -5 0
-7 -7 -4 -15z"/>
<path d="M4596 3074 c-12 -30 -6 -74 15 -119 12 -25 19 -48 16 -51 -3 -3 -22
4 -43 15 -46 25 -84 27 -124 6 -25 -13 -60 -60 -60 -80 0 -3 23 -5 50 -5 28 0
50 5 50 10 0 6 7 10 15 10 8 0 12 6 9 14 -3 9 3 17 16 21 26 8 74 -21 66 -41
-4 -11 6 -14 49 -14 29 0 57 5 60 10 5 8 11 7 21 -1 11 -9 14 -7 14 10 0 13
-6 21 -17 21 -13 0 -14 3 -5 12 17 17 15 31 -3 24 -17 -6 -21 19 -5 29 7 4 7
11 2 18 -5 7 -12 29 -16 50 -4 21 -16 47 -27 58 -23 23 -74 25 -83 3z m42 -39
c7 -14 12 -32 12 -38 0 -7 9 -29 19 -50 10 -20 15 -37 11 -37 -18 0 -60 55
-60 79 0 14 -3 36 -6 49 -9 30 10 28 24 -3z"/>
<path d="M2302 3010 c0 -14 2 -19 5 -12 2 6 2 18 0 25 -3 6 -5 1 -5 -13z"/>
<path d="M2345 2987 c10 -15 20 -25 23 -22 3 3 -5 16 -17 28 l-23 22 17 -28z"/>
<path d="M2406 2945 c9 -14 21 -25 27 -25 6 0 0 11 -13 25 -13 14 -25 25 -27
25 -2 0 4 -11 13 -25z"/>
<path d="M2362 2920 c0 -19 2 -27 5 -17 2 9 2 25 0 35 -3 9 -5 1 -5 -18z"/>
<path d="M3335 2888 c-15 -22 -14 -23 7 -29 29 -7 34 -3 19 15 -7 8 -10 20 -6
26 12 20 -4 10 -20 -12z"/>
<path d="M4225 2860 c-3 -5 -2 -10 4 -10 5 0 13 5 16 10 3 6 2 10 -4 10 -5 0
-13 -4 -16 -10z"/>
<path d="M4557 2849 c7 -7 15 -10 18 -7 3 3 -2 9 -12 12 -14 6 -15 5 -6 -5z"/>
<path d="M1525 2777 c-50 -20 -74 -36 -86 -60 -10 -20 -8 -19 17 5 16 15 46
34 67 43 20 8 37 17 37 20 0 3 -1 5 -2 4 -2 0 -16 -6 -33 -12z"/>
<path d="M1410 2670 c-6 -11 -8 -20 -6 -20 3 0 10 9 16 20 6 11 8 20 6 20 -3
0 -10 -9 -16 -20z"/>
<path d="M5658 2248 c-31 -16 -40 -17 -58 -6 -17 11 -22 11 -30 -2 -5 -8 -10
-25 -10 -37 0 -24 -38 -52 -49 -36 -3 6 -18 13 -32 16 -14 4 -37 17 -51 31
-25 22 -27 22 -31 4 -3 -10 -1 -33 4 -51 16 -57 10 -129 -16 -184 l-24 -53 29
0 c17 0 30 -4 30 -8 0 -14 -35 -42 -53 -42 -24 0 -22 -37 4 -85 21 -38 22 -50
16 -205 -2 -91 -3 -171 0 -177 3 -8 13 -3 28 15 13 15 75 56 138 90 113 61
117 63 184 60 l68 -3 12 48 c6 27 29 69 53 99 39 50 42 76 6 62 -12 -5 -16
-13 -12 -30 5 -17 1 -24 -16 -29 -22 -7 -129 -51 -194 -80 -32 -15 -69 -11
-94 10 -8 7 -30 20 -48 29 -31 16 -32 17 -18 44 8 16 63 71 121 123 143 126
146 128 175 134 25 4 80 60 80 80 -1 5 -8 1 -18 -10 -9 -11 -59 -41 -110 -67
-79 -40 -97 -45 -123 -38 -36 11 -119 76 -119 94 0 7 41 51 90 97 85 78 131
131 113 128 -5 -1 -25 -10 -45 -21z"/>
<path d="M1376 2049 c-33 -10 -63 -16 -67 -14 -4 3 -12 -2 -19 -10 -7 -8 -25
-15 -41 -15 -19 0 -29 -5 -29 -14 0 -26 19 -28 116 -11 139 25 209 18 325 -35
180 -81 259 -122 290 -151 50 -47 107 -27 63 22 -15 16 -14 19 15 34 37 19 39
32 7 45 -39 14 -66 42 -66 67 0 23 -23 32 -35 13 -9 -14 -31 -12 -47 3 -7 8
-23 19 -34 25 -18 10 -23 8 -32 -13 -16 -35 -49 -33 -217 13 -39 10 -79 23
-90 29 -53 27 -80 29 -139 12z"/>
<path d="M1395 1801 c-22 -4 -93 -6 -157 -5 -67 1 -116 -2 -112 -7 3 -5 -1 -7
-8 -4 -22 8 -36 -9 -31 -37 12 -62 205 -94 408 -68 94 11 104 11 209 -13 61
-14 140 -31 176 -37 36 -6 77 -17 91 -24 31 -16 52 -7 43 17 -3 10 -1 24 6 33
11 12 8 20 -19 48 -29 30 -35 32 -92 30 -33 -2 -66 -7 -72 -13 -17 -13 -183
-3 -235 15 -54 18 -119 51 -127 64 -7 11 -19 11 -80 1z"/>
<path d="M5626 1429 c-3 -8 -6 -23 -8 -34 -3 -17 -11 -20 -48 -20 -45 0 -96 8
-136 20 -19 6 -24 0 -37 -40 -13 -37 -14 -57 -6 -98 5 -29 9 -115 9 -192 -1
-77 -1 -146 0 -153 2 -53 370 264 370 319 0 8 18 41 40 73 22 33 39 64 37 70
-2 6 -19 12 -38 14 -19 2 -43 12 -55 23 -27 25 -121 38 -128 18z"/>
<path d="M1460 593 c-36 -97 -69 -224 -78 -301 -9 -75 -1 -98 22 -66 13 17 14
16 21 -7 21 -71 52 -106 89 -100 5 1 6 -5 3 -13 -3 -8 6 -27 20 -42 21 -23 23
-31 14 -46 -11 -18 -4 -19 179 -18 l190 2 6 24 c7 29 -3 45 -16 24 -14 -23
-22 -5 -9 23 10 23 14 24 38 14 33 -15 41 -26 41 -59 l0 -28 165 0 c140 0 165
2 165 15 0 8 -4 15 -10 15 -5 0 -10 14 -10 30 0 36 24 41 35 8 8 -27 8 -28 0
-51 -7 -16 27 -17 627 -17 l635 0 12 39 c11 39 12 40 59 38 26 -1 70 1 98 3
48 5 51 7 47 29 -2 13 -9 34 -16 45 -6 12 -11 24 -12 29 0 4 -3 7 -7 7 -4 1
-23 7 -43 15 -19 9 -61 15 -94 14 -32 -1 -63 1 -67 4 -9 5 -706 22 -899 22
-96 0 -150 -10 -140 -25 10 -16 -11 -12 -54 11 -36 19 -56 20 -208 19 -272 -2
-641 5 -649 13 -4 4 -33 7 -65 7 -37 0 -59 4 -62 13 -2 7 -1 64 4 127 11 156
11 240 0 240 -5 0 -19 -26 -31 -57z m140 -423 c0 -5 -4 -10 -10 -10 -5 0 -10
5 -10 10 0 6 5 10 10 10 6 0 10 -4 10 -10z m635 -50 c3 -5 -1 -10 -9 -10 -9 0
-16 5 -16 10 0 6 4 10 9 10 6 0 13 -4 16 -10z m-357 -38 c2 -7 -2 -10 -12 -6
-9 3 -16 11 -16 16 0 13 23 5 28 -10z m372 8 c0 -5 -2 -10 -4 -10 -3 0 -8 5
-11 10 -3 6 -1 10 4 10 6 0 11 -4 11 -10z m20 -41 c0 -5 -4 -9 -10 -9 -5 0
-10 7 -10 16 0 8 5 12 10 9 6 -3 10 -10 10 -16z"/>
<path d="M760 217 c-14 -6 -26 -11 -26 -11 -1 -1 -5 -12 -9 -25 l-8 -25 32 27
c18 15 37 27 42 27 5 0 9 5 9 10 0 12 -8 12 -40 -3z"/>
<path d="M4550 210 c0 -18 65 -44 110 -43 59 0 153 20 176 38 17 13 1 14 -133
15 -93 0 -153 -4 -153 -10z"/>
<path d="M3907 203 c-12 -19 23 -46 58 -45 l36 1 -29 -42 c-16 -23 -31 -51
-34 -62 -3 -11 -9 -28 -13 -37 -7 -17 2 -18 100 -18 102 0 106 1 101 20 -3 11
-8 28 -11 39 -3 10 -21 33 -41 51 -38 34 -40 50 -4 28 18 -11 23 -10 36 7 8
11 13 29 12 40 -3 18 -12 20 -105 23 -56 1 -104 -1 -106 -5z m144 -186 c-12
-12 -31 0 -31 19 0 12 3 12 20 2 11 -7 16 -16 11 -21z"/>
<path d="M4360 195 c0 -8 5 -15 10 -15 6 0 10 7 10 15 0 8 -4 15 -10 15 -5 0
-10 -7 -10 -15z"/>
<path d="M1377 111 c-3 -14 -3 -44 0 -68 4 -33 10 -43 24 -43 25 0 25 41 1 95
-17 38 -19 39 -25 16z"/>
<path d="M0 100 c0 -13 7 -20 20 -20 23 0 26 10 8 28 -18 18 -28 15 -28 -8z"/>
<path d="M0 25 c0 -14 5 -25 10 -25 6 0 10 6 10 13 0 8 4 7 10 -3 8 -12 10
-11 10 6 0 12 -7 25 -16 28 -23 9 -24 8 -24 -19z"/>
<path d="M147 43 c-10 -9 -9 -43 1 -43 15 0 30 22 25 36 -6 15 -16 18 -26 7z"/>
<path d="M440 26 c0 -16 5 -26 15 -26 8 0 15 6 15 14 0 7 -7 19 -15 26 -13 11
-15 8 -15 -14z"/>
</g>
</svg>
