<?xml version="1.0" standalone="no"?>
<!DOCTYPE svg PUBLIC "-//W3C//DTD SVG 20010904//EN"
 "http://www.w3.org/TR/2001/REC-SVG-20010904/DTD/svg10.dtd">
<svg version="1.0" xmlns="http://www.w3.org/2000/svg"
 width="1366.000000pt" height="768.000000pt" viewBox="0 0 1366.000000 768.000000"
 preserveAspectRatio="xMidYMid meet">
<metadata>
Created by potrace 1.16, written by Peter Selinger 2001-2019
</metadata>
<g transform="translate(0.000000,768.000000) scale(0.100000,-0.100000)"
fill="#000000" stroke="none">
<path d="M11610 7622 c-32 -26 -21 -69 18 -77 15 -3 40 -13 56 -21 16 -8 31
-12 34 -10 7 8 -19 37 -28 31 -4 -3 -6 10 -3 29 3 27 0 37 -19 50 -28 20 -31
20 -58 -2z m55 -8 c19 -20 16 -43 -7 -58 -21 -13 -51 2 -56 26 -3 16 23 48 38
48 5 0 16 -7 25 -16z"/>
<path d="M11868 7613 c7 -3 16 -2 19 1 4 3 -2 6 -13 5 -11 0 -14 -3 -6 -6z"/>
<path d="M12266 7611 c-4 -5 3 -7 14 -4 23 6 26 13 6 13 -8 0 -17 -4 -20 -9z"/>
<path d="M12508 7613 c7 -3 16 -2 19 1 4 3 -2 6 -13 5 -11 0 -14 -3 -6 -6z"/>
<path d="M51 7563 c1 -27 4 -38 6 -26 2 12 12 24 21 26 15 4 15 5 0 6 -10 0
-18 7 -18 15 0 8 8 17 18 19 13 4 11 5 -5 6 -21 1 -23 -3 -22 -46z"/>
<path d="M143 7565 c0 -27 2 -38 4 -22 2 15 2 37 0 50 -2 12 -4 0 -4 -28z"/>
<path d="M320 7565 c0 -40 2 -45 23 -44 16 1 18 2 5 6 -10 2 -18 11 -18 18 0
7 8 16 18 18 16 4 16 5 0 6 -10 0 -18 7 -18 15 0 8 8 17 18 19 13 4 11 5 -5 6
-21 1 -23 -4 -23 -44z"/>
<path d="M420 7596 c0 -7 -9 -16 -21 -19 -29 -8 -22 -51 9 -55 20 -3 22 1 22
42 0 25 -2 46 -5 46 -3 0 -5 -6 -5 -14z m0 -46 c0 -11 -7 -20 -15 -20 -8 0
-15 9 -15 20 0 11 7 20 15 20 8 0 15 -9 15 -20z"/>
<path d="M607 7589 c4 -13 8 -18 11 -10 2 7 -1 18 -6 23 -8 8 -9 4 -5 -13z"/>
<path d="M650 7584 c-6 -14 -10 -31 -10 -37 0 -7 -4 -6 -10 3 -5 8 -10 11 -10
5 0 -5 4 -16 9 -24 6 -9 13 0 24 33 16 48 14 65 -3 20z"/>
<path d="M941 7563 l2 -48 7 40 c4 22 8 36 9 30 0 -5 12 -23 26 -40 l24 -30
-1 50 c-1 50 -1 50 -7 11 l-6 -40 -20 37 c-11 20 -23 37 -27 37 -5 0 -7 -21
-7 -47z"/>
<path d="M1493 7594 c-4 -11 2 -23 18 -35 l24 -18 -25 -10 c-23 -9 -23 -10 -4
-10 30 -1 38 26 14 41 -25 16 -26 35 -2 41 16 4 16 5 -1 6 -10 0 -20 -6 -24
-15z"/>
<path d="M1941 7563 c1 -27 4 -38 6 -25 3 15 10 22 18 18 15 -5 30 27 20 44
-3 5 -15 10 -26 10 -16 0 -19 -7 -18 -47z m39 22 c0 -8 -7 -15 -15 -15 -8 0
-15 7 -15 15 0 8 7 15 15 15 8 0 15 -7 15 -15z"/>
<path d="M2072 7593 c-5 -10 -5 -31 -1 -48 l7 -30 2 30 c1 17 2 34 1 39 -1 5
4 13 11 17 9 6 10 9 1 9 -7 0 -16 -8 -21 -17z"/>
<path d="M2471 7563 c1 -27 4 -38 6 -25 3 15 10 22 18 18 15 -5 30 27 20 44
-3 5 -15 10 -26 10 -16 0 -19 -7 -18 -47z m39 22 c0 -8 -7 -15 -15 -15 -8 0
-15 7 -15 15 0 8 7 15 15 15 8 0 15 -7 15 -15z"/>
<path d="M2760 7565 c0 -37 3 -45 18 -45 10 0 23 5 30 12 17 17 15 65 -4 72
-36 14 -44 7 -44 -39z m45 0 c0 -20 -6 -31 -17 -33 -15 -3 -18 4 -18 33 0 29
3 36 18 33 11 -2 17 -13 17 -33z"/>
<path d="M2901 7567 c-1 -45 1 -48 22 -45 16 2 22 10 22 28 0 16 -6 25 -15 25
-8 0 -18 9 -22 20 -4 12 -6 2 -7 -28z m39 -17 c0 -11 -7 -20 -15 -20 -15 0
-21 21 -8 33 12 13 23 7 23 -13z"/>
<path d="M3191 7563 c1 -26 3 -41 6 -32 2 10 13 19 24 22 29 8 22 51 -8 55
-21 3 -23 0 -22 -45z m39 17 c0 -11 -7 -20 -15 -20 -8 0 -15 9 -15 20 0 11 7
20 15 20 8 0 15 -9 15 -20z"/>
<path d="M3372 7593 c-5 -10 -5 -31 -1 -48 l7 -30 2 30 c1 17 2 34 1 39 -1 5
4 13 11 17 9 6 10 9 1 9 -7 0 -16 -8 -21 -17z"/>
<path d="M3443 7565 c0 -27 2 -38 4 -22 2 15 2 37 0 50 -2 12 -4 0 -4 -28z"/>
<path d="M3623 7603 c12 -3 17 -16 19 -46 l1 -42 4 40 c3 22 10 43 16 47 7 4
-4 7 -23 7 -19 -1 -27 -3 -17 -6z"/>
<path d="M3993 7603 c12 -3 17 -16 19 -46 l1 -42 4 40 c3 22 10 43 16 47 7 4
-4 7 -23 7 -19 -1 -27 -3 -17 -6z"/>
<path d="M4193 7565 c0 -27 2 -38 4 -22 2 15 2 37 0 50 -2 12 -4 0 -4 -28z"/>
<path d="M4362 7573 c13 -51 24 -60 32 -28 4 15 5 30 1 33 -3 3 -5 -2 -5 -12
0 -9 -4 -14 -10 -11 -5 3 -10 15 -10 25 0 10 -4 21 -9 25 -6 3 -5 -11 1 -32z"/>
<path d="M4401 7605 c1 -19 18 -51 18 -35 0 8 -4 22 -9 30 -5 8 -9 11 -9 5z"/>
<path d="M4610 7596 c0 -7 -9 -16 -21 -19 -29 -8 -22 -51 9 -55 20 -3 22 1 22
42 0 25 -2 46 -5 46 -3 0 -5 -6 -5 -14z m0 -46 c0 -11 -7 -20 -15 -20 -8 0
-15 9 -15 20 0 11 7 20 15 20 8 0 15 -9 15 -20z"/>
<path d="M4893 7565 c0 -27 2 -40 4 -27 3 15 11 22 28 22 17 0 25 -7 28 -22 2
-13 4 0 4 27 0 28 -2 40 -4 28 -3 -16 -11 -23 -28 -23 -17 0 -25 7 -28 23 -2
12 -4 0 -4 -28z"/>
<path d="M5043 7565 c0 -27 2 -38 4 -22 2 15 2 37 0 50 -2 12 -4 0 -4 -28z"/>
<path d="M478 7588 c-9 -25 5 -68 21 -67 10 0 11 2 4 6 -15 5 -17 40 -4 45 5
2 3 8 -4 15 -10 9 -15 9 -17 1z"/>
<path d="M1308 7588 c-9 -25 5 -68 21 -67 10 0 11 2 4 6 -15 5 -17 40 -4 45 5
2 3 8 -4 15 -10 9 -15 9 -17 1z"/>
<path d="M2228 7588 c-9 -25 5 -68 21 -67 10 0 11 2 4 6 -15 5 -17 40 -4 45 5
2 3 8 -4 15 -10 9 -15 9 -17 1z"/>
<path d="M11928 7593 c7 -3 16 -2 19 1 4 3 -2 6 -13 5 -11 0 -14 -3 -6 -6z"/>
<path d="M11988 7593 c7 -3 16 -2 19 1 4 3 -2 6 -13 5 -11 0 -14 -3 -6 -6z"/>
<path d="M12088 7593 c7 -3 16 -2 19 1 4 3 -2 6 -13 5 -11 0 -14 -3 -6 -6z"/>
<path d="M4441 7574 c0 -11 3 -14 6 -6 3 7 2 16 -1 19 -3 4 -6 -2 -5 -13z"/>
<path d="M11720 7586 c0 -2 6 -9 14 -15 10 -9 16 -8 26 4 11 13 8 15 -14 15
-14 0 -26 -2 -26 -4z"/>
<path d="M112 7550 c0 -19 2 -27 5 -17 2 9 2 25 0 35 -3 9 -5 1 -5 -18z"/>
<path d="M174 7565 c-10 -24 4 -45 28 -44 l23 2 -22 4 c-13 2 -23 8 -23 13 0
5 10 11 23 13 21 4 21 4 -3 6 -23 2 -24 3 -5 11 18 8 18 9 2 9 -10 1 -20 -6
-23 -14z"/>
<path d="M452 7550 c0 -19 2 -27 5 -17 2 9 2 25 0 35 -3 9 -5 1 -5 -18z"/>
<path d="M682 7550 c0 -19 2 -27 5 -17 2 9 2 25 0 35 -3 9 -5 1 -5 -18z"/>
<path d="M714 7565 c-10 -24 4 -45 28 -44 l23 2 -22 4 c-13 2 -23 8 -23 13 0
5 10 11 23 13 21 4 21 4 -3 6 -23 2 -24 3 -5 11 18 8 18 9 2 9 -10 1 -20 -6
-23 -14z"/>
<path d="M772 7549 l11 -32 12 23 13 23 7 -23 c6 -17 9 -20 16 -9 5 8 9 19 9
24 0 6 -4 4 -9 -4 -7 -11 -10 -8 -16 9 l-7 23 -14 -24 c-10 -18 -13 -20 -14
-7 0 9 -4 19 -10 23 -5 3 -4 -8 2 -26z"/>
<path d="M1044 7571 c18 -7 18 -8 3 -14 -24 -9 -21 -37 3 -37 16 0 20 7 20 30
0 25 -4 30 -22 29 -21 0 -21 -1 -4 -8z m16 -31 c0 -5 -4 -10 -10 -10 -5 0 -10
5 -10 10 0 6 5 10 10 10 6 0 10 -4 10 -10z"/>
<path d="M1086 7567 c3 -10 9 -15 12 -12 3 3 0 11 -7 18 -10 9 -11 8 -5 -6z"/>
<path d="M1125 7569 c-4 -6 -5 -12 -2 -15 2 -3 7 2 10 11 7 17 1 20 -8 4z"/>
<path d="M1152 7550 c0 -19 2 -27 5 -17 2 9 2 25 0 35 -3 9 -5 1 -5 -18z"/>
<path d="M1187 7573 c-15 -14 -6 -44 16 -52 l22 -9 -25 -11 -25 -11 25 3 c22
2 25 7 28 45 3 36 0 42 -16 42 -10 0 -22 -3 -25 -7z m33 -23 c0 -11 -7 -20
-15 -20 -8 0 -15 9 -15 20 0 11 7 20 15 20 8 0 15 -9 15 -20z"/>
<path d="M1264 7571 c18 -7 18 -8 3 -14 -24 -9 -21 -37 3 -37 16 0 20 7 20 30
0 25 -4 30 -22 29 -21 0 -21 -1 -4 -8z m16 -31 c0 -5 -4 -10 -10 -10 -5 0 -10
5 -10 10 0 6 5 10 10 10 6 0 10 -4 10 -10z"/>
<path d="M1354 7565 c-10 -24 4 -45 28 -44 l23 2 -22 4 c-13 2 -23 8 -23 13 0
5 10 11 23 13 21 4 21 4 -3 6 -23 2 -24 3 -5 11 18 8 18 9 2 9 -10 1 -20 -6
-23 -14z"/>
<path d="M1554 7566 c-9 -24 4 -48 23 -44 12 2 18 12 18 28 0 29 -32 41 -41
16z m36 -16 c0 -11 -7 -20 -15 -20 -8 0 -15 9 -15 20 0 11 7 20 15 20 8 0 15
-9 15 -20z"/>
<path d="M1624 7550 c1 -18 7 -26 24 -28 19 -3 22 1 21 30 -2 30 -2 31 -6 6
-5 -34 -30 -37 -36 -5 -3 19 -4 19 -3 -3z"/>
<path d="M1691 7548 c2 -28 2 -29 6 -8 3 14 10 28 17 32 7 5 5 8 -6 8 -14 0
-18 -8 -17 -32z"/>
<path d="M1734 7565 c-9 -23 3 -45 23 -44 17 1 17 2 1 6 -10 2 -18 13 -18 23
0 10 8 21 18 23 16 4 16 5 -1 6 -10 0 -20 -6 -23 -14z"/>
<path d="M1794 7565 c-10 -24 4 -45 28 -44 l23 2 -22 4 c-13 2 -23 8 -23 13 0
5 10 11 23 13 21 4 21 4 -3 6 -23 2 -24 3 -5 11 18 8 18 9 2 9 -10 1 -20 -6
-23 -14z"/>
<path d="M2014 7565 c-10 -24 4 -45 28 -44 l23 2 -22 4 c-13 2 -23 8 -23 13 0
5 10 11 23 13 21 4 21 4 -3 6 -23 2 -24 3 -5 11 18 8 18 9 2 9 -10 1 -20 -6
-23 -14z"/>
<path d="M2124 7571 c18 -7 18 -8 3 -14 -24 -9 -21 -37 3 -37 16 0 20 7 20 30
0 25 -4 30 -22 29 -21 0 -21 -1 -4 -8z m16 -31 c0 -5 -4 -10 -10 -10 -5 0 -10
5 -10 10 0 6 5 10 10 10 6 0 10 -4 10 -10z"/>
<path d="M2174 7565 c-9 -23 3 -45 23 -44 17 1 17 2 1 6 -10 2 -18 13 -18 23
0 10 8 21 18 23 16 4 16 5 -1 6 -10 0 -20 -6 -23 -14z"/>
<path d="M2274 7566 c-9 -24 4 -48 23 -44 12 2 18 12 18 28 0 29 -32 41 -41
16z m36 -16 c0 -11 -7 -20 -15 -20 -8 0 -15 9 -15 20 0 11 7 20 15 20 8 0 15
-9 15 -20z"/>
<path d="M2341 7548 c2 -28 2 -29 6 -8 3 14 10 28 17 32 7 5 5 8 -6 8 -14 0
-18 -8 -17 -32z"/>
<path d="M2544 7550 c1 -18 7 -26 24 -28 19 -3 22 1 21 30 -2 30 -2 31 -6 6
-5 -34 -30 -37 -36 -5 -3 19 -4 19 -3 -3z"/>
<path d="M2611 7546 c1 -28 2 -29 8 -7 9 34 29 37 34 6 4 -24 4 -24 3 2 -1 22
-6 28 -23 29 -19 1 -23 -4 -22 -30z"/>
<path d="M2844 7565 c-10 -24 4 -45 28 -44 l23 2 -22 4 c-13 2 -23 8 -23 13 0
5 10 11 23 13 21 4 21 4 -3 6 -23 2 -24 3 -5 11 18 8 18 9 2 9 -10 1 -20 -6
-23 -14z"/>
<path d="M2974 7550 c1 -18 7 -26 24 -28 19 -3 22 1 21 30 -2 30 -2 31 -6 6
-5 -34 -30 -37 -36 -5 -3 19 -4 19 -3 -3z"/>
<path d="M3047 7573 c-15 -14 -6 -44 16 -52 l22 -9 -25 -11 -25 -11 25 3 c22
2 25 7 28 45 3 36 0 42 -16 42 -10 0 -22 -3 -25 -7z m33 -23 c0 -11 -7 -20
-15 -20 -8 0 -15 9 -15 20 0 11 7 20 15 20 8 0 15 -9 15 -20z"/>
<path d="M3261 7548 c2 -28 2 -29 6 -8 3 14 10 28 17 32 7 5 5 8 -6 8 -14 0
-18 -8 -17 -32z"/>
<path d="M3304 7566 c-9 -24 4 -48 23 -44 12 2 18 12 18 28 0 29 -32 41 -41
16z m36 -16 c0 -11 -7 -20 -15 -20 -8 0 -15 9 -15 20 0 11 7 20 15 20 8 0 15
-9 15 -20z"/>
<path d="M3412 7550 c0 -19 2 -27 5 -17 2 9 2 25 0 35 -3 9 -5 1 -5 -18z"/>
<path d="M3474 7565 c-10 -24 4 -45 28 -44 l23 2 -22 4 c-13 2 -23 8 -23 13 0
5 10 11 23 13 21 4 21 4 -3 6 -23 2 -24 3 -5 11 18 8 18 9 2 9 -10 1 -20 -6
-23 -14z"/>
<path d="M3684 7565 c-10 -24 4 -45 28 -44 l23 2 -22 4 c-13 2 -23 8 -23 13 0
5 10 11 23 13 21 4 21 4 -3 6 -23 2 -24 3 -5 11 18 8 18 9 2 9 -10 1 -20 -6
-23 -14z"/>
<path d="M3754 7571 c18 -7 18 -8 3 -14 -24 -9 -21 -37 3 -37 16 0 20 7 20 30
0 25 -4 30 -22 29 -21 0 -21 -1 -4 -8z m16 -31 c0 -5 -4 -10 -10 -10 -5 0 -10
5 -10 10 0 6 5 10 10 10 6 0 10 -4 10 -10z"/>
<path d="M3801 7546 c1 -28 2 -29 8 -7 9 34 29 37 34 6 4 -24 4 -24 3 2 -1 22
-6 28 -23 29 -19 1 -23 -4 -22 -30z"/>
<path d="M3866 7573 c7 -4 14 -19 17 -33 4 -22 5 -21 4 4 -1 17 -9 31 -17 33
-10 3 -11 2 -4 -4z"/>
<path d="M4054 7566 c-9 -24 4 -48 23 -44 12 2 18 12 18 28 0 29 -32 41 -41
16z m36 -16 c0 -11 -7 -20 -15 -20 -8 0 -15 9 -15 20 0 11 7 20 15 20 8 0 15
-9 15 -20z"/>
<path d="M4124 7566 c-9 -24 4 -48 23 -44 12 2 18 12 18 28 0 29 -32 41 -41
16z m36 -16 c0 -11 -7 -20 -15 -20 -8 0 -15 9 -15 20 0 11 7 20 15 20 8 0 15
-9 15 -20z"/>
<path d="M4220 7563 c0 -10 4 -14 8 -8 4 6 11 13 16 18 5 4 2 7 -7 7 -10 0
-17 -8 -17 -17z"/>
<path d="M4472 7550 c0 -19 2 -27 5 -17 2 9 2 25 0 35 -3 9 -5 1 -5 -18z"/>
<path d="M4501 7546 c1 -28 2 -29 8 -7 9 34 29 37 34 6 4 -24 4 -24 3 2 -1 22
-6 28 -23 29 -19 1 -23 -4 -22 -30z"/>
<path d="M4644 7566 c-9 -24 4 -48 23 -44 12 2 18 12 18 28 0 29 -32 41 -41
16z m36 -16 c0 -11 -7 -20 -15 -20 -8 0 -15 9 -15 20 0 11 7 20 15 20 8 0 15
-9 15 -20z"/>
<path d="M4712 7549 l11 -32 12 23 13 23 7 -23 c6 -17 9 -20 16 -9 5 8 9 19 9
24 0 6 -4 4 -9 -4 -7 -11 -10 -8 -16 9 l-7 23 -14 -24 c-10 -18 -13 -20 -14
-7 0 9 -4 19 -10 23 -5 3 -4 -8 2 -26z"/>
<path d="M4984 7565 c-10 -24 4 -45 28 -44 l23 2 -22 4 c-13 2 -23 8 -23 13 0
5 10 11 23 13 21 4 21 4 -3 6 -23 2 -24 3 -5 11 18 8 18 9 2 9 -10 1 -20 -6
-23 -14z"/>
<path d="M5071 7531 c1 -25 3 -39 6 -30 2 10 13 19 24 22 29 8 22 52 -8 53
-21 1 -23 -3 -22 -45z m39 19 c0 -11 -7 -20 -15 -20 -15 0 -21 21 -8 33 12 13
23 7 23 -13z"/>
<path d="M11923 7573 c9 -2 23 -2 30 0 6 3 -1 5 -18 5 -16 0 -22 -2 -12 -5z"/>
<path d="M11976 7571 c-4 -5 3 -7 14 -4 23 6 26 13 6 13 -8 0 -17 -4 -20 -9z"/>
<path d="M12443 7573 c9 -2 25 -2 35 0 9 3 1 5 -18 5 -19 0 -27 -2 -17 -5z"/>
<path d="M11918 7548 c5 -5 16 -8 23 -6 8 3 3 7 -10 11 -17 4 -21 3 -13 -5z"/>
<path d="M12268 7548 c5 -5 16 -8 23 -6 8 3 3 7 -10 11 -17 4 -21 3 -13 -5z"/>
<path d="M4420 7535 c0 -8 5 -15 10 -15 6 0 10 7 10 15 0 8 -4 15 -10 15 -5 0
-10 -7 -10 -15z"/>
<path d="M11868 7543 c7 -3 16 -2 19 1 4 3 -2 6 -13 5 -11 0 -14 -3 -6 -6z"/>
<path d="M12088 7543 c7 -3 16 -2 19 1 4 3 -2 6 -13 5 -11 0 -14 -3 -6 -6z"/>
<path d="M12508 7543 c7 -3 16 -2 19 1 4 3 -2 6 -13 5 -11 0 -14 -3 -6 -6z"/>
<path d="M1100 7530 c0 -5 5 -10 10 -10 6 0 10 5 10 10 0 6 -4 10 -10 10 -5 0
-10 -4 -10 -10z"/>
<path d="M4228 7523 c7 -3 16 -2 19 1 4 3 -2 6 -13 5 -11 0 -14 -3 -6 -6z"/>
<path d="M2 7288 l2 -103 3 98 4 97 6699 0 6699 0 4 -97 3 -98 2 103 2 102
-6710 0 -6710 0 2 -102z"/>
<path d="M13520 7340 c0 -11 -7 -20 -15 -20 -10 0 -15 -10 -15 -30 0 -28 3
-30 35 -30 28 0 35 4 35 20 0 11 7 20 15 20 10 0 15 10 15 30 0 28 -3 30 -35
30 -28 0 -35 -4 -35 -20z m60 -16 c0 -11 -5 -14 -16 -10 -9 3 -20 6 -25 6 -5
0 -9 5 -9 10 0 6 11 10 25 10 16 0 25 -6 25 -16z m-30 -39 c0 -9 -9 -15 -25
-15 -16 0 -25 6 -25 15 0 9 9 15 25 15 16 0 25 -6 25 -15z"/>
<path d="M45 7320 c-3 -5 -1 -10 4 -10 6 0 11 5 11 10 0 6 -2 10 -4 10 -3 0
-8 -4 -11 -10z"/>
<path d="M13260 7310 c0 -11 -7 -20 -15 -20 -10 0 -15 -10 -15 -30 0 -28 3
-30 35 -30 28 0 35 4 35 20 0 11 7 20 15 20 10 0 15 10 15 30 0 28 -3 30 -35
30 -28 0 -35 -4 -35 -20z m60 -16 c0 -11 -5 -14 -16 -10 -9 3 -20 6 -25 6 -5
0 -9 5 -9 10 0 6 11 10 25 10 16 0 25 -6 25 -16z m-30 -39 c0 -9 -9 -15 -25
-15 -16 0 -25 6 -25 15 0 9 9 15 25 15 16 0 25 -6 25 -15z"/>
<path d="M114 7306 c-3 -8 -4 -25 -2 -38 2 -17 9 -23 28 -23 22 0 25 4 25 35
0 29 -4 36 -23 38 -13 2 -24 -3 -28 -12z m41 -26 c0 -13 -6 -25 -12 -27 -16
-6 -27 21 -19 43 9 23 31 11 31 -16z"/>
<path d="M902 7308 c-14 -14 -16 -32 -3 -23 5 3 12 -7 14 -22 3 -20 4 -16 6
15 1 46 0 47 -17 30z"/>
<path d="M987 7313 c-9 -9 -9 -81 1 -86 4 -3 7 17 7 44 0 27 0 49 -1 49 0 0
-4 -3 -7 -7z"/>
<path d="M1214 7270 c0 -27 3 -47 8 -44 10 6 11 81 1 87 -5 3 -8 -17 -9 -43z"/>
<path d="M13074 7301 c15 -16 15 -19 1 -31 -9 -7 -13 -15 -10 -18 2 -3 11 1
20 8 12 10 18 10 30 0 9 -7 18 -11 20 -8 3 3 -1 11 -10 18 -14 12 -14 15 1 31
19 21 6 27 -14 7 -9 -9 -15 -9 -24 0 -20 20 -33 14 -14 -7z"/>
<path d="M259 7305 c-10 -9 3 -65 15 -65 13 0 13 63 -1 67 -5 2 -12 1 -14 -2z"/>
<path d="M439 7305 c-10 -9 3 -65 15 -65 13 0 13 63 -1 67 -5 2 -12 1 -14 -2z"/>
<path d="M579 7305 c-10 -9 3 -65 15 -65 13 0 13 63 -1 67 -5 2 -12 1 -14 -2z"/>
<path d="M191 7273 c-1 -29 2 -33 24 -33 21 0 25 5 25 30 0 17 -4 30 -10 30
-5 0 -10 -11 -10 -25 0 -34 -18 -32 -23 3 -4 25 -4 25 -6 -5z"/>
<path d="M300 7258 c0 -24 4 -38 8 -32 4 6 15 13 25 17 26 10 18 51 -10 55
-21 3 -23 -1 -23 -40z m40 12 c0 -11 -4 -20 -9 -20 -14 0 -23 18 -16 30 10 17
25 11 25 -10z"/>
<path d="M371 7273 c-1 -29 2 -33 24 -33 21 0 25 5 25 30 0 17 -4 30 -10 30
-5 0 -10 -11 -10 -25 0 -34 -18 -32 -23 3 -4 25 -4 25 -6 -5z"/>
<path d="M621 7273 c-1 -29 2 -33 24 -33 21 0 25 5 25 30 0 17 -4 30 -10 30
-5 0 -10 -11 -10 -25 0 -34 -18 -32 -23 3 -4 25 -4 25 -6 -5z"/>
<path d="M697 7293 c-4 -3 -7 -22 -7 -40 0 -30 3 -34 23 -31 18 2 23 10 25 41
3 31 0 37 -16 37 -10 0 -22 -3 -25 -7z m28 -23 c0 -7 -6 -15 -12 -17 -8 -3
-13 4 -13 17 0 13 5 20 13 18 6 -3 12 -11 12 -18z m2 -36 c-3 -3 -12 -4 -19
-1 -8 3 -5 6 6 6 11 1 17 -2 13 -5z"/>
<path d="M763 7285 c4 -8 2 -17 -4 -20 -14 -9 -1 -25 22 -25 14 0 19 7 19 30
0 24 -4 30 -21 30 -14 0 -19 -5 -16 -15z m27 -25 c0 -5 -4 -10 -10 -10 -5 0
-10 5 -10 10 0 6 5 10 10 10 6 0 10 -4 10 -10z"/>
<path d="M825 7290 c-8 -13 -8 -12 20 -29 19 -12 19 -12 -4 -7 -17 3 -21 2
-13 -6 17 -17 42 -1 38 24 -3 25 -30 36 -41 18z"/>
<path d="M1021 7268 c0 -32 1 -32 10 -8 6 13 15 28 22 32 8 5 4 8 -10 8 -19 0
-23 -5 -22 -32z"/>
<path d="M1071 7273 c-1 -29 2 -33 24 -33 21 0 25 5 25 30 0 17 -4 30 -10 30
-5 0 -10 -11 -10 -25 0 -34 -18 -32 -23 3 -4 25 -4 25 -6 -5z"/>
<path d="M1141 7268 c1 -30 2 -30 8 -9 9 35 29 37 34 4 4 -27 4 -27 6 5 1 28
-2 32 -24 32 -22 0 -25 -4 -24 -32z"/>
<path d="M45 7280 c-3 -5 -1 -10 4 -10 6 0 11 5 11 10 0 6 -2 10 -4 10 -3 0
-8 -4 -11 -10z"/>
<path d="M518 7263 c7 -3 16 -2 19 1 4 3 -2 6 -13 5 -11 0 -14 -3 -6 -6z"/>
<path d="M45 7240 c-3 -5 -1 -10 4 -10 6 0 11 5 11 10 0 6 -2 10 -4 10 -3 0
-8 -4 -11 -10z"/>
<path d="M457 7167 c-5 -14 -1 -17 22 -17 16 0 35 8 42 18 11 14 11 15 -1 5
-18 -16 -47 -17 -52 -1 -3 7 -7 6 -11 -5z"/>
<path d="M693 7173 c-15 -5 -17 -23 -4 -23 5 0 11 7 15 15 3 8 4 15 3 14 -1 0
-8 -3 -14 -6z"/>
<path d="M857 7167 c-5 -14 -1 -17 22 -17 16 0 35 8 42 18 11 14 11 15 -1 5
-18 -16 -47 -17 -52 -1 -3 7 -7 6 -11 -5z"/>
<path d="M957 7166 c-5 -13 1 -16 33 -16 22 0 40 4 40 9 0 4 -12 6 -26 3 -15
-3 -29 1 -34 7 -5 9 -9 9 -13 -3z"/>
<path d="M573 7153 c9 -2 25 -2 35 0 9 3 1 5 -18 5 -19 0 -27 -2 -17 -5z"/>
<path d="M773 7153 c9 -2 25 -2 35 0 9 3 1 5 -18 5 -19 0 -27 -2 -17 -5z"/>
<path d="M40 7075 c0 -41 3 -75 7 -75 4 0 17 10 30 22 l23 21 0 -21 c0 -31 10
-28 53 16 l37 38 -38 37 c-44 43 -52 45 -52 15 l0 -21 -23 21 c-13 12 -26 22
-30 22 -4 0 -7 -34 -7 -75z m60 0 c0 -12 -11 -32 -25 -45 l-25 -23 0 68 0 68
25 -23 c14 -13 25 -33 25 -45z m48 32 l32 -33 -35 -34 -35 -34 0 67 c0 37 1
67 3 67 2 0 17 -15 35 -33z"/>
<path d="M13508 7123 c23 -2 59 -2 80 0 20 2 1 4 -43 4 -44 0 -61 -2 -37 -4z"/>
<path d="M13307 7102 c-23 -26 -23 -52 0 -29 16 15 18 15 35 0 15 -14 18 -14
18 -1 0 8 -8 22 -18 32 -18 15 -20 15 -35 -2z"/>
<path d="M13530 7091 c0 -25 6 -27 13 -6 4 8 2 17 -3 20 -6 4 -10 -3 -10 -14z"/>
<path d="M13568 7083 c7 -3 16 -2 19 1 4 3 -2 6 -13 5 -11 0 -14 -3 -6 -6z"/>
<path d="M13471 7053 c-1 -17 5 -23 21 -23 12 0 36 -5 54 -12 40 -14 85 2 83
29 -1 17 -2 17 -6 1 -9 -35 -92 -35 -94 0 0 11 -3 12 -6 5 -7 -19 -41 -16 -46
5 -4 13 -5 11 -6 -5z"/>
<path d="M687 6984 c-37 -74 -33 -83 4 -10 17 32 29 60 27 62 -2 2 -16 -21
-31 -52z"/>
<path d="M477 7012 c-21 -23 -22 -56 -1 -73 17 -14 45 -3 52 22 2 8 -2 5 -10
-5 -9 -12 -21 -17 -32 -13 -22 9 -20 22 7 36 l22 12 -22 -5 c-41 -8 -20 26 22
37 19 4 19 5 -1 6 -11 0 -28 -7 -37 -17z"/>
<path d="M866 7021 c-4 -5 2 -7 13 -4 34 9 36 -19 3 -48 -18 -16 -32 -31 -32
-34 0 -3 16 -5 35 -5 19 0 35 4 35 9 0 4 -12 6 -27 3 l-28 -5 29 31 c24 26 27
34 16 47 -14 17 -36 20 -44 6z"/>
<path d="M1266 7022 c-3 -6 2 -8 13 -5 23 6 38 -15 16 -23 -14 -6 -14 -8 1
-19 22 -16 8 -38 -19 -31 -14 3 -17 2 -10 -5 6 -6 19 -9 29 -7 15 3 19 12 19
48 0 38 -3 45 -22 48 -11 2 -24 -1 -27 -6z"/>
<path d="M1068 6993 c12 -2 32 -2 45 0 12 2 2 4 -23 4 -25 0 -35 -2 -22 -4z"/>
<path d="M1068 6963 c12 -2 32 -2 45 0 12 2 2 4 -23 4 -25 0 -35 -2 -22 -4z"/>
<path d="M13523 6953 c-21 -8 -15 -51 7 -58 32 -10 60 4 60 30 0 29 -31 43
-67 28z m52 -28 c0 -22 -31 -33 -47 -17 -17 17 -1 44 24 40 15 -2 23 -10 23
-23z"/>
<path d="M40 6845 c0 -41 3 -75 7 -75 4 0 17 10 30 22 l23 21 0 -21 c0 -31 10
-28 53 16 l37 38 -38 37 c-44 43 -52 45 -52 15 l0 -21 -23 21 c-13 12 -26 22
-30 22 -4 0 -7 -34 -7 -75z m60 0 c0 -12 -11 -32 -25 -45 l-25 -23 0 68 0 68
25 -23 c14 -13 25 -33 25 -45z m48 32 l32 -33 -35 -34 -35 -34 0 67 c0 37 1
67 3 67 2 0 17 -15 35 -33z"/>
<path d="M13517 6873 c-4 -3 -7 -15 -7 -25 0 -14 7 -18 33 -17 30 2 30 2 5 6
-16 2 -28 10 -28 18 0 8 12 16 28 18 l27 4 -26 2 c-14 0 -29 -2 -32 -6z"/>
<path d="M1187 6764 c-37 -74 -33 -83 4 -10 17 32 29 60 27 62 -2 2 -16 -21
-31 -52z"/>
<path d="M13515 6809 c-4 -6 -4 -13 -1 -16 3 -4 6 -1 6 5 0 14 37 16 42 3 2
-5 9 -3 16 5 11 12 7 14 -22 14 -19 0 -38 -5 -41 -11z"/>
<path d="M466 6801 c-4 -5 2 -7 13 -4 34 9 36 -19 3 -48 -18 -16 -32 -31 -32
-34 0 -3 16 -5 35 -5 19 0 35 4 35 9 0 4 -12 6 -27 3 l-28 -5 29 31 c24 26 27
34 16 47 -14 17 -36 20 -44 6z"/>
<path d="M560 6801 c0 -4 11 -6 25 -3 29 5 29 6 10 -47 -15 -44 -11 -58 5 -16
25 67 24 75 -9 75 -17 0 -31 -4 -31 -9z"/>
<path d="M777 6781 c-22 -37 -21 -41 3 -41 22 0 27 -15 8 -23 -7 -3 -4 -6 8
-6 16 -1 20 4 18 22 -1 12 -3 34 -3 50 -1 35 -12 34 -34 -2z m23 -11 c0 -11
-7 -20 -15 -20 -13 0 -14 4 -5 20 6 11 13 20 15 20 3 0 5 -9 5 -20z"/>
<path d="M860 6801 c0 -4 11 -6 25 -3 29 5 29 6 10 -47 -15 -44 -11 -58 5 -16
25 67 24 75 -9 75 -17 0 -31 -4 -31 -9z"/>
<path d="M960 6786 c0 -19 6 -25 29 -28 17 -2 28 -1 25 4 -3 4 -14 8 -25 8
-30 0 -23 28 9 33 25 4 25 4 -5 6 -29 1 -33 -2 -33 -23z"/>
<path d="M1360 6801 c0 -4 11 -6 25 -3 29 5 29 6 10 -47 -15 -44 -11 -58 5
-16 25 67 24 75 -9 75 -17 0 -31 -4 -31 -9z"/>
<path d="M1566 6801 c-4 -5 2 -7 13 -4 34 9 36 -19 3 -48 -18 -16 -32 -31 -32
-34 0 -3 16 -5 35 -5 19 0 35 4 35 9 0 4 -12 6 -27 3 l-28 -5 29 31 c24 26 27
34 16 47 -14 17 -36 20 -44 6z"/>
<path d="M1666 6801 c-4 -5 2 -7 13 -4 34 9 36 -19 3 -48 -18 -16 -32 -31 -32
-34 0 -3 16 -5 35 -5 19 0 35 4 35 9 0 4 -12 6 -27 3 l-28 -5 29 31 c24 26 27
34 16 47 -14 17 -36 20 -44 6z"/>
<path d="M2066 6802 c-3 -6 2 -8 13 -5 23 6 38 -15 16 -23 -14 -6 -14 -8 1
-19 22 -16 8 -38 -19 -31 -14 3 -17 2 -10 -5 6 -6 19 -9 29 -7 15 3 19 12 19
48 0 38 -3 45 -22 48 -11 2 -24 -1 -27 -6z"/>
<path d="M2264 6795 c-4 -9 -2 -21 4 -27 16 -16 47 -5 47 17 0 26 -42 34 -51
10z m46 -10 c0 -8 -9 -15 -20 -15 -11 0 -20 7 -20 15 0 8 9 15 20 15 11 0 20
-7 20 -15z"/>
<path d="M2393 6804 c12 -4 17 -16 17 -44 0 -29 -5 -40 -17 -43 -14 -3 -13 -4
2 -3 17 1 20 8 20 46 0 37 -3 45 -20 47 -16 1 -16 1 -2 -3z"/>
<path d="M2460 6786 c0 -19 6 -25 29 -28 17 -2 28 -1 25 4 -3 4 -14 8 -25 8
-30 0 -23 28 9 33 25 4 25 4 -5 6 -29 1 -33 -2 -33 -23z"/>
<path d="M2577 6781 c-22 -37 -21 -41 3 -41 22 0 27 -15 8 -23 -7 -3 -4 -6 8
-6 16 -1 20 4 18 22 -1 12 -3 34 -3 50 -1 35 -12 34 -34 -2z m23 -11 c0 -11
-7 -20 -15 -20 -13 0 -14 4 -5 20 6 11 13 20 15 20 3 0 5 -9 5 -20z"/>
<path d="M2693 6804 c12 -4 17 -16 17 -44 0 -29 -5 -40 -17 -43 -14 -3 -13 -4
2 -3 17 1 20 8 20 46 0 37 -3 45 -20 47 -16 1 -16 1 -2 -3z"/>
<path d="M2877 6792 c-21 -23 -22 -56 -1 -73 17 -14 45 -3 52 22 2 8 -2 5 -10
-5 -9 -12 -21 -17 -32 -13 -22 9 -20 22 7 36 l22 12 -22 -5 c-41 -8 -20 26 22
37 19 4 19 5 -1 6 -11 0 -28 -7 -37 -17z"/>
<path d="M2977 6792 c-21 -23 -22 -56 -1 -73 17 -14 45 -3 52 22 2 8 -2 5 -10
-5 -9 -12 -21 -17 -32 -13 -22 9 -20 22 7 36 l22 12 -22 -5 c-41 -8 -20 26 22
37 19 4 19 5 -1 6 -11 0 -28 -7 -37 -17z"/>
<path d="M3066 6801 c-4 -5 2 -7 13 -4 34 9 36 -19 3 -48 -18 -16 -32 -31 -32
-34 0 -3 16 -5 35 -5 19 0 35 4 35 9 0 4 -12 6 -27 3 l-28 -5 29 31 c24 26 27
34 16 47 -14 17 -36 20 -44 6z"/>
<path d="M3193 6804 c12 -4 17 -16 17 -44 0 -29 -5 -40 -17 -43 -14 -3 -13 -4
2 -3 17 1 20 8 20 46 0 37 -3 45 -20 47 -16 1 -16 1 -2 -3z"/>
<path d="M3277 6781 c-22 -37 -21 -41 3 -41 22 0 27 -15 8 -23 -7 -3 -4 -6 8
-6 16 -1 20 4 18 22 -1 12 -3 34 -3 50 -1 35 -12 34 -34 -2z m23 -11 c0 -11
-7 -20 -15 -20 -13 0 -14 4 -5 20 6 11 13 20 15 20 3 0 5 -9 5 -20z"/>
<path d="M3364 6795 c-11 -28 4 -45 36 -43 16 1 30 6 30 10 0 4 -12 6 -26 5
-34 -3 -43 20 -12 32 l23 10 -23 0 c-12 1 -25 -6 -28 -14z"/>
<path d="M3464 6795 c-4 -9 -2 -21 4 -27 16 -16 47 -5 47 17 0 26 -42 34 -51
10z m46 -10 c0 -8 -9 -15 -20 -15 -11 0 -20 7 -20 15 0 8 9 15 20 15 11 0 20
-7 20 -15z"/>
<path d="M3577 6792 c-21 -23 -22 -56 -1 -73 17 -14 45 -3 52 22 2 8 -2 5 -10
-5 -9 -12 -21 -17 -32 -13 -22 9 -20 22 7 36 l22 12 -22 -5 c-41 -8 -20 26 22
37 19 4 19 5 -1 6 -11 0 -28 -7 -37 -17z"/>
<path d="M3666 6801 c-4 -5 2 -7 13 -4 34 9 36 -19 3 -48 -18 -16 -32 -31 -32
-34 0 -3 16 -5 35 -5 19 0 35 4 35 9 0 4 -12 6 -27 3 l-28 -5 29 31 c24 26 27
34 16 47 -14 17 -36 20 -44 6z"/>
<path d="M2362 6760 c0 -19 2 -27 5 -17 2 9 2 25 0 35 -3 9 -5 1 -5 -18z"/>
<path d="M2662 6760 c0 -19 2 -27 5 -17 2 9 2 25 0 35 -3 9 -5 1 -5 -18z"/>
<path d="M3162 6760 c0 -19 2 -27 5 -17 2 9 2 25 0 35 -3 9 -5 1 -5 -18z"/>
<path d="M1868 6773 c12 -2 32 -2 45 0 12 2 2 4 -23 4 -25 0 -35 -2 -22 -4z"/>
<path d="M13496 6772 c6 -4 13 -15 17 -25 10 -26 51 -18 55 11 3 20 -1 22 -40
22 -24 0 -38 -4 -32 -8z m64 -18 c0 -9 -7 -14 -17 -12 -25 5 -28 28 -4 28 12
0 21 -6 21 -16z"/>
<path d="M2791 6748 c0 -16 -8 -28 -18 -31 -10 -3 -2 -5 17 -6 19 0 30 3 24 7
-7 4 -14 18 -17 32 l-4 25 -2 -27z"/>
<path d="M1868 6743 c12 -2 32 -2 45 0 12 2 2 4 -23 4 -25 0 -35 -2 -22 -4z"/>
<path d="M2264 6730 c2 -24 50 -19 53 5 1 16 1 16 -3 3 -6 -21 -40 -24 -47 -5
-2 7 -3 6 -3 -3z"/>
<path d="M3464 6730 c2 -24 50 -19 53 5 1 16 1 16 -3 3 -6 -21 -40 -24 -47 -5
-2 7 -3 6 -3 -3z"/>
<path d="M3405 6731 c-6 -5 -19 -11 -30 -14 -19 -4 -19 -5 1 -6 12 0 27 6 34
14 14 16 10 20 -5 6z"/>
<path d="M680 6720 c0 -5 5 -10 10 -10 6 0 10 5 10 10 0 6 -4 10 -10 10 -5 0
-10 -4 -10 -10z"/>
<path d="M967 6718 c2 -5 13 -8 23 -8 10 0 21 3 23 8 3 4 -8 7 -23 7 -15 0
-26 -3 -23 -7z"/>
<path d="M1480 6720 c0 -5 5 -10 10 -10 6 0 10 5 10 10 0 6 -4 10 -10 10 -5 0
-10 -4 -10 -10z"/>
<path d="M2180 6720 c0 -5 5 -10 10 -10 6 0 10 5 10 10 0 6 -4 10 -10 10 -5 0
-10 -4 -10 -10z"/>
<path d="M2467 6718 c2 -5 13 -8 23 -8 10 0 21 3 23 8 3 4 -8 7 -23 7 -15 0
-26 -3 -23 -7z"/>
<path d="M13517 6713 c-4 -3 -7 -15 -7 -25 0 -14 7 -18 33 -17 30 2 30 2 5 6
-16 2 -28 10 -28 18 0 8 12 16 28 18 l27 4 -26 2 c-14 0 -29 -2 -32 -6z"/>
<path d="M13515 6649 c-4 -6 -4 -13 -1 -16 3 -4 6 -1 6 5 0 14 37 16 42 3 2
-5 9 -3 16 5 11 12 7 14 -22 14 -19 0 -38 -5 -41 -11z"/>
<path d="M445 6535 c0 -39 3 -45 20 -44 11 0 14 3 8 6 -7 2 -13 19 -12 36 0
30 1 31 11 10 6 -13 14 -23 18 -23 4 0 12 10 18 23 10 21 11 20 11 -10 1 -17
-5 -34 -11 -36 -7 -3 -4 -6 7 -6 17 -1 20 5 20 44 0 47 -18 62 -30 25 -3 -11
-10 -20 -15 -20 -5 0 -12 9 -15 20 -12 37 -30 22 -30 -25z"/>
<path d="M560 6566 c-28 -34 11 -93 47 -70 9 6 19 17 21 25 2 8 -2 6 -10 -5
-20 -26 -58 -13 -58 19 0 32 38 45 57 19 7 -10 13 -13 13 -8 0 31 -49 44 -70
20z"/>
<path d="M655 6535 c0 -42 2 -45 26 -45 26 0 49 16 49 35 0 5 -5 2 -11 -7 -5
-10 -19 -18 -29 -18 -16 0 -20 7 -20 35 0 28 4 35 20 35 10 0 24 -8 29 -17 6
-10 11 -13 11 -7 0 18 -23 34 -49 34 -24 0 -26 -3 -26 -45z"/>
<path d="M747 6572 c6 -4 13 -23 15 -42 2 -29 7 -35 27 -35 13 0 25 6 27 13 1
7 0 8 -3 2 -2 -5 -14 -10 -25 -10 -17 0 -20 5 -16 40 3 35 1 40 -17 40 -12 0
-16 -3 -8 -8z"/>
<path d="M808 6573 c6 -2 18 -2 25 0 6 3 1 5 -13 5 -14 0 -19 -2 -12 -5z"/>
<path d="M858 6573 c6 -2 12 -20 12 -38 0 -18 -6 -36 -12 -38 -7 -3 6 -6 30
-6 37 -1 42 1 41 22 -1 16 -2 18 -6 5 -2 -10 -13 -18 -24 -18 -15 0 -19 7 -19
34 0 19 6 37 13 39 6 3 -1 5 -18 5 -16 0 -24 -2 -17 -5z"/>
<path d="M960 6566 c-28 -34 11 -93 47 -70 9 6 19 17 21 25 2 8 -2 6 -10 -5
-20 -26 -58 -13 -58 19 0 32 38 45 57 19 7 -10 13 -13 13 -8 0 31 -49 44 -70
20z"/>
<path d="M145 6453 c6 -4 10 -15 10 -23 0 -8 7 -15 15 -15 8 0 19 -4 23 -10 5
-6 7 -4 4 5 -2 8 -12 14 -21 12 -12 -2 -16 2 -14 14 2 9 -4 19 -12 21 -9 3
-11 1 -5 -4z"/>
<path d="M44 6420 c2 -24 50 -19 53 5 1 16 1 16 -3 3 -6 -21 -40 -24 -47 -5
-2 7 -3 6 -3 -3z"/>
<path d="M60 6430 c0 -5 5 -10 10 -10 6 0 10 5 10 10 0 6 -4 10 -10 10 -5 0
-10 -4 -10 -10z"/>
<path d="M68 6383 c7 -3 16 -2 19 1 4 3 -2 6 -13 5 -11 0 -14 -3 -6 -6z"/>
<path d="M158 6383 c7 -3 16 -2 19 1 4 3 -2 6 -13 5 -11 0 -14 -3 -6 -6z"/>
<path d="M40 6356 c0 -14 5 -17 20 -13 17 4 20 2 14 -15 -5 -16 -2 -19 17 -16
13 2 24 10 25 18 0 9 -1 10 -3 3 -7 -20 -31 -15 -29 5 0 9 -6 17 -14 17 -8 0
-18 5 -22 10 -4 6 -8 2 -8 -9z"/>
<path d="M153 6360 c-28 -12 -30 -39 -3 -41 11 -1 26 -2 33 -3 14 -1 17 46 2
50 -5 1 -20 -1 -32 -6z m34 -32 c-3 -7 -5 -2 -5 12 0 14 2 19 5 13 2 -7 2 -19
0 -25z m-17 12 c0 -5 -7 -10 -15 -10 -8 0 -15 5 -15 10 0 6 7 10 15 10 8 0 15
-4 15 -10z"/>
<path d="M477 6352 c-21 -23 -22 -56 -1 -73 17 -14 45 -3 52 22 2 8 -2 5 -10
-5 -9 -12 -21 -17 -32 -13 -22 9 -20 22 7 36 l22 12 -22 -5 c-41 -8 -20 26 22
37 19 4 19 5 -1 6 -11 0 -28 -7 -37 -17z"/>
<path d="M660 6351 c0 -13 7 -21 18 -22 14 0 14 -2 -3 -9 -16 -7 -16 -9 -4 -9
10 -1 16 -9 15 -18 0 -10 7 -19 17 -21 12 -2 17 3 17 17 0 13 -7 21 -17 22
-12 1 -10 4 7 9 23 7 23 8 4 9 -14 1 -21 7 -20 18 0 10 -7 19 -16 21 -13 2
-18 -3 -18 -17z m30 -1 c0 -5 -4 -10 -10 -10 -5 0 -10 5 -10 10 0 6 5 10 10
10 6 0 10 -4 10 -10z m20 -60 c0 -5 -4 -10 -10 -10 -5 0 -10 5 -10 10 0 6 5
10 10 10 6 0 10 -4 10 -10z"/>
<path d="M866 6361 c-4 -5 2 -7 13 -4 34 9 36 -19 3 -48 -18 -16 -32 -31 -32
-34 0 -3 16 -5 35 -5 19 0 35 4 35 9 0 4 -12 6 -27 3 l-28 -5 29 31 c24 26 27
34 16 47 -14 17 -36 20 -44 6z"/>
<path d="M1293 6364 c12 -4 17 -16 17 -44 0 -29 -5 -40 -17 -43 -14 -3 -13 -4
2 -3 17 1 20 8 20 46 0 37 -3 45 -20 47 -16 1 -16 1 -2 -3z"/>
<path d="M1262 6320 c0 -19 2 -27 5 -17 2 9 2 25 0 35 -3 9 -5 1 -5 -18z"/>
<path d="M1068 6333 c12 -2 32 -2 45 0 12 2 2 4 -23 4 -25 0 -35 -2 -22 -4z"/>
<path d="M1068 6303 c12 -2 32 -2 45 0 12 2 2 4 -23 4 -25 0 -35 -2 -22 -4z"/>
<path d="M466 6141 c-4 -5 2 -7 13 -4 34 9 36 -19 3 -48 -18 -16 -32 -31 -32
-34 0 -3 16 -5 35 -5 19 0 35 4 35 9 0 4 -12 6 -27 3 l-28 -5 29 31 c24 26 27
34 16 47 -14 17 -36 20 -44 6z"/>
<path d="M560 6141 c0 -4 11 -6 25 -3 29 5 29 6 10 -47 -15 -44 -11 -58 5 -16
25 67 24 75 -9 75 -17 0 -31 -4 -31 -9z"/>
<path d="M777 6121 c-22 -37 -21 -41 3 -41 22 0 27 -15 8 -23 -7 -3 -4 -6 8
-6 16 -1 20 4 18 22 -1 12 -3 34 -3 50 -1 35 -12 34 -34 -2z m23 -11 c0 -11
-7 -20 -15 -20 -13 0 -14 4 -5 20 6 11 13 20 15 20 3 0 5 -9 5 -20z"/>
<path d="M860 6141 c0 -4 11 -6 25 -3 29 5 29 6 10 -47 -15 -44 -11 -58 5 -16
25 67 24 75 -9 75 -17 0 -31 -4 -31 -9z"/>
<path d="M960 6126 c0 -19 6 -25 29 -28 17 -2 28 -1 25 4 -3 4 -14 8 -25 8
-30 0 -23 28 9 33 25 4 25 4 -5 6 -29 1 -33 -2 -33 -23z"/>
<path d="M1160 6131 c0 -13 7 -21 18 -22 14 0 14 -2 -3 -9 -16 -7 -16 -9 -4
-9 10 -1 16 -9 15 -18 0 -10 7 -19 17 -21 12 -2 17 3 17 17 0 13 -7 21 -17 22
-12 1 -10 4 7 9 23 7 23 8 4 9 -14 1 -21 7 -20 18 0 10 -7 19 -16 21 -13 2
-18 -3 -18 -17z m30 -1 c0 -5 -4 -10 -10 -10 -5 0 -10 5 -10 10 0 6 5 10 10
10 6 0 10 -4 10 -10z m20 -60 c0 -5 -4 -10 -10 -10 -5 0 -10 5 -10 10 0 6 5
10 10 10 6 0 10 -4 10 -10z"/>
<path d="M1360 6141 c0 -4 11 -6 25 -3 29 5 29 6 10 -47 -15 -44 -11 -58 5
-16 25 67 24 75 -9 75 -17 0 -31 -4 -31 -9z"/>
<path d="M1566 6141 c-4 -5 2 -7 13 -4 34 9 36 -19 3 -48 -18 -16 -32 -31 -32
-34 0 -3 16 -5 35 -5 19 0 35 4 35 9 0 4 -12 6 -27 3 l-28 -5 29 31 c24 26 27
34 16 47 -14 17 -36 20 -44 6z"/>
<path d="M1666 6141 c-4 -5 2 -7 13 -4 34 9 36 -19 3 -48 -18 -16 -32 -31 -32
-34 0 -3 16 -5 35 -5 19 0 35 4 35 9 0 4 -12 6 -27 3 l-28 -5 29 31 c24 26 27
34 16 47 -14 17 -36 20 -44 6z"/>
<path d="M2060 6126 c0 -19 6 -25 29 -28 17 -2 28 -1 25 4 -3 4 -14 8 -25 8
-30 0 -23 28 9 33 25 4 25 4 -5 6 -29 1 -33 -2 -33 -23z"/>
<path d="M2264 6135 c-4 -9 -2 -21 4 -27 16 -16 47 -5 47 17 0 26 -42 34 -51
10z m46 -10 c0 -8 -9 -15 -20 -15 -11 0 -20 7 -20 15 0 8 9 15 20 15 11 0 20
-7 20 -15z"/>
<path d="M2460 6126 c0 -19 6 -25 29 -28 17 -2 28 -1 25 4 -3 4 -14 8 -25 8
-30 0 -23 28 9 33 25 4 25 4 -5 6 -29 1 -33 -2 -33 -23z"/>
<path d="M2593 6144 c12 -4 17 -16 17 -44 0 -29 -5 -40 -17 -43 -14 -3 -13 -4
2 -3 17 1 20 8 20 46 0 37 -3 45 -20 47 -16 1 -16 1 -2 -3z"/>
<path d="M2693 6144 c12 -4 17 -16 17 -44 0 -29 -5 -40 -17 -43 -14 -3 -13 -4
2 -3 17 1 20 8 20 46 0 37 -3 45 -20 47 -16 1 -16 1 -2 -3z"/>
<path d="M2793 6144 c12 -4 17 -16 17 -44 0 -29 -5 -40 -17 -43 -14 -3 -13 -4
2 -3 17 1 20 8 20 46 0 37 -3 45 -20 47 -16 1 -16 1 -2 -3z"/>
<path d="M2893 6144 c12 -4 17 -16 17 -44 0 -29 -5 -40 -17 -43 -14 -3 -13 -4
2 -3 17 1 20 8 20 46 0 37 -3 45 -20 47 -16 1 -16 1 -2 -3z"/>
<path d="M2993 6144 c12 -4 17 -16 17 -44 0 -29 -5 -40 -17 -43 -14 -3 -13 -4
2 -3 17 1 20 8 20 46 0 37 -3 45 -20 47 -16 1 -16 1 -2 -3z"/>
<path d="M3093 6144 c12 -4 17 -16 17 -44 0 -29 -5 -40 -17 -43 -14 -3 -13 -4
2 -3 17 1 20 8 20 46 0 37 -3 45 -20 47 -16 1 -16 1 -2 -3z"/>
<path d="M3193 6144 c12 -4 17 -16 17 -44 0 -29 -5 -40 -17 -43 -14 -3 -13 -4
2 -3 17 1 20 8 20 46 0 37 -3 45 -20 47 -16 1 -16 1 -2 -3z"/>
<path d="M3293 6144 c12 -4 17 -16 17 -44 0 -29 -5 -40 -17 -43 -14 -3 -13 -4
2 -3 17 1 20 8 20 46 0 37 -3 45 -20 47 -16 1 -16 1 -2 -3z"/>
<path d="M3393 6144 c12 -4 17 -16 17 -44 0 -29 -5 -40 -17 -43 -14 -3 -13 -4
2 -3 17 1 20 8 20 46 0 37 -3 45 -20 47 -16 1 -16 1 -2 -3z"/>
<path d="M3493 6144 c12 -4 17 -16 17 -44 0 -29 -5 -40 -17 -43 -14 -3 -13 -4
2 -3 17 1 20 8 20 46 0 37 -3 45 -20 47 -16 1 -16 1 -2 -3z"/>
<path d="M3593 6144 c12 -4 17 -16 17 -44 0 -29 -5 -40 -17 -43 -14 -3 -13 -4
2 -3 17 1 20 8 20 46 0 37 -3 45 -20 47 -16 1 -16 1 -2 -3z"/>
<path d="M3666 6141 c-4 -5 2 -7 13 -4 34 9 36 -19 3 -48 -18 -16 -32 -31 -32
-34 0 -3 16 -5 35 -5 19 0 35 4 35 9 0 4 -12 6 -27 3 l-28 -5 29 31 c24 26 27
34 16 47 -14 17 -36 20 -44 6z"/>
<path d="M2562 6100 c0 -19 2 -27 5 -17 2 9 2 25 0 35 -3 9 -5 1 -5 -18z"/>
<path d="M2662 6100 c0 -19 2 -27 5 -17 2 9 2 25 0 35 -3 9 -5 1 -5 -18z"/>
<path d="M2762 6100 c0 -19 2 -27 5 -17 2 9 2 25 0 35 -3 9 -5 1 -5 -18z"/>
<path d="M2862 6100 c0 -19 2 -27 5 -17 2 9 2 25 0 35 -3 9 -5 1 -5 -18z"/>
<path d="M2962 6100 c0 -19 2 -27 5 -17 2 9 2 25 0 35 -3 9 -5 1 -5 -18z"/>
<path d="M3062 6100 c0 -19 2 -27 5 -17 2 9 2 25 0 35 -3 9 -5 1 -5 -18z"/>
<path d="M3162 6100 c0 -19 2 -27 5 -17 2 9 2 25 0 35 -3 9 -5 1 -5 -18z"/>
<path d="M3262 6100 c0 -19 2 -27 5 -17 2 9 2 25 0 35 -3 9 -5 1 -5 -18z"/>
<path d="M3362 6100 c0 -19 2 -27 5 -17 2 9 2 25 0 35 -3 9 -5 1 -5 -18z"/>
<path d="M3462 6100 c0 -19 2 -27 5 -17 2 9 2 25 0 35 -3 9 -5 1 -5 -18z"/>
<path d="M3562 6100 c0 -19 2 -27 5 -17 2 9 2 25 0 35 -3 9 -5 1 -5 -18z"/>
<path d="M1868 6113 c12 -2 32 -2 45 0 12 2 2 4 -23 4 -25 0 -35 -2 -22 -4z"/>
<path d="M2391 6088 c0 -16 -8 -28 -18 -31 -10 -3 -2 -5 17 -6 19 0 30 3 24 7
-7 4 -14 18 -17 32 l-4 25 -2 -27z"/>
<path d="M1868 6083 c12 -2 32 -2 45 0 12 2 2 4 -23 4 -25 0 -35 -2 -22 -4z"/>
<path d="M2264 6070 c2 -24 50 -19 53 5 1 16 1 16 -3 3 -6 -21 -40 -24 -47 -5
-2 7 -3 6 -3 -3z"/>
<path d="M680 6060 c0 -5 5 -10 10 -10 6 0 10 5 10 10 0 6 -4 10 -10 10 -5 0
-10 -4 -10 -10z"/>
<path d="M967 6058 c2 -5 13 -8 23 -8 10 0 21 3 23 8 3 4 -8 7 -23 7 -15 0
-26 -3 -23 -7z"/>
<path d="M1480 6060 c0 -5 5 -10 10 -10 6 0 10 5 10 10 0 6 -4 10 -10 10 -5 0
-10 -4 -10 -10z"/>
<path d="M2067 6058 c2 -5 13 -8 23 -8 10 0 21 3 23 8 3 4 -8 7 -23 7 -15 0
-26 -3 -23 -7z"/>
<path d="M2180 6060 c0 -5 5 -10 10 -10 6 0 10 5 10 10 0 6 -4 10 -10 10 -5 0
-10 -4 -10 -10z"/>
<path d="M2467 6058 c2 -5 13 -8 23 -8 10 0 21 3 23 8 3 4 -8 7 -23 7 -15 0
-26 -3 -23 -7z"/>
<path d="M1066 5481 c-4 -5 2 -7 13 -4 34 9 36 -19 3 -48 -18 -16 -32 -31 -32
-34 0 -3 16 -5 35 -5 19 0 35 4 35 9 0 4 -12 6 -27 3 l-28 -5 29 31 c24 26 27
34 16 47 -14 17 -36 20 -44 6z"/>
<path d="M451 5458 c1 -17 2 -19 6 -5 8 30 23 19 23 -17 0 -19 -6 -37 -12 -39
-7 -3 1 -5 17 -5 17 0 24 2 18 5 -18 7 -17 73 1 73 8 0 17 -8 19 -17 4 -14 5
-12 6 5 1 19 -4 22 -39 22 -35 0 -40 -3 -39 -22z"/>
<path d="M559 5428 c6 -28 11 -33 37 -35 28 -1 30 1 26 33 -5 40 -18 46 -17 7
0 -18 -6 -29 -17 -31 -14 -3 -18 3 -18 27 0 17 -4 31 -9 31 -5 0 -5 -15 -2
-32z"/>
<path d="M659 5443 c-17 -20 1 -48 30 -47 27 1 28 -23 1 -29 -17 -4 -16 -4 2
-3 20 1 24 8 28 47 5 45 5 46 -22 47 -14 0 -32 -6 -39 -15z m49 -16 c4 -20
-25 -34 -40 -19 -15 15 -1 44 19 40 10 -2 19 -11 21 -21z"/>
<path d="M770 5454 c43 -16 44 -17 15 -23 -44 -9 -39 -36 6 -37 35 -2 36 -1
30 30 -6 26 -12 31 -36 33 -17 1 -23 0 -15 -3z m35 -44 c-3 -5 -15 -10 -26
-10 -10 0 -19 5 -19 10 0 6 12 10 26 10 14 0 23 -4 19 -10z"/>
<path d="M865 5450 c-9 -15 4 -30 26 -30 10 0 19 -5 19 -11 0 -7 -10 -9 -25
-7 -14 3 -25 1 -25 -4 0 -5 12 -8 28 -6 33 4 37 32 5 36 -13 2 -23 8 -23 14 0
6 11 8 25 6 14 -3 25 -1 25 3 0 12 -47 11 -55 -1z"/>
<path d="M1493 5264 c12 -4 17 -16 17 -44 0 -29 -5 -40 -17 -43 -14 -3 -13 -4
2 -3 17 1 20 8 20 46 0 37 -3 45 -20 47 -16 1 -16 1 -2 -3z"/>
<path d="M455 5215 c0 -25 5 -45 10 -45 13 0 13 82 0 87 -6 2 -10 -17 -10 -42z"/>
<path d="M505 5221 c0 -22 4 -43 8 -47 4 -4 7 11 7 34 0 23 5 42 13 45 6 3 3
6 -8 6 -17 1 -20 -5 -20 -38z"/>
<path d="M1462 5220 c0 -19 2 -27 5 -17 2 9 2 25 0 35 -3 9 -5 1 -5 -18z"/>
<path d="M559 5208 c6 -32 9 -33 58 -36 48 -2 50 -1 46 22 -3 13 0 27 6 30 7
5 11 -4 11 -23 0 -23 5 -31 18 -31 13 0 14 2 4 9 -16 10 -12 43 6 49 8 2 12
-7 12 -27 0 -29 1 -30 46 -28 56 2 79 26 52 53 -17 17 -58 12 -58 -8 0 -6 6
-6 15 2 18 15 45 6 45 -15 0 -21 -27 -30 -45 -15 -10 9 -15 9 -15 1 0 -24 -29
-10 -32 16 -3 25 -8 28 -44 31 -40 2 -41 2 -36 -28 3 -23 0 -30 -12 -30 -11 0
-16 9 -16 30 0 17 -4 30 -8 30 -4 0 -8 -12 -7 -27 0 -18 -6 -29 -17 -31 -14
-3 -18 3 -18 27 0 17 -4 31 -9 31 -5 0 -5 -15 -2 -32z"/>
<path d="M855 5220 c-12 -38 29 -63 65 -40 11 7 6 8 -16 4 -19 -4 -34 -1 -38
5 -5 7 5 11 28 11 38 0 44 8 24 28 -19 19 -56 14 -63 -8z m60 0 c4 -6 -7 -10
-25 -10 -18 0 -29 4 -25 10 3 6 15 10 25 10 10 0 22 -4 25 -10z"/>
<path d="M968 5212 c3 -14 -1 -28 -9 -33 -9 -6 0 -8 26 -7 24 0 31 2 17 5 -29
6 -26 33 7 49 22 12 22 12 -11 11 -31 -1 -34 -3 -30 -25z"/>
<path d="M1168 5233 c12 -2 32 -2 45 0 12 2 2 4 -23 4 -25 0 -35 -2 -22 -4z"/>
<path d="M480 5221 c0 -5 5 -13 10 -16 6 -3 10 -2 10 4 0 5 -4 13 -10 16 -5 3
-10 2 -10 -4z"/>
<path d="M1391 5208 c0 -16 -8 -28 -18 -31 -10 -3 -2 -5 17 -6 19 0 30 3 24 7
-7 4 -14 18 -17 32 l-4 25 -2 -27z"/>
<path d="M1168 5203 c12 -2 32 -2 45 0 12 2 2 4 -23 4 -25 0 -35 -2 -22 -4z"/>
<path d="M468 5043 c7 -3 16 -2 19 1 4 3 -2 6 -13 5 -11 0 -14 -3 -6 -6z"/>
<path d="M662 5024 c-7 -8 -8 -14 -2 -14 5 0 10 -11 10 -25 0 -30 21 -41 47
-26 15 9 13 10 -9 5 -25 -6 -28 -3 -28 20 0 20 5 26 23 27 20 1 20 2 2 6 -11
3 -22 9 -25 13 -3 4 -11 2 -18 -6z"/>
<path d="M762 5024 c-7 -8 -8 -14 -2 -14 5 0 10 -11 10 -25 0 -30 21 -41 47
-26 15 9 13 10 -9 5 -25 -6 -28 -3 -28 20 0 20 5 26 23 27 20 1 20 2 2 6 -11
3 -22 9 -25 13 -3 4 -11 2 -18 -6z"/>
<path d="M555 5000 c-12 -38 29 -63 65 -40 11 7 6 8 -16 4 -19 -4 -34 -1 -38
5 -5 7 5 11 28 11 38 0 44 8 24 28 -19 19 -56 14 -63 -8z m60 0 c4 -6 -7 -10
-25 -10 -18 0 -29 4 -25 10 3 6 15 10 25 10 10 0 22 -4 25 -10z"/>
<path d="M855 5000 c-12 -38 29 -63 65 -40 11 7 6 8 -16 4 -19 -4 -34 -1 -38
5 -5 7 5 11 28 11 38 0 44 8 24 28 -19 19 -56 14 -63 -8z m60 0 c4 -6 -7 -10
-25 -10 -18 0 -29 4 -25 10 3 6 15 10 25 10 10 0 22 -4 25 -10z"/>
<path d="M968 4992 c3 -14 -1 -28 -9 -33 -9 -6 0 -8 26 -7 24 0 31 2 17 5 -29
6 -26 33 7 49 22 12 22 12 -11 11 -31 -1 -34 -3 -30 -25z"/>
<path d="M1168 5013 c12 -2 32 -2 45 0 12 2 2 4 -23 4 -25 0 -35 -2 -22 -4z"/>
<path d="M1370 5014 c43 -16 44 -17 15 -23 -44 -9 -39 -36 6 -37 35 -2 36 -1
30 30 -6 26 -12 31 -36 33 -17 1 -23 0 -15 -3z m35 -44 c-3 -5 -15 -10 -26
-10 -10 0 -19 5 -19 10 0 6 12 10 26 10 14 0 23 -4 19 -10z"/>
<path d="M1168 4983 c12 -2 32 -2 45 0 12 2 2 4 -23 4 -25 0 -35 -2 -22 -4z"/>
<path d="M478 4953 c12 -2 30 -2 40 0 9 3 -1 5 -23 4 -22 0 -30 -2 -17 -4z"/>
<path d="M868 4823 c7 -3 16 -2 19 1 4 3 -2 6 -13 5 -11 0 -14 -3 -6 -6z"/>
<path d="M962 4804 c-7 -8 -8 -14 -2 -14 5 0 10 -11 10 -25 0 -30 21 -41 47
-26 15 9 13 10 -9 5 -25 -6 -28 -3 -28 20 0 20 5 26 23 27 20 1 20 2 2 6 -11
3 -22 9 -25 13 -3 4 -11 2 -18 -6z"/>
<path d="M1362 4804 c-7 -8 -8 -14 -2 -14 5 0 10 -11 10 -25 0 -30 21 -41 47
-26 15 9 13 10 -9 5 -25 -6 -28 -3 -28 20 0 20 5 26 23 27 20 1 20 2 2 6 -11
3 -22 9 -25 13 -3 4 -11 2 -18 -6z"/>
<path d="M468 4772 c3 -14 -1 -28 -9 -33 -9 -6 0 -8 26 -7 24 0 31 2 17 5 -29
6 -26 33 7 49 22 12 22 12 -11 11 -31 -1 -34 -3 -30 -25z"/>
<path d="M555 4780 c-12 -38 29 -63 65 -40 11 7 6 8 -16 4 -19 -4 -34 -1 -38
5 -5 7 5 11 28 11 38 0 44 8 24 28 -19 19 -56 14 -63 -8z m60 0 c4 -6 -7 -10
-25 -10 -18 0 -29 4 -25 10 3 6 15 10 25 10 10 0 22 -4 25 -10z"/>
<path d="M665 4790 c-9 -15 4 -30 26 -30 10 0 19 -5 19 -11 0 -7 -10 -9 -25
-7 -14 3 -25 1 -25 -4 0 -5 12 -8 28 -6 33 4 37 32 5 36 -13 2 -23 8 -23 14 0
6 11 8 25 6 14 -3 25 -1 25 3 0 12 -47 11 -55 -1z"/>
<path d="M759 4768 c6 -28 11 -33 37 -35 28 -1 30 1 26 33 -5 40 -18 46 -17 7
0 -18 -6 -29 -17 -31 -14 -3 -18 3 -18 27 0 17 -4 31 -9 31 -5 0 -5 -15 -2
-32z"/>
<path d="M1168 4793 c12 -2 32 -2 45 0 12 2 2 4 -23 4 -25 0 -35 -2 -22 -4z"/>
<path d="M1468 4772 c3 -14 -1 -28 -9 -33 -9 -6 0 -8 26 -7 24 0 31 2 17 5
-29 6 -26 33 7 49 22 12 22 12 -11 11 -31 -1 -34 -3 -30 -25z"/>
<path d="M1559 4768 c6 -28 11 -33 37 -35 28 -1 30 1 26 33 -5 40 -18 46 -17
7 0 -18 -6 -29 -17 -31 -14 -3 -18 3 -18 27 0 17 -4 31 -9 31 -5 0 -5 -15 -2
-32z"/>
<path d="M1655 4780 c-12 -38 29 -63 65 -40 11 7 6 8 -16 4 -19 -4 -34 -1 -38
5 -5 7 5 11 28 11 38 0 44 8 24 28 -19 19 -56 14 -63 -8z m60 0 c4 -6 -7 -10
-25 -10 -18 0 -29 4 -25 10 3 6 15 10 25 10 10 0 22 -4 25 -10z"/>
<path d="M1168 4763 c12 -2 32 -2 45 0 12 2 2 4 -23 4 -25 0 -35 -2 -22 -4z"/>
<path d="M878 4733 c12 -2 30 -2 40 0 9 3 -1 5 -23 4 -22 0 -30 -2 -17 -4z"/>
<path d="M1055 4560 c0 -28 5 -50 10 -50 6 0 11 12 10 27 0 19 6 29 19 31 16
3 18 -1 14 -27 -3 -20 0 -31 7 -31 9 0 10 10 6 33 -6 25 -12 32 -29 31 -15 0
-22 5 -22 18 0 10 -3 18 -7 18 -5 0 -8 -22 -8 -50z"/>
<path d="M1268 4603 c7 -3 16 -2 19 1 4 3 -2 6 -13 5 -11 0 -14 -3 -6 -6z"/>
<path d="M1368 4603 c7 -3 16 -2 19 1 4 3 -2 6 -13 5 -11 0 -14 -3 -6 -6z"/>
<path d="M562 4584 c-7 -8 -8 -14 -2 -14 5 0 10 -11 10 -25 0 -30 21 -41 47
-26 15 9 13 10 -9 5 -25 -6 -28 -3 -28 20 0 20 5 26 23 27 20 1 20 2 2 6 -11
3 -22 9 -25 13 -3 4 -11 2 -18 -6z"/>
<path d="M465 4570 c-9 -15 4 -30 26 -30 10 0 19 -5 19 -11 0 -7 -10 -9 -25
-7 -14 3 -25 1 -25 -4 0 -5 12 -8 28 -6 33 4 37 32 5 36 -13 2 -23 8 -23 14 0
6 11 8 25 6 14 -3 25 -1 25 3 0 12 -47 11 -55 -1z"/>
<path d="M668 4552 c3 -14 -1 -28 -9 -33 -9 -6 0 -8 26 -7 24 0 31 2 17 5 -29
6 -26 33 7 49 22 12 22 12 -11 11 -31 -1 -34 -3 -30 -25z"/>
<path d="M868 4573 c12 -2 32 -2 45 0 12 2 2 4 -23 4 -25 0 -35 -2 -22 -4z"/>
<path d="M1155 4560 c-12 -38 29 -63 65 -40 11 7 6 8 -16 4 -19 -4 -34 -1 -38
5 -5 7 5 11 28 11 38 0 44 8 24 28 -19 19 -56 14 -63 -8z m60 0 c4 -6 -7 -10
-25 -10 -18 0 -29 4 -25 10 3 6 15 10 25 10 10 0 22 -4 25 -10z"/>
<path d="M1459 4564 c-17 -21 0 -49 31 -49 31 0 48 28 31 49 -8 9 -21 16 -31
16 -10 0 -23 -7 -31 -16z m56 -19 c0 -22 -31 -33 -47 -17 -17 17 -1 44 24 40
15 -2 23 -10 23 -23z"/>
<path d="M868 4543 c12 -2 32 -2 45 0 12 2 2 4 -23 4 -25 0 -35 -2 -22 -4z"/>
<path d="M1278 4513 c12 -2 30 -2 40 0 9 3 -1 5 -23 4 -22 0 -30 -2 -17 -4z"/>
<path d="M1378 4513 c12 -2 30 -2 40 0 9 3 -1 5 -23 4 -22 0 -30 -2 -17 -4z"/>
<path d="M1066 3942 c-3 -6 2 -8 13 -5 23 6 38 -15 16 -23 -14 -6 -14 -8 1
-19 22 -16 8 -38 -19 -31 -14 3 -17 2 -10 -5 6 -6 19 -9 29 -7 15 3 19 12 19
48 0 38 -3 45 -22 48 -11 2 -24 -1 -27 -6z"/>
<path d="M451 3918 c1 -17 2 -19 6 -5 8 30 23 19 23 -17 0 -19 -6 -37 -12 -39
-7 -3 1 -5 17 -5 17 0 24 2 18 5 -18 7 -17 73 1 73 8 0 17 -8 19 -17 4 -14 5
-12 6 5 1 19 -4 22 -39 22 -35 0 -40 -3 -39 -22z"/>
<path d="M559 3888 c6 -28 11 -33 37 -35 28 -1 30 1 26 33 -5 40 -18 46 -17 7
0 -18 -6 -29 -17 -31 -14 -3 -18 3 -18 27 0 17 -4 31 -9 31 -5 0 -5 -15 -2
-32z"/>
<path d="M659 3903 c-17 -20 1 -48 30 -47 27 1 28 -23 1 -29 -17 -4 -16 -4 2
-3 20 1 24 8 28 47 5 45 5 46 -22 47 -14 0 -32 -6 -39 -15z m49 -16 c4 -20
-25 -34 -40 -19 -15 15 -1 44 19 40 10 -2 19 -11 21 -21z"/>
<path d="M770 3914 c43 -16 44 -17 15 -23 -44 -9 -39 -36 6 -37 35 -2 36 -1
30 30 -6 26 -12 31 -36 33 -17 1 -23 0 -15 -3z m35 -44 c-3 -5 -15 -10 -26
-10 -10 0 -19 5 -19 10 0 6 12 10 26 10 14 0 23 -4 19 -10z"/>
<path d="M865 3910 c-9 -15 4 -30 26 -30 10 0 19 -5 19 -11 0 -7 -10 -9 -25
-7 -14 3 -25 1 -25 -4 0 -5 12 -8 28 -6 33 4 37 32 5 36 -13 2 -23 8 -23 14 0
6 11 8 25 6 14 -3 25 -1 25 3 0 12 -47 11 -55 -1z"/>
<path d="M865 3680 c0 -27 3 -50 8 -50 4 0 7 8 7 18 1 16 1 16 14 0 7 -10 19
-18 27 -18 10 1 9 4 -3 11 -10 5 -18 16 -18 24 0 8 8 19 18 24 16 10 16 10 0
11 -10 0 -18 -4 -18 -10 0 -5 -4 -10 -10 -10 -5 0 -10 11 -10 25 0 14 -3 25
-7 25 -5 0 -8 -22 -8 -50z"/>
<path d="M965 3680 c0 -27 3 -50 8 -50 4 0 7 8 7 18 1 16 1 16 14 0 7 -10 19
-18 27 -18 10 1 9 4 -3 11 -10 5 -18 16 -18 24 0 8 8 19 18 24 16 10 16 10 0
11 -10 0 -18 -4 -18 -10 0 -5 -4 -10 -10 -10 -5 0 -10 11 -10 25 0 14 -3 25
-7 25 -5 0 -8 -22 -8 -50z"/>
<path d="M445 3675 c0 -39 3 -45 20 -44 11 0 14 3 8 6 -7 2 -13 19 -12 36 0
30 1 31 11 10 6 -13 14 -23 18 -23 4 0 12 10 18 23 10 21 11 20 11 -10 1 -17
-5 -34 -11 -36 -7 -3 -4 -6 7 -6 17 -1 20 5 20 44 0 47 -18 62 -30 25 -3 -11
-10 -20 -15 -20 -5 0 -12 9 -15 20 -12 37 -30 22 -30 -25z"/>
<path d="M570 3694 c43 -16 44 -17 15 -23 -44 -9 -39 -36 6 -37 35 -2 36 -1
30 30 -6 26 -12 31 -36 33 -17 1 -23 0 -15 -3z m35 -44 c-3 -5 -15 -10 -26
-10 -10 0 -19 5 -19 10 0 6 12 10 26 10 14 0 23 -4 19 -10z"/>
<path d="M665 3690 c-9 -15 4 -30 26 -30 10 0 19 -5 19 -11 0 -7 -10 -9 -25
-7 -14 3 -25 1 -25 -4 0 -5 12 -8 28 -6 33 4 37 32 5 36 -13 2 -23 8 -23 14 0
6 11 8 25 6 14 -3 25 -1 25 3 0 12 -47 11 -55 -1z"/>
<path d="M759 3668 c6 -28 11 -33 37 -35 28 -1 30 1 26 33 -5 40 -18 46 -17 7
0 -18 -6 -29 -17 -31 -14 -3 -18 3 -18 27 0 17 -4 31 -9 31 -5 0 -5 -15 -2
-32z"/>
<path d="M1070 3694 c43 -16 44 -17 15 -23 -44 -9 -39 -36 6 -37 35 -2 36 -1
30 30 -6 26 -12 31 -36 33 -17 1 -23 0 -15 -3z m35 -44 c-3 -5 -15 -10 -26
-10 -10 0 -19 5 -19 10 0 6 12 10 26 10 14 0 23 -4 19 -10z"/>
<path d="M1155 3664 c0 -19 5 -34 10 -34 6 0 11 12 10 27 0 19 6 29 19 31 16
3 18 -1 14 -27 -3 -20 0 -31 7 -31 9 0 10 10 6 33 -6 27 -11 32 -36 34 -28 1
-30 -2 -30 -33z"/>
<path d="M1378 3693 c18 -4 22 -11 22 -43 0 -32 -4 -39 -22 -43 -20 -3 -20 -4
2 -3 23 1 25 6 28 49 3 46 2 47 -25 46 -24 -2 -24 -2 -5 -6z"/>
<path d="M1470 3694 c43 -16 44 -17 15 -23 -44 -9 -39 -36 6 -37 35 -2 36 -1
30 30 -6 26 -12 31 -36 33 -17 1 -23 0 -15 -3z m35 -44 c-3 -5 -15 -10 -26
-10 -10 0 -19 5 -19 10 0 6 12 10 26 10 14 0 23 -4 19 -10z"/>
<path d="M1545 3665 c0 -19 5 -35 11 -35 6 0 9 10 7 24 -3 13 0 27 6 30 7 5
11 -4 11 -23 0 -23 5 -31 18 -31 13 0 14 2 4 9 -16 10 -12 43 6 49 8 2 12 -7
12 -27 0 -17 4 -31 9 -31 5 0 5 15 2 32 -6 30 -11 33 -46 36 -40 2 -40 2 -40
-33z"/>
<path d="M1780 3690 c0 -5 5 -10 10 -10 6 0 10 5 10 10 0 6 -4 10 -10 10 -5 0
-10 -4 -10 -10z"/>
<path d="M1991 3668 c0 -16 -8 -28 -18 -31 -10 -3 -2 -5 17 -6 19 0 30 3 24 7
-7 4 -14 18 -17 32 l-4 25 -2 -27z"/>
<path d="M1780 3640 c0 -5 5 -10 10 -10 6 0 10 5 10 10 0 6 -4 10 -10 10 -5 0
-10 -4 -10 -10z"/>
<path d="M865 3460 c0 -27 3 -50 8 -50 4 0 7 8 7 18 1 16 1 16 14 0 7 -10 19
-18 27 -18 10 1 9 4 -3 11 -10 5 -18 16 -18 24 0 8 8 19 18 24 16 10 16 10 0
11 -10 0 -18 -4 -18 -10 0 -5 -4 -10 -10 -10 -5 0 -10 11 -10 25 0 14 -3 25
-7 25 -5 0 -8 -22 -8 -50z"/>
<path d="M965 3460 c0 -27 3 -50 8 -50 4 0 7 8 7 18 1 16 1 16 14 0 7 -10 19
-18 27 -18 10 1 9 4 -3 11 -10 5 -18 16 -18 24 0 8 8 19 18 24 16 10 16 10 0
11 -10 0 -18 -4 -18 -10 0 -5 -4 -10 -10 -10 -5 0 -10 11 -10 25 0 14 -3 25
-7 25 -5 0 -8 -22 -8 -50z"/>
<path d="M2166 3502 c-3 -6 2 -8 13 -5 23 6 38 -15 16 -23 -14 -6 -14 -8 1
-19 22 -16 8 -38 -19 -31 -14 3 -17 2 -10 -5 6 -6 19 -9 29 -7 15 3 19 12 19
48 0 38 -3 45 -22 48 -11 2 -24 -1 -27 -6z"/>
<path d="M2293 3504 c12 -4 17 -16 17 -44 0 -29 -5 -40 -17 -43 -14 -3 -13 -4
2 -3 17 1 20 8 20 46 0 37 -3 45 -20 47 -16 1 -16 1 -2 -3z"/>
<path d="M445 3455 c0 -39 3 -45 20 -44 11 0 14 3 8 6 -7 2 -13 19 -12 36 0
30 1 31 11 10 6 -13 14 -23 18 -23 4 0 12 10 18 23 10 21 11 20 11 -10 1 -17
-5 -34 -11 -36 -7 -3 -4 -6 7 -6 17 -1 20 5 20 44 0 47 -18 62 -30 25 -3 -11
-10 -20 -15 -20 -5 0 -12 9 -15 20 -12 37 -30 22 -30 -25z"/>
<path d="M1762 3484 c-7 -8 -8 -14 -2 -14 5 0 10 -11 10 -25 0 -30 21 -41 47
-26 15 9 13 10 -9 5 -25 -6 -28 -3 -28 20 0 20 5 26 23 27 20 1 20 2 2 6 -11
3 -22 9 -25 13 -3 4 -11 2 -18 -6z"/>
<path d="M2262 3460 c0 -19 2 -27 5 -17 2 9 2 25 0 35 -3 9 -5 1 -5 -18z"/>
<path d="M570 3474 c43 -16 44 -17 15 -23 -44 -9 -39 -36 6 -37 35 -2 36 -1
30 30 -6 26 -12 31 -36 33 -17 1 -23 0 -15 -3z m35 -44 c-3 -5 -15 -10 -26
-10 -10 0 -19 5 -19 10 0 6 12 10 26 10 14 0 23 -4 19 -10z"/>
<path d="M665 3470 c-9 -15 4 -30 26 -30 10 0 19 -5 19 -11 0 -7 -10 -9 -25
-7 -14 3 -25 1 -25 -4 0 -5 12 -8 28 -6 33 4 37 32 5 36 -13 2 -23 8 -23 14 0
6 11 8 25 6 14 -3 25 -1 25 3 0 12 -47 11 -55 -1z"/>
<path d="M759 3448 c6 -28 11 -33 37 -35 28 -1 30 1 26 33 -5 40 -18 46 -17 7
0 -18 -6 -29 -17 -31 -14 -3 -18 3 -18 27 0 17 -4 31 -9 31 -5 0 -5 -15 -2
-32z"/>
<path d="M1070 3474 c43 -16 44 -17 15 -23 -44 -9 -39 -36 6 -37 35 -2 36 -1
30 30 -6 26 -12 31 -36 33 -17 1 -23 0 -15 -3z m35 -44 c-3 -5 -15 -10 -26
-10 -10 0 -19 5 -19 10 0 6 12 10 26 10 14 0 23 -4 19 -10z"/>
<path d="M1155 3444 c0 -19 5 -34 10 -34 6 0 11 12 10 27 0 19 6 29 19 31 16
3 18 -1 14 -27 -3 -20 0 -31 7 -31 9 0 10 10 6 33 -6 27 -11 32 -36 34 -28 1
-30 -2 -30 -33z"/>
<path d="M1345 3445 c0 -19 5 -35 11 -35 6 0 9 10 7 24 -3 13 0 27 6 30 7 5
11 -4 11 -23 0 -23 5 -31 18 -31 13 0 14 2 4 9 -16 10 -12 43 6 49 8 2 12 -7
12 -27 0 -17 4 -31 9 -31 5 0 5 15 2 32 -6 30 -11 33 -46 36 -40 2 -40 2 -40
-33z"/>
<path d="M1455 3460 c-12 -38 29 -63 65 -40 11 7 6 8 -16 4 -19 -4 -34 -1 -38
5 -5 7 5 11 28 11 38 0 44 8 24 28 -19 19 -56 14 -63 -8z m60 0 c4 -6 -7 -10
-25 -10 -18 0 -29 4 -25 10 3 6 15 10 25 10 10 0 22 -4 25 -10z"/>
<path d="M1555 3444 c0 -19 5 -34 10 -34 6 0 11 12 10 27 0 19 6 29 19 31 16
3 18 -1 14 -27 -3 -20 0 -31 7 -31 9 0 10 10 6 33 -6 27 -11 32 -36 34 -28 1
-30 -2 -30 -33z"/>
<path d="M1668 3473 c7 -3 16 -2 19 1 4 3 -2 6 -13 5 -11 0 -14 -3 -6 -6z"/>
<path d="M1980 3470 c0 -5 5 -10 10 -10 6 0 10 5 10 10 0 6 -4 10 -10 10 -5 0
-10 -4 -10 -10z"/>
<path d="M1980 3420 c0 -5 5 -10 10 -10 6 0 10 5 10 10 0 6 -4 10 -10 10 -5 0
-10 -4 -10 -10z"/>
<path d="M1678 3413 c12 -2 30 -2 40 0 9 3 -1 5 -23 4 -22 0 -30 -2 -17 -4z"/>
<path d="M865 3240 c0 -27 3 -50 8 -50 4 0 7 8 7 18 1 16 1 16 14 0 7 -10 19
-18 27 -18 10 1 9 4 -3 11 -10 5 -18 16 -18 24 0 8 8 19 18 24 16 10 16 10 0
11 -10 0 -18 -4 -18 -10 0 -5 -4 -10 -10 -10 -5 0 -10 11 -10 25 0 14 -3 25
-7 25 -5 0 -8 -22 -8 -50z"/>
<path d="M965 3240 c0 -27 3 -50 8 -50 4 0 7 8 7 18 1 16 1 16 14 0 7 -10 19
-18 27 -18 10 1 9 4 -3 11 -10 5 -18 16 -18 24 0 8 8 19 18 24 16 10 16 10 0
11 -10 0 -18 -4 -18 -10 0 -5 -4 -10 -10 -10 -5 0 -10 11 -10 25 0 14 -3 25
-7 25 -5 0 -8 -22 -8 -50z"/>
<path d="M1765 3240 c0 -27 3 -50 8 -50 4 0 7 8 7 18 1 16 1 16 14 0 7 -10 19
-18 27 -18 10 1 9 4 -3 11 -10 5 -18 16 -18 24 0 8 8 19 18 24 16 10 16 10 0
11 -10 0 -18 -4 -18 -10 0 -5 -4 -10 -10 -10 -5 0 -10 11 -10 25 0 14 -3 25
-7 25 -5 0 -8 -22 -8 -50z"/>
<path d="M2177 3261 c-22 -37 -21 -41 3 -41 22 0 27 -15 8 -23 -7 -3 -4 -6 8
-6 16 -1 20 4 18 22 -1 12 -3 34 -3 50 -1 35 -12 34 -34 -2z m23 -11 c0 -11
-7 -20 -15 -20 -13 0 -14 4 -5 20 6 11 13 20 15 20 3 0 5 -9 5 -20z"/>
<path d="M2293 3284 c12 -4 17 -16 17 -44 0 -29 -5 -40 -17 -43 -14 -3 -13 -4
2 -3 17 1 20 8 20 46 0 37 -3 45 -20 47 -16 1 -16 1 -2 -3z"/>
<path d="M445 3235 c0 -39 3 -45 20 -44 11 0 14 3 8 6 -7 2 -13 19 -12 36 0
30 1 31 11 10 6 -13 14 -23 18 -23 4 0 12 10 18 23 10 21 11 20 11 -10 1 -17
-5 -34 -11 -36 -7 -3 -4 -6 7 -6 17 -1 20 5 20 44 0 47 -18 62 -30 25 -3 -11
-10 -20 -15 -20 -5 0 -12 9 -15 20 -12 37 -30 22 -30 -25z"/>
<path d="M1562 3264 c-7 -8 -8 -14 -2 -14 5 0 10 -11 10 -25 0 -30 21 -41 47
-26 15 9 13 10 -9 5 -25 -6 -28 -3 -28 20 0 20 5 26 23 27 20 1 20 2 2 6 -11
3 -22 9 -25 13 -3 4 -11 2 -18 -6z"/>
<path d="M2262 3240 c0 -19 2 -27 5 -17 2 9 2 25 0 35 -3 9 -5 1 -5 -18z"/>
<path d="M570 3254 c43 -16 44 -17 15 -23 -44 -9 -39 -36 6 -37 35 -2 36 -1
30 30 -6 26 -12 31 -36 33 -17 1 -23 0 -15 -3z m35 -44 c-3 -5 -15 -10 -26
-10 -10 0 -19 5 -19 10 0 6 12 10 26 10 14 0 23 -4 19 -10z"/>
<path d="M665 3250 c-9 -15 4 -30 26 -30 10 0 19 -5 19 -11 0 -7 -10 -9 -25
-7 -14 3 -25 1 -25 -4 0 -5 12 -8 28 -6 33 4 37 32 5 36 -13 2 -23 8 -23 14 0
6 11 8 25 6 14 -3 25 -1 25 3 0 12 -47 11 -55 -1z"/>
<path d="M759 3228 c6 -28 11 -33 37 -35 28 -1 30 1 26 33 -5 40 -18 46 -17 7
0 -18 -6 -29 -17 -31 -14 -3 -18 3 -18 27 0 17 -4 31 -9 31 -5 0 -5 -15 -2
-32z"/>
<path d="M1070 3254 c43 -16 44 -17 15 -23 -44 -9 -39 -36 6 -37 35 -2 36 -1
30 30 -6 26 -12 31 -36 33 -17 1 -23 0 -15 -3z m35 -44 c-3 -5 -15 -10 -26
-10 -10 0 -19 5 -19 10 0 6 12 10 26 10 14 0 23 -4 19 -10z"/>
<path d="M1155 3224 c0 -19 5 -34 10 -34 6 0 11 12 10 27 0 19 6 29 19 31 16
3 18 -1 14 -27 -3 -20 0 -31 7 -31 9 0 10 10 6 33 -6 27 -11 32 -36 34 -28 1
-30 -2 -30 -33z"/>
<path d="M1359 3244 c-20 -24 1 -49 44 -50 28 -1 33 2 24 11 -8 9 -16 10 -24
3 -17 -13 -43 -3 -43 17 0 21 27 30 45 15 9 -7 15 -8 15 -2 0 9 -22 22 -40 22
-4 0 -13 -7 -21 -16z"/>
<path d="M1455 3240 c-12 -38 29 -63 65 -40 11 7 6 8 -16 4 -19 -4 -34 -1 -38
5 -5 7 5 11 28 11 38 0 44 8 24 28 -19 19 -56 14 -63 -8z m60 0 c4 -6 -7 -10
-25 -10 -18 0 -29 4 -25 10 3 6 15 10 25 10 10 0 22 -4 25 -10z"/>
<path d="M1668 3253 c7 -3 16 -2 19 1 4 3 -2 6 -13 5 -11 0 -14 -3 -6 -6z"/>
<path d="M1980 3250 c0 -5 5 -10 10 -10 6 0 10 5 10 10 0 6 -4 10 -10 10 -5 0
-10 -4 -10 -10z"/>
<path d="M1980 3200 c0 -5 5 -10 10 -10 6 0 10 5 10 10 0 6 -4 10 -10 10 -5 0
-10 -4 -10 -10z"/>
<path d="M1678 3193 c12 -2 30 -2 40 0 9 3 -1 5 -23 4 -22 0 -30 -2 -17 -4z"/>
<path d="M2365 3020 c0 -27 3 -50 8 -50 4 0 7 8 7 18 1 16 1 16 14 0 7 -10 19
-18 27 -18 10 1 9 4 -3 11 -10 5 -18 16 -18 24 0 8 8 19 18 24 16 10 16 10 0
11 -10 0 -18 -4 -18 -10 0 -5 -4 -10 -10 -10 -5 0 -10 11 -10 25 0 14 -3 25
-7 25 -5 0 -8 -22 -8 -50z"/>
<path d="M2465 3020 c0 -27 3 -50 8 -50 4 0 7 8 7 18 1 16 1 16 14 0 7 -10 19
-18 27 -18 10 1 9 4 -3 11 -10 5 -18 16 -18 24 0 8 8 19 18 24 16 10 16 10 0
11 -10 0 -18 -4 -18 -10 0 -5 -4 -10 -10 -10 -5 0 -10 11 -10 25 0 14 -3 25
-7 25 -5 0 -8 -22 -8 -50z"/>
<path d="M662 3044 c-7 -8 -8 -14 -2 -14 5 0 10 -11 10 -25 0 -30 21 -41 47
-26 15 9 13 10 -9 5 -25 -6 -28 -3 -28 20 0 20 5 26 23 27 20 1 20 2 2 6 -11
3 -22 9 -25 13 -3 4 -11 2 -18 -6z"/>
<path d="M459 3024 c-20 -24 1 -49 44 -50 28 -1 33 2 24 11 -8 9 -16 10 -24 3
-17 -13 -43 -3 -43 17 0 21 27 30 45 15 9 -7 15 -8 15 -2 0 9 -22 22 -40 22
-4 0 -13 -7 -21 -16z"/>
<path d="M570 3034 c43 -16 44 -17 15 -23 -44 -9 -39 -36 6 -37 35 -2 36 -1
30 30 -6 26 -12 31 -36 33 -17 1 -23 0 -15 -3z m35 -44 c-3 -5 -15 -10 -26
-10 -10 0 -19 5 -19 10 0 6 12 10 26 10 14 0 23 -4 19 -10z"/>
<path d="M770 3034 c43 -16 44 -17 15 -23 -44 -9 -39 -36 6 -37 35 -2 36 -1
30 30 -6 26 -12 31 -36 33 -17 1 -23 0 -15 -3z m35 -44 c-3 -5 -15 -10 -26
-10 -10 0 -19 5 -19 10 0 6 12 10 26 10 14 0 23 -4 19 -10z"/>
<path d="M969 3006 c26 -42 26 -45 -1 -56 -22 -8 -22 -9 5 -9 16 -1 26 3 23 7
-3 5 6 27 19 50 20 35 21 42 8 42 -9 0 -13 -3 -10 -6 3 -4 1 -16 -5 -27 -10
-20 -11 -20 -24 -2 -7 10 -11 22 -8 26 3 5 -2 9 -11 9 -15 0 -14 -4 4 -34z"/>
<path d="M1070 3034 c43 -16 44 -17 15 -23 -44 -9 -39 -36 6 -37 35 -2 36 -1
30 30 -6 26 -12 31 -36 33 -17 1 -23 0 -15 -3z m35 -44 c-3 -5 -15 -10 -26
-10 -10 0 -19 5 -19 10 0 6 12 10 26 10 14 0 23 -4 19 -10z"/>
<path d="M1155 3004 c0 -19 5 -34 10 -34 6 0 11 12 10 27 0 19 6 29 19 31 16
3 18 -1 14 -27 -3 -20 0 -31 7 -31 9 0 10 10 6 33 -6 27 -11 32 -36 34 -28 1
-30 -2 -30 -33z"/>
<path d="M1259 3023 c-17 -20 1 -48 30 -47 27 1 28 -23 1 -29 -17 -4 -16 -4 2
-3 20 1 24 8 28 47 5 45 5 46 -22 47 -14 0 -32 -6 -39 -15z m49 -16 c4 -20
-25 -34 -40 -19 -15 15 -1 44 19 40 10 -2 19 -11 21 -21z"/>
<path d="M1470 3034 c43 -16 44 -17 15 -23 -44 -9 -39 -36 6 -37 35 -2 36 -1
30 30 -6 26 -12 31 -36 33 -17 1 -23 0 -15 -3z m35 -44 c-3 -5 -15 -10 -26
-10 -10 0 -19 5 -19 10 0 6 12 10 26 10 14 0 23 -4 19 -10z"/>
<path d="M1555 3004 c0 -19 5 -34 10 -34 6 0 11 12 10 27 0 19 6 29 19 31 16
3 18 -1 14 -27 -3 -20 0 -31 7 -31 9 0 10 10 6 33 -6 27 -11 32 -36 34 -28 1
-30 -2 -30 -33z"/>
<path d="M1659 3024 c-20 -24 1 -49 44 -50 28 -1 33 2 24 11 -8 9 -16 10 -24
3 -17 -13 -43 -3 -43 17 0 21 27 30 45 15 9 -7 15 -8 15 -2 0 9 -22 22 -40 22
-4 0 -13 -7 -21 -16z"/>
<path d="M1770 3034 c43 -16 44 -17 15 -23 -44 -9 -39 -36 6 -37 35 -2 36 -1
30 30 -6 26 -12 31 -36 33 -17 1 -23 0 -15 -3z m35 -44 c-3 -5 -15 -10 -26
-10 -10 0 -19 5 -19 10 0 6 12 10 26 10 14 0 23 -4 19 -10z"/>
<path d="M1945 3005 c0 -19 5 -35 11 -35 6 0 9 10 7 24 -3 13 0 27 6 30 7 5
11 -4 11 -23 0 -23 5 -31 18 -31 13 0 14 2 4 9 -16 10 -12 43 6 49 8 2 12 -7
12 -27 0 -17 4 -31 9 -31 5 0 5 15 2 32 -6 30 -11 33 -46 36 -40 2 -40 2 -40
-33z"/>
<path d="M2070 3034 c43 -16 44 -17 15 -23 -44 -9 -39 -36 6 -37 35 -2 36 -1
30 30 -6 26 -12 31 -36 33 -17 1 -23 0 -15 -3z m35 -44 c-3 -5 -15 -10 -26
-10 -10 0 -19 5 -19 10 0 6 12 10 26 10 14 0 23 -4 19 -10z"/>
<path d="M2165 3030 c-9 -15 4 -30 26 -30 10 0 19 -5 19 -11 0 -7 -10 -9 -25
-7 -14 3 -25 1 -25 -4 0 -5 12 -8 28 -6 33 4 37 32 5 36 -13 2 -23 8 -23 14 0
6 11 8 25 6 14 -3 25 -1 25 3 0 12 -47 11 -55 -1z"/>
<path d="M2259 3008 c6 -28 11 -33 37 -35 28 -1 30 1 26 33 -5 40 -18 46 -17
7 0 -18 -6 -29 -17 -31 -14 -3 -18 3 -18 27 0 17 -4 31 -9 31 -5 0 -5 -15 -2
-32z"/>
<path d="M2570 3034 c43 -16 44 -17 15 -23 -44 -9 -39 -36 6 -37 35 -2 36 -1
30 30 -6 26 -12 31 -36 33 -17 1 -23 0 -15 -3z m35 -44 c-3 -5 -15 -10 -26
-10 -10 0 -19 5 -19 10 0 6 12 10 26 10 14 0 23 -4 19 -10z"/>
<path d="M2655 3004 c0 -19 5 -34 10 -34 6 0 11 12 10 27 0 19 6 29 19 31 16
3 18 -1 14 -27 -3 -20 0 -31 7 -31 9 0 10 10 6 33 -6 27 -11 32 -36 34 -28 1
-30 -2 -30 -33z"/>
<path d="M2880 3030 c0 -5 5 -10 10 -10 6 0 10 5 10 10 0 6 -4 10 -10 10 -5 0
-10 -4 -10 -10z"/>
<path d="M2880 2980 c0 -5 5 -10 10 -10 6 0 10 5 10 10 0 6 -4 10 -10 10 -5 0
-10 -4 -10 -10z"/>
<path d="M493 2833 c11 -3 17 -14 17 -34 0 -37 -27 -50 -48 -23 -8 10 -12 13
-10 5 14 -47 68 -31 68 19 0 16 6 31 13 33 6 3 -4 5 -23 5 -19 0 -27 -2 -17
-5z"/>
<path d="M567 2834 c7 -3 9 -13 6 -22 -4 -15 -3 -15 6 -2 10 13 12 13 21 0 7
-12 4 -16 -13 -18 -13 -2 -28 -12 -35 -22 -11 -18 -9 -20 10 -20 18 0 20 2 8
10 -12 8 -12 10 3 16 9 3 25 3 34 0 15 -6 15 -8 3 -16 -11 -7 -1 -10 30 -9 25
0 39 3 33 6 -7 2 -13 19 -12 36 0 30 1 31 11 10 6 -13 14 -23 18 -23 4 0 12
10 18 23 10 21 11 20 11 -10 1 -17 -5 -34 -11 -36 -7 -3 -4 -6 7 -6 17 -1 20
5 20 44 0 47 -18 62 -30 25 -3 -11 -10 -20 -15 -20 -5 0 -12 9 -15 20 -12 37
-31 23 -27 -20 3 -25 0 -40 -7 -40 -6 0 -18 18 -27 40 -12 30 -22 40 -38 39
-11 0 -16 -3 -9 -5z"/>
<path d="M1068 2813 c12 -2 32 -2 45 0 12 2 2 4 -23 4 -25 0 -35 -2 -22 -4z"/>
<path d="M1291 2788 c0 -16 -8 -28 -18 -31 -10 -3 -2 -5 17 -6 19 0 30 3 24 7
-7 4 -14 18 -17 32 l-4 25 -2 -27z"/>
<path d="M1068 2783 c12 -2 32 -2 45 0 12 2 2 4 -23 4 -25 0 -35 -2 -22 -4z"/>
<path d="M1266 2622 c-3 -6 2 -8 13 -5 23 6 38 -15 16 -23 -14 -6 -14 -8 1
-19 22 -16 8 -38 -19 -31 -14 3 -17 2 -10 -5 6 -6 19 -9 29 -7 15 3 19 12 19
48 0 38 -3 45 -22 48 -11 2 -24 -1 -27 -6z"/>
<path d="M1393 2624 c12 -4 17 -16 17 -44 0 -29 -5 -40 -17 -43 -14 -3 -13 -4
2 -3 17 1 20 8 20 46 0 37 -3 45 -20 47 -16 1 -16 1 -2 -3z"/>
<path d="M445 2575 c0 -39 3 -45 20 -44 11 0 14 3 8 6 -7 2 -13 19 -12 36 0
30 1 31 11 10 6 -13 14 -23 18 -23 4 0 12 10 18 23 10 21 11 20 11 -10 1 -17
-5 -34 -11 -36 -7 -3 -4 -6 7 -6 17 -1 20 5 20 44 0 47 -18 62 -30 25 -3 -11
-10 -20 -15 -20 -5 0 -12 9 -15 20 -12 37 -30 22 -30 -25z"/>
<path d="M555 2575 l0 -45 38 0 c20 0 37 4 37 8 0 5 -13 7 -30 4 -23 -3 -30 0
-30 13 0 11 5 15 15 11 9 -3 15 0 15 9 0 9 -6 12 -15 9 -9 -4 -15 0 -15 9 0 9
11 17 28 20 23 3 22 4 -8 6 l-35 1 0 -45z"/>
<path d="M655 2575 c0 -25 5 -45 10 -45 13 0 13 82 0 87 -6 2 -10 -17 -10 -42z"/>
<path d="M705 2581 c0 -22 4 -43 8 -47 4 -4 7 11 7 34 0 23 5 42 13 45 6 3 3
6 -8 6 -17 1 -20 -5 -20 -38z"/>
<path d="M773 2613 c9 -2 25 -2 35 0 9 3 1 5 -18 5 -19 0 -27 -2 -17 -5z"/>
<path d="M851 2598 c1 -17 2 -19 6 -5 8 30 23 19 23 -17 0 -19 -6 -37 -12 -39
-7 -3 1 -5 17 -5 17 0 24 2 18 5 -18 7 -17 73 1 73 8 0 17 -8 19 -17 4 -14 5
-12 6 5 1 19 -4 22 -39 22 -35 0 -40 -3 -39 -22z"/>
<path d="M1362 2580 c0 -19 2 -27 5 -17 2 9 2 25 0 35 -3 9 -5 1 -5 -18z"/>
<path d="M1068 2593 c12 -2 32 -2 45 0 12 2 2 4 -23 4 -25 0 -35 -2 -22 -4z"/>
<path d="M680 2581 c0 -5 5 -13 10 -16 6 -3 10 -2 10 4 0 5 -4 13 -10 16 -5 3
-10 2 -10 -4z"/>
<path d="M1068 2563 c12 -2 32 -2 45 0 12 2 2 4 -23 4 -25 0 -35 -2 -22 -4z"/>
<path d="M773 2533 c9 -2 25 -2 35 0 9 3 1 5 -18 5 -19 0 -27 -2 -17 -5z"/>
<path d="M1860 2386 c0 -19 6 -25 29 -28 17 -2 28 -1 25 4 -3 4 -14 8 -25 8
-30 0 -23 28 9 33 25 4 25 4 -5 6 -29 1 -33 -2 -33 -23z"/>
<path d="M1977 2381 c-22 -37 -21 -41 3 -41 22 0 27 -15 8 -23 -7 -3 -4 -6 8
-6 16 -1 20 4 18 22 -1 12 -3 34 -3 50 -1 35 -12 34 -34 -2z m23 -11 c0 -11
-7 -20 -15 -20 -13 0 -14 4 -5 20 6 11 13 20 15 20 3 0 5 -9 5 -20z"/>
<path d="M2077 2381 c-22 -37 -21 -41 3 -41 22 0 27 -15 8 -23 -7 -3 -4 -6 8
-6 16 -1 20 4 18 22 -1 12 -3 34 -3 50 -1 35 -12 34 -34 -2z m23 -11 c0 -11
-7 -20 -15 -20 -13 0 -14 4 -5 20 6 11 13 20 15 20 3 0 5 -9 5 -20z"/>
<path d="M2193 2404 c12 -4 17 -16 17 -44 0 -29 -5 -40 -17 -43 -14 -3 -13 -4
2 -3 17 1 20 8 20 46 0 37 -3 45 -20 47 -16 1 -16 1 -2 -3z"/>
<path d="M451 2378 c1 -17 2 -19 6 -5 8 30 23 19 23 -17 0 -19 -6 -37 -12 -39
-7 -3 1 -5 17 -5 17 0 24 2 18 5 -18 7 -17 73 1 73 8 0 17 -8 19 -17 4 -14 5
-12 6 5 1 19 -4 22 -39 22 -35 0 -40 -3 -39 -22z"/>
<path d="M560 2386 c-28 -34 11 -93 47 -70 9 6 19 17 21 25 2 8 -2 6 -10 -5
-20 -26 -58 -13 -58 19 0 32 38 45 57 19 7 -10 13 -13 13 -8 0 31 -49 44 -70
20z"/>
<path d="M651 2378 c1 -17 2 -19 6 -5 8 30 23 19 23 -17 0 -19 -6 -37 -12 -39
-7 -3 1 -5 17 -5 17 0 24 2 18 5 -18 7 -17 73 1 73 8 0 17 -8 19 -17 4 -14 5
-12 6 5 1 19 -4 22 -39 22 -35 0 -40 -3 -39 -22z"/>
<path d="M767 2394 c7 -3 9 -13 6 -22 -4 -15 -3 -15 6 -2 10 13 12 13 21 0 7
-12 4 -16 -13 -18 -13 -2 -28 -12 -35 -22 -11 -18 -9 -20 10 -20 18 0 20 2 8
10 -12 8 -12 10 3 16 9 3 25 3 34 0 15 -6 15 -8 3 -16 -10 -7 7 -10 53 -10 63
0 67 1 66 23 -1 16 -2 18 -6 5 -2 -10 -13 -18 -24 -18 -15 0 -19 7 -19 34 0
19 6 37 13 39 6 3 -1 5 -18 5 -16 0 -24 -2 -17 -5 6 -2 12 -20 12 -39 0 -27
-4 -34 -20 -34 -14 0 -25 12 -36 40 -12 30 -22 40 -38 39 -11 0 -16 -3 -9 -5z"/>
<path d="M1055 2355 c0 -42 2 -45 26 -45 26 0 49 16 49 35 0 5 -5 2 -11 -7 -5
-10 -19 -18 -29 -18 -16 0 -20 7 -20 35 0 28 4 35 20 35 10 0 24 -8 29 -17 6
-10 11 -13 11 -7 0 18 -23 34 -49 34 -24 0 -26 -3 -26 -45z"/>
<path d="M1155 2355 l0 -45 38 0 c20 0 37 4 37 8 0 5 -13 7 -30 4 -23 -3 -30
0 -30 13 0 11 5 15 15 11 9 -3 15 0 15 9 0 9 -6 12 -15 9 -9 -4 -15 0 -15 9 0
9 11 17 28 20 23 3 22 4 -8 6 l-35 1 0 -45z"/>
<path d="M1251 2378 c1 -17 2 -19 6 -5 8 30 23 19 23 -17 0 -19 -6 -37 -12
-39 -7 -3 1 -5 17 -5 17 0 24 2 18 5 -18 7 -17 73 1 73 8 0 17 -8 19 -17 4
-14 5 -12 6 5 1 19 -4 22 -39 22 -35 0 -40 -3 -39 -22z"/>
<path d="M1373 2393 c9 -2 25 -2 35 0 9 3 1 5 -18 5 -19 0 -27 -2 -17 -5z"/>
<path d="M1455 2355 c0 -38 3 -45 20 -45 15 0 17 2 6 9 -9 6 -11 16 -7 27 7
17 9 17 30 -8 12 -16 25 -28 29 -28 4 0 -4 12 -18 27 l-25 28 22 17 c14 10 17
18 10 18 -8 0 -22 -10 -33 -22 -15 -19 -18 -20 -19 -6 0 9 6 19 13 21 6 3 3 6
-8 6 -17 1 -20 -5 -20 -44z"/>
<path d="M2162 2360 c0 -19 2 -27 5 -17 2 9 2 25 0 35 -3 9 -5 1 -5 -18z"/>
<path d="M1668 2373 c12 -2 32 -2 45 0 12 2 2 4 -23 4 -25 0 -35 -2 -22 -4z"/>
<path d="M1668 2343 c12 -2 32 -2 45 0 12 2 2 4 -23 4 -25 0 -35 -2 -22 -4z"/>
<path d="M1867 2318 c2 -5 13 -8 23 -8 10 0 21 3 23 8 3 4 -8 7 -23 7 -15 0
-26 -3 -23 -7z"/>
<path d="M1373 2313 c9 -2 25 -2 35 0 9 3 1 5 -18 5 -19 0 -27 -2 -17 -5z"/>
<path d="M1077 1721 c-22 -37 -21 -41 3 -41 22 0 27 -15 8 -23 -7 -3 -4 -6 8
-6 16 -1 20 4 18 22 -1 12 -3 34 -3 50 -1 35 -12 34 -34 -2z m23 -11 c0 -11
-7 -20 -15 -20 -13 0 -14 4 -5 20 6 11 13 20 15 20 3 0 5 -9 5 -20z"/>
<path d="M451 1718 c1 -17 2 -19 6 -5 8 30 23 19 23 -17 0 -19 -6 -37 -12 -39
-7 -3 1 -5 17 -5 17 0 24 2 18 5 -18 7 -17 73 1 73 8 0 17 -8 19 -17 4 -14 5
-12 6 5 1 19 -4 22 -39 22 -35 0 -40 -3 -39 -22z"/>
<path d="M559 1688 c6 -28 11 -33 37 -35 28 -1 30 1 26 33 -5 40 -18 46 -17 7
0 -18 -6 -29 -17 -31 -14 -3 -18 3 -18 27 0 17 -4 31 -9 31 -5 0 -5 -15 -2
-32z"/>
<path d="M659 1703 c-17 -20 1 -48 30 -47 27 1 28 -23 1 -29 -17 -4 -16 -4 2
-3 20 1 24 8 28 47 5 45 5 46 -22 47 -14 0 -32 -6 -39 -15z m49 -16 c4 -20
-25 -34 -40 -19 -15 15 -1 44 19 40 10 -2 19 -11 21 -21z"/>
<path d="M770 1714 c43 -16 44 -17 15 -23 -44 -9 -39 -36 6 -37 35 -2 36 -1
30 30 -6 26 -12 31 -36 33 -17 1 -23 0 -15 -3z m35 -44 c-3 -5 -15 -10 -26
-10 -10 0 -19 5 -19 10 0 6 12 10 26 10 14 0 23 -4 19 -10z"/>
<path d="M865 1710 c-9 -15 4 -30 26 -30 10 0 19 -5 19 -11 0 -7 -10 -9 -25
-7 -14 3 -25 1 -25 -4 0 -5 12 -8 28 -6 33 4 37 32 5 36 -13 2 -23 8 -23 14 0
6 11 8 25 6 14 -3 25 -1 25 3 0 12 -47 11 -55 -1z"/>
<path d="M493 1513 c11 -3 17 -14 17 -34 0 -37 -27 -50 -48 -23 -8 10 -12 13
-10 5 14 -47 68 -31 68 19 0 16 6 31 13 33 6 3 -4 5 -23 5 -19 0 -27 -2 -17
-5z"/>
<path d="M570 1494 c43 -16 44 -17 15 -23 -44 -9 -39 -36 6 -37 35 -2 36 -1
30 30 -6 26 -12 31 -36 33 -17 1 -23 0 -15 -3z m35 -44 c-3 -5 -15 -10 -26
-10 -10 0 -19 5 -19 10 0 6 12 10 26 10 14 0 23 -4 19 -10z"/>
<path d="M645 1490 c4 -6 11 -8 16 -5 14 9 11 15 -7 15 -8 0 -12 -5 -9 -10z"/>
<path d="M715 1490 c4 -6 11 -8 16 -5 14 9 11 15 -7 15 -8 0 -12 -5 -9 -10z"/>
<path d="M770 1494 c43 -16 44 -17 15 -23 -44 -9 -39 -36 6 -37 35 -2 36 -1
30 30 -6 26 -12 31 -36 33 -17 1 -23 0 -15 -3z m35 -44 c-3 -5 -15 -10 -26
-10 -10 0 -19 5 -19 10 0 6 12 10 26 10 14 0 23 -4 19 -10z"/>
<path d="M873 1493 c-7 -2 -13 -9 -13 -15 0 -6 6 -6 15 2 18 15 45 6 45 -15 0
-20 -26 -30 -43 -17 -8 7 -16 6 -24 -3 -9 -9 -4 -12 24 -11 43 1 64 26 44 50
-14 16 -26 19 -48 9z"/>
<path d="M970 1494 c43 -16 44 -17 15 -23 -44 -9 -39 -36 6 -37 35 -2 36 -1
30 30 -6 26 -12 31 -36 33 -17 1 -23 0 -15 -3z m35 -44 c-3 -5 -15 -10 -26
-10 -10 0 -19 5 -19 10 0 6 12 10 26 10 14 0 23 -4 19 -10z"/>
<path d="M1055 1464 c0 -19 5 -34 10 -34 6 0 11 12 10 27 0 19 6 29 19 31 16
3 18 -1 14 -27 -3 -20 0 -31 7 -31 9 0 10 10 6 33 -6 27 -11 32 -36 34 -28 1
-30 -2 -30 -33z"/>
<path d="M680 1470 c0 -5 5 -10 10 -10 6 0 10 5 10 10 0 6 -4 10 -10 10 -5 0
-10 -4 -10 -10z"/>
<path d="M660 1458 c0 -9 5 -20 10 -23 13 -8 13 5 0 25 -8 13 -10 13 -10 -2z"/>
<path d="M707 1464 c-4 -4 -7 -14 -7 -23 0 -11 3 -12 11 -4 6 6 10 16 7 23 -2
6 -7 8 -11 4z"/>
<path d="M865 1260 c0 -27 3 -50 8 -50 4 0 7 8 7 18 1 16 1 16 14 0 7 -10 19
-18 27 -18 10 1 9 4 -3 11 -10 5 -18 16 -18 24 0 8 8 19 18 24 16 10 16 10 0
11 -10 0 -18 -4 -18 -10 0 -5 -4 -10 -10 -10 -5 0 -10 11 -10 25 0 14 -3 25
-7 25 -5 0 -8 -22 -8 -50z"/>
<path d="M965 1260 c0 -27 3 -50 8 -50 4 0 7 8 7 18 1 16 1 16 14 0 7 -10 19
-18 27 -18 10 1 9 4 -3 11 -10 5 -18 16 -18 24 0 8 8 19 18 24 16 10 16 10 0
11 -10 0 -18 -4 -18 -10 0 -5 -4 -10 -10 -10 -5 0 -10 11 -10 25 0 14 -3 25
-7 25 -5 0 -8 -22 -8 -50z"/>
<path d="M1565 1260 c0 -27 3 -50 8 -50 4 0 7 8 7 18 1 16 1 16 14 0 7 -10 19
-18 27 -18 10 1 9 4 -3 11 -10 5 -18 16 -18 24 0 8 8 19 18 24 16 10 16 10 0
11 -10 0 -18 -4 -18 -10 0 -5 -4 -10 -10 -10 -5 0 -10 11 -10 25 0 14 -3 25
-7 25 -5 0 -8 -22 -8 -50z"/>
<path d="M3055 1260 c0 -28 5 -50 10 -50 6 0 11 12 10 27 0 19 6 29 19 31 16
3 18 -1 14 -27 -3 -20 0 -31 7 -31 9 0 10 10 6 33 -6 25 -12 32 -29 31 -15 0
-22 5 -22 18 0 10 -3 18 -7 18 -5 0 -8 -22 -8 -50z"/>
<path d="M3165 1260 c0 -27 3 -50 8 -50 4 0 7 8 7 18 1 16 1 16 14 0 7 -10 19
-18 27 -18 10 1 9 4 -3 11 -10 5 -18 16 -18 24 0 8 8 19 18 24 16 10 16 10 0
11 -10 0 -18 -4 -18 -10 0 -5 -4 -10 -10 -10 -5 0 -10 11 -10 25 0 14 -3 25
-7 25 -5 0 -8 -22 -8 -50z"/>
<path d="M3600 1291 c-14 -28 -12 -64 5 -87 13 -17 13 -16 3 14 -9 24 -10 39
-1 62 13 34 9 40 -7 11z"/>
<path d="M4372 1283 c10 -26 10 -40 0 -65 -10 -30 -10 -31 3 -14 8 11 15 32
15 46 0 14 -7 35 -15 46 -13 17 -13 16 -3 -13z"/>
<path d="M4666 1302 c-3 -6 2 -8 13 -5 23 6 38 -15 16 -23 -14 -6 -14 -8 1
-19 22 -16 8 -38 -19 -31 -14 3 -17 2 -10 -5 6 -6 19 -9 29 -7 15 3 19 12 19
48 0 38 -3 45 -22 48 -11 2 -24 -1 -27 -6z"/>
<path d="M445 1255 c0 -39 3 -45 20 -44 11 0 14 3 8 6 -7 2 -13 19 -12 36 0
30 1 31 11 10 6 -13 14 -23 18 -23 4 0 12 10 18 23 10 21 11 20 11 -10 1 -17
-5 -34 -11 -36 -7 -3 -4 -6 7 -6 17 -1 20 5 20 44 0 47 -18 62 -30 25 -3 -11
-10 -20 -15 -20 -5 0 -12 9 -15 20 -12 37 -30 22 -30 -25z"/>
<path d="M1662 1284 c-7 -8 -8 -14 -2 -14 5 0 10 -11 10 -25 0 -30 21 -41 47
-26 15 9 13 10 -9 5 -25 -6 -28 -3 -28 20 0 20 5 26 23 27 20 1 20 2 2 6 -11
3 -22 9 -25 13 -3 4 -11 2 -18 -6z"/>
<path d="M2862 1284 c-7 -8 -8 -14 -2 -14 5 0 10 -11 10 -25 0 -30 21 -41 47
-26 15 9 13 10 -9 5 -25 -6 -28 -3 -28 20 0 20 5 26 23 27 20 1 20 2 2 6 -11
3 -22 9 -25 13 -3 4 -11 2 -18 -6z"/>
<path d="M570 1274 c43 -16 44 -17 15 -23 -44 -9 -39 -36 6 -37 35 -2 36 -1
30 30 -6 26 -12 31 -36 33 -17 1 -23 0 -15 -3z m35 -44 c-3 -5 -15 -10 -26
-10 -10 0 -19 5 -19 10 0 6 12 10 26 10 14 0 23 -4 19 -10z"/>
<path d="M665 1270 c-9 -15 4 -30 26 -30 10 0 19 -5 19 -11 0 -7 -10 -9 -25
-7 -14 3 -25 1 -25 -4 0 -5 12 -8 28 -6 33 4 37 32 5 36 -13 2 -23 8 -23 14 0
6 11 8 25 6 14 -3 25 -1 25 3 0 12 -47 11 -55 -1z"/>
<path d="M759 1248 c6 -28 11 -33 37 -35 28 -1 30 1 26 33 -5 40 -18 46 -17 7
0 -18 -6 -29 -17 -31 -14 -3 -18 3 -18 27 0 17 -4 31 -9 31 -5 0 -5 -15 -2
-32z"/>
<path d="M1070 1274 c43 -16 44 -17 15 -23 -44 -9 -39 -36 6 -37 35 -2 36 -1
30 30 -6 26 -12 31 -36 33 -17 1 -23 0 -15 -3z m35 -44 c-3 -5 -15 -10 -26
-10 -10 0 -19 5 -19 10 0 6 12 10 26 10 14 0 23 -4 19 -10z"/>
<path d="M1155 1244 c0 -19 5 -34 10 -34 6 0 11 12 10 27 0 19 6 29 19 31 16
3 18 -1 14 -27 -3 -20 0 -31 7 -31 9 0 10 10 6 33 -6 27 -11 32 -36 34 -28 1
-30 -2 -30 -33z"/>
<path d="M1345 1270 c4 -6 11 -8 16 -5 14 9 11 15 -7 15 -8 0 -12 -5 -9 -10z"/>
<path d="M1415 1270 c4 -6 11 -8 16 -5 14 9 11 15 -7 15 -8 0 -12 -5 -9 -10z"/>
<path d="M1470 1274 c43 -16 44 -17 15 -23 -44 -9 -39 -36 6 -37 35 -2 36 -1
30 30 -6 26 -12 31 -36 33 -17 1 -23 0 -15 -3z m35 -44 c-3 -5 -15 -10 -26
-10 -10 0 -19 5 -19 10 0 6 12 10 26 10 14 0 23 -4 19 -10z"/>
<path d="M1759 1248 c6 -28 11 -33 37 -35 28 -1 30 1 26 33 -5 40 -18 46 -17
7 0 -18 -6 -29 -17 -31 -14 -3 -18 3 -18 27 0 17 -4 31 -9 31 -5 0 -5 -15 -2
-32z"/>
<path d="M1969 1246 c26 -42 26 -45 -1 -56 -22 -8 -22 -9 5 -9 16 -1 26 3 23
7 -3 5 6 27 19 50 20 35 21 42 8 42 -9 0 -13 -3 -10 -6 3 -4 1 -16 -5 -27 -10
-20 -11 -20 -24 -2 -7 10 -11 22 -8 26 3 5 -2 9 -11 9 -15 0 -14 -4 4 -34z"/>
<path d="M2070 1274 c43 -16 44 -17 15 -23 -44 -9 -39 -36 6 -37 35 -2 36 -1
30 30 -6 26 -12 31 -36 33 -17 1 -23 0 -15 -3z m35 -44 c-3 -5 -15 -10 -26
-10 -10 0 -19 5 -19 10 0 6 12 10 26 10 14 0 23 -4 19 -10z"/>
<path d="M2155 1244 c0 -19 5 -34 10 -34 6 0 11 12 10 27 0 19 6 29 19 31 16
3 18 -1 14 -27 -3 -20 0 -31 7 -31 9 0 10 10 6 33 -6 27 -11 32 -36 34 -28 1
-30 -2 -30 -33z"/>
<path d="M2259 1263 c-17 -20 1 -48 30 -47 27 1 28 -23 1 -29 -17 -4 -16 -4 2
-3 20 1 24 8 28 47 5 45 5 46 -22 47 -14 0 -32 -6 -39 -15z m49 -16 c4 -20
-25 -34 -40 -19 -15 15 -1 44 19 40 10 -2 19 -11 21 -21z"/>
<path d="M2459 1264 c-20 -24 1 -49 44 -50 28 -1 33 2 24 11 -8 9 -16 10 -24
3 -17 -13 -43 -3 -43 17 0 21 27 30 45 15 9 -7 15 -8 15 -2 0 9 -22 22 -40 22
-4 0 -13 -7 -21 -16z"/>
<path d="M2568 1273 c7 -3 16 -2 19 1 4 3 -2 6 -13 5 -11 0 -14 -3 -6 -6z"/>
<path d="M2673 1273 c-7 -2 -13 -9 -13 -15 0 -6 6 -6 15 2 18 15 45 6 45 -15
0 -20 -26 -30 -43 -17 -8 7 -16 6 -24 -3 -9 -9 -4 -12 24 -11 43 1 64 26 44
50 -14 16 -26 19 -48 9z"/>
<path d="M2759 1248 c6 -28 11 -33 37 -35 28 -1 30 1 26 33 -5 40 -18 46 -17
7 0 -18 -6 -29 -17 -31 -14 -3 -18 3 -18 27 0 17 -4 31 -9 31 -5 0 -5 -15 -2
-32z"/>
<path d="M2959 1248 c6 -28 11 -33 37 -35 28 -1 30 1 26 33 -5 40 -18 46 -17
7 0 -18 -6 -29 -17 -31 -14 -3 -18 3 -18 27 0 17 -4 31 -9 31 -5 0 -5 -15 -2
-32z"/>
<path d="M3270 1274 c43 -16 44 -17 15 -23 -44 -9 -39 -36 6 -37 35 -2 36 -1
30 30 -6 26 -12 31 -36 33 -17 1 -23 0 -15 -3z m35 -44 c-3 -5 -15 -10 -26
-10 -10 0 -19 5 -19 10 0 6 12 10 26 10 14 0 23 -4 19 -10z"/>
<path d="M3355 1244 c0 -19 5 -34 10 -34 6 0 11 12 10 27 0 19 6 29 19 31 16
3 18 -1 14 -27 -3 -20 0 -31 7 -31 9 0 10 10 6 33 -6 27 -11 32 -36 34 -28 1
-30 -2 -30 -33z"/>
<path d="M3653 1265 c8 -9 16 -10 24 -3 17 13 43 3 43 -17 0 -21 -27 -30 -45
-15 -9 8 -15 8 -15 2 0 -20 41 -25 58 -8 25 24 4 51 -41 52 -28 1 -33 -2 -24
-11z"/>
<path d="M3755 1260 c-12 -38 29 -63 65 -40 11 7 6 8 -16 4 -19 -4 -34 -1 -38
5 -5 7 5 11 28 11 38 0 44 8 24 28 -19 19 -56 14 -63 -8z m60 0 c4 -6 -7 -10
-25 -10 -18 0 -29 4 -25 10 3 6 15 10 25 10 10 0 22 -4 25 -10z"/>
<path d="M3868 1252 c3 -14 -1 -28 -9 -33 -9 -6 0 -8 26 -7 24 0 31 2 17 5
-29 6 -26 33 7 49 22 12 22 12 -11 11 -31 -1 -34 -3 -30 -25z"/>
<path d="M4078 1273 c18 -4 22 -11 22 -43 0 -32 -4 -39 -22 -43 -20 -3 -20 -4
2 -3 23 1 25 6 28 49 3 46 2 47 -25 46 -24 -2 -24 -2 -5 -6z"/>
<path d="M4170 1274 c43 -16 44 -17 15 -23 -44 -9 -39 -36 6 -37 35 -2 36 -1
30 30 -6 26 -12 31 -36 33 -17 1 -23 0 -15 -3z m35 -44 c-3 -5 -15 -10 -26
-10 -10 0 -19 5 -19 10 0 6 12 10 26 10 14 0 23 -4 19 -10z"/>
<path d="M4245 1245 c0 -19 5 -35 11 -35 6 0 9 10 7 24 -3 13 0 27 6 30 7 5
11 -4 11 -23 0 -23 5 -31 18 -31 13 0 14 2 4 9 -16 10 -12 43 6 49 8 2 12 -7
12 -27 0 -17 4 -31 9 -31 5 0 5 15 2 32 -6 30 -11 33 -46 36 -40 2 -40 2 -40
-33z"/>
<path d="M4580 1270 c0 -5 5 -10 10 -10 6 0 10 5 10 10 0 6 -4 10 -10 10 -5 0
-10 -4 -10 -10z"/>
<path d="M1380 1250 c0 -5 5 -10 10 -10 6 0 10 5 10 10 0 6 -4 10 -10 10 -5 0
-10 -4 -10 -10z"/>
<path d="M1360 1238 c0 -9 5 -20 10 -23 13 -8 13 5 0 25 -8 13 -10 13 -10 -2z"/>
<path d="M1407 1244 c-4 -4 -7 -14 -7 -23 0 -11 3 -12 11 -4 6 6 10 16 7 23
-2 6 -7 8 -11 4z"/>
<path d="M4580 1220 c0 -5 5 -10 10 -10 6 0 10 5 10 10 0 6 -4 10 -10 10 -5 0
-10 -4 -10 -10z"/>
<path d="M2578 1213 c12 -2 30 -2 40 0 9 3 -1 5 -23 4 -22 0 -30 -2 -17 -4z"/>
<path d="M3653 1183 c9 -2 23 -2 30 0 6 3 -1 5 -18 5 -16 0 -22 -2 -12 -5z"/>
<path d="M865 1040 c0 -27 3 -50 8 -50 4 0 7 8 7 18 1 16 1 16 14 0 7 -10 19
-18 27 -18 10 1 9 4 -3 11 -10 5 -18 16 -18 24 0 8 8 19 18 24 16 10 16 10 0
11 -10 0 -18 -4 -18 -10 0 -5 -4 -10 -10 -10 -5 0 -10 11 -10 25 0 14 -3 25
-7 25 -5 0 -8 -22 -8 -50z"/>
<path d="M965 1040 c0 -27 3 -50 8 -50 4 0 7 8 7 18 1 16 1 16 14 0 7 -10 19
-18 27 -18 10 1 9 4 -3 11 -10 5 -18 16 -18 24 0 8 8 19 18 24 16 10 16 10 0
11 -10 0 -18 -4 -18 -10 0 -5 -4 -10 -10 -10 -5 0 -10 11 -10 25 0 14 -3 25
-7 25 -5 0 -8 -22 -8 -50z"/>
<path d="M1365 1040 c0 -27 3 -50 8 -50 4 0 7 8 7 18 1 16 1 16 14 0 7 -10 19
-18 27 -18 10 1 9 4 -3 11 -10 5 -18 16 -18 24 0 8 8 19 18 24 16 10 16 10 0
11 -10 0 -18 -4 -18 -10 0 -5 -4 -10 -10 -10 -5 0 -10 11 -10 25 0 14 -3 25
-7 25 -5 0 -8 -22 -8 -50z"/>
<path d="M2400 1071 c-14 -28 -12 -64 5 -87 13 -17 13 -16 3 14 -9 24 -10 39
-1 62 13 34 9 40 -7 11z"/>
<path d="M2972 1063 c10 -26 10 -40 0 -65 -10 -30 -10 -31 3 -14 8 11 15 32
15 46 0 14 -7 35 -15 46 -13 17 -13 16 -3 -13z"/>
<path d="M3260 1066 c0 -19 6 -25 29 -28 17 -2 28 -1 25 4 -3 4 -14 8 -25 8
-30 0 -23 28 9 33 25 4 25 4 -5 6 -29 1 -33 -2 -33 -23z"/>
<path d="M3393 1084 c12 -4 17 -16 17 -44 0 -29 -5 -40 -17 -43 -14 -3 -13 -4
2 -3 17 1 20 8 20 46 0 37 -3 45 -20 47 -16 1 -16 1 -2 -3z"/>
<path d="M445 1035 c0 -39 3 -45 20 -44 11 0 14 3 8 6 -7 2 -13 19 -12 36 0
30 1 31 11 10 6 -13 14 -23 18 -23 4 0 12 10 18 23 10 21 11 20 11 -10 1 -17
-5 -34 -11 -36 -7 -3 -4 -6 7 -6 17 -1 20 5 20 44 0 47 -18 62 -30 25 -3 -11
-10 -20 -15 -20 -5 0 -12 9 -15 20 -12 37 -30 22 -30 -25z"/>
<path d="M1962 1064 c-7 -8 -8 -14 -2 -14 5 0 10 -11 10 -25 0 -30 21 -41 47
-26 15 9 13 10 -9 5 -25 -6 -28 -3 -28 20 0 20 5 26 23 27 20 1 20 2 2 6 -11
3 -22 9 -25 13 -3 4 -11 2 -18 -6z"/>
<path d="M2462 1064 c-7 -8 -8 -14 -2 -14 5 0 10 -11 10 -25 0 -30 21 -41 47
-26 15 9 13 10 -9 5 -25 -6 -28 -3 -28 20 0 20 5 26 23 27 20 1 20 2 2 6 -11
3 -22 9 -25 13 -3 4 -11 2 -18 -6z"/>
<path d="M2662 1064 c-7 -8 -8 -14 -2 -14 5 0 10 -11 10 -25 0 -30 21 -41 47
-26 15 9 13 10 -9 5 -25 -6 -28 -3 -28 20 0 20 5 26 23 27 20 1 20 2 2 6 -11
3 -22 9 -25 13 -3 4 -11 2 -18 -6z"/>
<path d="M3362 1040 c0 -19 2 -27 5 -17 2 9 2 25 0 35 -3 9 -5 1 -5 -18z"/>
<path d="M570 1054 c43 -16 44 -17 15 -23 -44 -9 -39 -36 6 -37 35 -2 36 -1
30 30 -6 26 -12 31 -36 33 -17 1 -23 0 -15 -3z m35 -44 c-3 -5 -15 -10 -26
-10 -10 0 -19 5 -19 10 0 6 12 10 26 10 14 0 23 -4 19 -10z"/>
<path d="M665 1050 c-9 -15 4 -30 26 -30 10 0 19 -5 19 -11 0 -7 -10 -9 -25
-7 -14 3 -25 1 -25 -4 0 -5 12 -8 28 -6 33 4 37 32 5 36 -13 2 -23 8 -23 14 0
6 11 8 25 6 14 -3 25 -1 25 3 0 12 -47 11 -55 -1z"/>
<path d="M759 1028 c6 -28 11 -33 37 -35 28 -1 30 1 26 33 -5 40 -18 46 -17 7
0 -18 -6 -29 -17 -31 -14 -3 -18 3 -18 27 0 17 -4 31 -9 31 -5 0 -5 -15 -2
-32z"/>
<path d="M1070 1054 c43 -16 44 -17 15 -23 -44 -9 -39 -36 6 -37 35 -2 36 -1
30 30 -6 26 -12 31 -36 33 -17 1 -23 0 -15 -3z m35 -44 c-3 -5 -15 -10 -26
-10 -10 0 -19 5 -19 10 0 6 12 10 26 10 14 0 23 -4 19 -10z"/>
<path d="M1155 1024 c0 -19 5 -34 10 -34 6 0 11 12 10 27 0 19 6 29 19 31 16
3 18 -1 14 -27 -3 -20 0 -31 7 -31 9 0 10 10 6 33 -6 27 -11 32 -36 34 -28 1
-30 -2 -30 -33z"/>
<path d="M1455 1040 c-12 -38 29 -63 65 -40 11 7 6 8 -16 4 -19 -4 -34 -1 -38
5 -5 7 5 11 28 11 38 0 44 8 24 28 -19 19 -56 14 -63 -8z m60 0 c4 -6 -7 -10
-25 -10 -18 0 -29 4 -25 10 3 6 15 10 25 10 10 0 22 -4 25 -10z"/>
<path d="M1559 1044 c-9 -11 -10 -20 -2 -32 11 -19 51 -28 64 -15 4 4 -6 8
-24 8 -25 0 -32 4 -32 20 0 16 6 20 33 19 17 -1 32 2 32 7 0 15 -57 10 -71 -7z"/>
<path d="M1655 1040 c-12 -38 29 -63 65 -40 11 7 6 8 -16 4 -19 -4 -34 -1 -38
5 -5 7 5 11 28 11 38 0 44 8 24 28 -19 19 -56 14 -63 -8z m60 0 c4 -6 -7 -10
-25 -10 -18 0 -29 4 -25 10 3 6 15 10 25 10 10 0 22 -4 25 -10z"/>
<path d="M1753 1045 c8 -9 16 -10 24 -3 17 13 43 3 43 -17 0 -21 -27 -30 -45
-15 -9 8 -15 8 -15 2 0 -20 41 -25 58 -8 25 24 4 51 -41 52 -28 1 -33 -2 -24
-11z"/>
<path d="M1870 1054 c43 -16 44 -17 15 -23 -44 -9 -39 -36 6 -37 35 -2 36 -1
30 30 -6 26 -12 31 -36 33 -17 1 -23 0 -15 -3z m35 -44 c-3 -5 -15 -10 -26
-10 -10 0 -19 5 -19 10 0 6 12 10 26 10 14 0 23 -4 19 -10z"/>
<path d="M2070 1054 c43 -16 44 -17 15 -23 -44 -9 -39 -36 6 -37 35 -2 36 -1
30 30 -6 26 -12 31 -36 33 -17 1 -23 0 -15 -3z m35 -44 c-3 -5 -15 -10 -26
-10 -10 0 -19 5 -19 10 0 6 12 10 26 10 14 0 23 -4 19 -10z"/>
<path d="M2155 1024 c0 -19 5 -34 10 -34 6 0 11 12 10 27 0 19 6 29 19 31 16
3 18 -1 14 -27 -3 -20 0 -31 7 -31 9 0 10 10 6 33 -6 27 -11 32 -36 34 -28 1
-30 -2 -30 -33z"/>
<path d="M2555 1040 c-12 -38 29 -63 65 -40 11 7 6 8 -16 4 -19 -4 -34 -1 -38
5 -5 7 5 11 28 11 38 0 44 8 24 28 -19 19 -56 14 -63 -8z m60 0 c4 -6 -7 -10
-25 -10 -18 0 -29 4 -25 10 3 6 15 10 25 10 10 0 22 -4 25 -10z"/>
<path d="M2770 1054 c43 -16 44 -17 15 -23 -44 -9 -39 -36 6 -37 35 -2 36 -1
30 30 -6 26 -12 31 -36 33 -17 1 -23 0 -15 -3z m35 -44 c-3 -5 -15 -10 -26
-10 -10 0 -19 5 -19 10 0 6 12 10 26 10 14 0 23 -4 19 -10z"/>
<path d="M2853 1045 c8 -9 16 -10 24 -3 17 13 43 3 43 -17 0 -21 -27 -30 -45
-15 -9 8 -15 8 -15 2 0 -20 41 -25 58 -8 25 24 4 51 -41 52 -28 1 -33 -2 -24
-11z"/>
<path d="M3180 1050 c0 -5 5 -10 10 -10 6 0 10 5 10 10 0 6 -4 10 -10 10 -5 0
-10 -4 -10 -10z"/>
<path d="M3180 1000 c0 -5 5 -10 10 -10 6 0 10 5 10 10 0 6 -4 10 -10 10 -5 0
-10 -4 -10 -10z"/>
<path d="M3267 998 c2 -5 13 -8 23 -8 10 0 21 3 23 8 3 4 -8 7 -23 7 -15 0
-26 -3 -23 -7z"/>
<path d="M1753 963 c9 -2 23 -2 30 0 6 3 -1 5 -18 5 -16 0 -22 -2 -12 -5z"/>
<path d="M2853 963 c9 -2 23 -2 30 0 6 3 -1 5 -18 5 -16 0 -22 -2 -12 -5z"/>
<path d="M665 820 c0 -27 3 -50 8 -50 4 0 7 8 7 18 1 16 1 16 14 0 7 -10 19
-18 27 -18 10 1 9 4 -3 11 -10 5 -18 16 -18 24 0 8 8 19 18 24 16 10 16 10 0
11 -10 0 -18 -4 -18 -10 0 -5 -4 -10 -10 -10 -5 0 -10 11 -10 25 0 14 -3 25
-7 25 -5 0 -8 -22 -8 -50z"/>
<path d="M1365 820 c0 -27 3 -50 8 -50 4 0 7 8 7 18 1 16 1 16 14 0 7 -10 19
-18 27 -18 10 1 9 4 -3 11 -10 5 -18 16 -18 24 0 8 8 19 18 24 16 10 16 10 0
11 -10 0 -18 -4 -18 -10 0 -5 -4 -10 -10 -10 -5 0 -10 11 -10 25 0 14 -3 25
-7 25 -5 0 -8 -22 -8 -50z"/>
<path d="M1900 851 c-14 -28 -12 -64 5 -87 13 -17 13 -16 3 14 -9 24 -10 39
-1 62 13 34 9 40 -7 11z"/>
<path d="M2072 843 c10 -26 10 -40 0 -65 -10 -30 -10 -31 3 -14 8 11 15 32 15
46 0 14 -7 35 -15 46 -13 17 -13 16 -3 -13z"/>
<path d="M2568 863 c7 -3 16 -2 19 1 4 3 -2 6 -13 5 -11 0 -14 -3 -6 -6z"/>
<path d="M2755 820 c0 -28 5 -50 10 -50 6 0 11 12 10 27 0 19 6 29 19 31 16 3
18 -1 14 -27 -3 -20 0 -31 7 -31 9 0 10 10 6 33 -6 25 -12 32 -29 31 -15 0
-22 5 -22 18 0 10 -3 18 -7 18 -5 0 -8 -22 -8 -50z"/>
<path d="M3260 846 c0 -19 6 -25 29 -28 17 -2 28 -1 25 4 -3 4 -14 8 -25 8
-30 0 -23 28 9 33 25 4 25 4 -5 6 -29 1 -33 -2 -33 -23z"/>
<path d="M3393 864 c12 -4 17 -16 17 -44 0 -29 -5 -40 -17 -43 -14 -3 -13 -4
2 -3 17 1 20 8 20 46 0 37 -3 45 -20 47 -16 1 -16 1 -2 -3z"/>
<path d="M3565 820 c0 -27 3 -50 8 -50 4 0 7 8 7 18 1 16 1 16 14 0 7 -10 26
-18 43 -18 26 0 30 3 26 24 -3 13 0 27 6 30 7 5 11 -4 11 -23 0 -23 5 -31 18
-31 13 0 14 2 4 9 -16 10 -12 43 6 49 8 2 12 -7 12 -27 0 -17 4 -31 9 -31 5 0
5 15 2 32 -6 30 -10 33 -47 36 -40 2 -41 2 -36 -28 4 -25 1 -30 -17 -30 -29 0
-39 29 -16 46 17 13 17 14 2 14 -9 0 -17 -4 -17 -10 0 -5 -4 -10 -10 -10 -5 0
-10 11 -10 25 0 14 -3 25 -7 25 -5 0 -8 -22 -8 -50z"/>
<path d="M445 815 c0 -39 3 -45 20 -44 11 0 14 3 8 6 -7 2 -13 19 -12 36 0 30
1 31 11 10 6 -13 14 -23 18 -23 4 0 12 10 18 23 10 21 11 20 11 -10 1 -17 -5
-34 -11 -36 -7 -3 -4 -6 7 -6 17 -1 20 5 20 44 0 47 -18 62 -30 25 -3 -11 -10
-20 -15 -20 -5 0 -12 9 -15 20 -12 37 -30 22 -30 -25z"/>
<path d="M2267 854 c7 -3 9 -13 6 -22 -4 -15 -3 -15 6 -2 10 13 12 13 21 0 7
-12 4 -16 -13 -18 -13 -2 -28 -12 -35 -22 -11 -18 -9 -20 10 -20 18 0 20 2 8
10 -12 8 -12 10 3 16 9 3 25 3 34 0 15 -6 15 -8 3 -16 -12 -8 -11 -10 6 -10
l22 0 -21 45 c-15 33 -26 45 -41 44 -12 0 -16 -3 -9 -5z"/>
<path d="M3362 820 c0 -19 2 -27 5 -17 2 9 2 25 0 35 -3 9 -5 1 -5 -18z"/>
<path d="M570 834 c43 -16 44 -17 15 -23 -44 -9 -39 -36 6 -37 35 -2 36 -1 30
30 -6 26 -12 31 -36 33 -17 1 -23 0 -15 -3z m35 -44 c-3 -5 -15 -10 -26 -10
-10 0 -19 5 -19 10 0 6 12 10 26 10 14 0 23 -4 19 -10z"/>
<path d="M770 834 c43 -16 44 -17 15 -23 -44 -9 -39 -36 6 -37 35 -2 36 -1 30
30 -6 26 -12 31 -36 33 -17 1 -23 0 -15 -3z m35 -44 c-3 -5 -15 -10 -26 -10
-10 0 -19 5 -19 10 0 6 12 10 26 10 14 0 23 -4 19 -10z"/>
<path d="M978 833 c18 -4 22 -11 22 -43 0 -32 -4 -39 -22 -43 -20 -3 -20 -4 2
-3 23 1 25 6 28 49 3 46 2 47 -25 46 -24 -2 -24 -2 -5 -6z"/>
<path d="M1070 834 c43 -16 44 -17 15 -23 -44 -9 -39 -36 6 -37 35 -2 36 -1
30 30 -6 26 -12 31 -36 33 -17 1 -23 0 -15 -3z m35 -44 c-3 -5 -15 -10 -26
-10 -10 0 -19 5 -19 10 0 6 12 10 26 10 14 0 23 -4 19 -10z"/>
<path d="M1168 812 c3 -14 -1 -28 -9 -33 -9 -6 0 -8 26 -7 24 0 31 2 17 5 -29
6 -26 33 7 49 22 12 22 12 -11 11 -31 -1 -34 -3 -30 -25z"/>
<path d="M1270 834 c43 -16 44 -17 15 -23 -44 -9 -39 -36 6 -37 35 -2 36 -1
30 30 -6 26 -12 31 -36 33 -17 1 -23 0 -15 -3z m35 -44 c-3 -5 -15 -10 -26
-10 -10 0 -19 5 -19 10 0 6 12 10 26 10 14 0 23 -4 19 -10z"/>
<path d="M1455 804 c0 -19 5 -34 10 -34 6 0 11 12 10 27 0 19 6 29 19 31 16 3
18 -1 14 -27 -3 -20 0 -31 7 -31 9 0 10 10 6 33 -6 27 -11 32 -36 34 -28 1
-30 -2 -30 -33z"/>
<path d="M1569 806 c26 -42 26 -45 -1 -56 -22 -8 -22 -9 5 -9 16 -1 26 3 23 7
-3 5 6 27 19 50 20 35 21 42 8 42 -9 0 -13 -3 -10 -6 3 -4 1 -16 -5 -27 -10
-20 -11 -20 -24 -2 -7 10 -11 22 -8 26 3 5 -2 9 -11 9 -15 0 -14 -4 4 -34z"/>
<path d="M1670 834 c43 -16 44 -17 15 -23 -44 -9 -39 -36 6 -37 35 -2 36 -1
30 30 -6 26 -12 31 -36 33 -17 1 -23 0 -15 -3z m35 -44 c-3 -5 -15 -10 -26
-10 -10 0 -19 5 -19 10 0 6 12 10 26 10 14 0 23 -4 19 -10z"/>
<path d="M1965 830 c-9 -15 4 -30 26 -30 10 0 19 -5 19 -11 0 -7 -10 -9 -25
-7 -14 3 -25 1 -25 -4 0 -5 12 -8 28 -6 33 4 37 32 5 36 -13 2 -23 8 -23 14 0
6 11 8 25 6 14 -3 25 -1 25 3 0 12 -47 11 -55 -1z"/>
<path d="M2359 824 c-20 -24 1 -49 44 -50 28 -1 33 2 24 11 -8 9 -16 10 -24 3
-17 -13 -43 -3 -43 17 0 21 27 30 45 15 9 -7 15 -8 15 -2 0 9 -22 22 -40 22
-4 0 -13 -7 -21 -16z"/>
<path d="M2470 834 c43 -16 44 -17 15 -23 -44 -9 -39 -36 6 -37 35 -2 36 -1
30 30 -6 26 -12 31 -36 33 -17 1 -23 0 -15 -3z m35 -44 c-3 -5 -15 -10 -26
-10 -10 0 -19 5 -19 10 0 6 12 10 26 10 14 0 23 -4 19 -10z"/>
<path d="M2670 834 c43 -16 44 -17 15 -23 -44 -9 -39 -36 6 -37 35 -2 36 -1
30 30 -6 26 -12 31 -36 33 -17 1 -23 0 -15 -3z m35 -44 c-3 -5 -15 -10 -26
-10 -10 0 -19 5 -19 10 0 6 12 10 26 10 14 0 23 -4 19 -10z"/>
<path d="M2968 833 c12 -2 32 -2 45 0 12 2 2 4 -23 4 -25 0 -35 -2 -22 -4z"/>
<path d="M3191 808 c0 -16 -8 -28 -18 -31 -10 -3 -2 -5 17 -6 19 0 30 3 24 7
-7 4 -14 18 -17 32 l-4 25 -2 -27z"/>
<path d="M2968 803 c12 -2 32 -2 45 0 12 2 2 4 -23 4 -25 0 -35 -2 -22 -4z"/>
<path d="M3267 778 c2 -5 13 -8 23 -8 10 0 21 3 23 8 3 4 -8 7 -23 7 -15 0
-26 -3 -23 -7z"/>
<path d="M2578 773 c12 -2 30 -2 40 0 9 3 -1 5 -23 4 -22 0 -30 -2 -17 -4z"/>
<path d="M2668 643 c7 -3 16 -2 19 1 4 3 -2 6 -13 5 -11 0 -14 -3 -6 -6z"/>
<path d="M3560 641 c0 -4 11 -6 25 -3 29 5 29 6 10 -47 -15 -44 -11 -58 5 -16
25 67 24 75 -9 75 -17 0 -31 -4 -31 -9z"/>
<path d="M4472 623 c10 -26 10 -40 0 -65 -10 -30 -10 -31 3 -14 8 11 15 32 15
46 0 14 -7 35 -15 46 -13 17 -13 16 -3 -13z"/>
<path d="M455 595 l0 -46 35 3 c25 2 35 8 36 21 1 12 1 13 -3 2 -6 -19 -53
-20 -53 -1 0 8 10 16 23 18 36 5 29 42 -8 46 -29 3 -30 2 -30 -43z m55 20 c0
-8 -9 -15 -20 -15 -11 0 -20 7 -20 15 0 8 9 15 20 15 11 0 20 -7 20 -15z"/>
<path d="M547 632 c6 -4 13 -23 15 -42 2 -29 7 -35 27 -35 13 0 25 6 27 13 1
7 0 8 -3 2 -2 -5 -14 -10 -25 -10 -17 0 -20 5 -16 40 3 35 1 40 -17 40 -12 0
-16 -3 -8 -8z"/>
<path d="M608 633 c6 -2 18 -2 25 0 6 3 1 5 -13 5 -14 0 -19 -2 -12 -5z"/>
<path d="M673 633 c9 -2 25 -2 35 0 9 3 1 5 -18 5 -19 0 -27 -2 -17 -5z"/>
<path d="M758 633 c6 -2 12 -20 12 -38 0 -18 -6 -36 -12 -38 -7 -3 6 -6 30 -6
37 -1 42 1 41 22 -1 16 -2 18 -6 5 -2 -10 -13 -18 -24 -18 -15 0 -19 7 -19 34
0 19 6 37 13 39 6 3 -1 5 -18 5 -16 0 -24 -2 -17 -5z"/>
<path d="M855 595 c0 -44 1 -45 30 -44 24 1 25 3 8 6 -19 4 -23 11 -23 39 0
27 4 34 20 34 10 0 24 -8 29 -17 6 -10 11 -13 11 -7 0 18 -23 34 -49 34 -24 0
-26 -3 -26 -45z"/>
<path d="M1064 625 c-8 -20 4 -35 26 -35 10 0 22 -5 25 -10 10 -16 -26 -24
-46 -11 -15 9 -19 8 -19 -2 0 -16 49 -21 67 -6 17 15 -1 39 -28 39 -11 0 -19
7 -19 16 0 12 7 15 25 12 14 -3 25 -1 25 3 0 15 -50 10 -56 -6z"/>
<path d="M1147 632 c6 -4 13 -23 15 -42 2 -29 7 -35 27 -35 13 0 25 6 27 13 1
7 0 8 -3 2 -2 -5 -14 -10 -25 -10 -17 0 -20 5 -16 40 3 35 1 40 -17 40 -12 0
-16 -3 -8 -8z"/>
<path d="M1208 633 c6 -2 18 -2 25 0 6 3 1 5 -13 5 -14 0 -19 -2 -12 -5z"/>
<path d="M1285 633 c11 -3 26 -10 33 -15 8 -8 12 -6 12 4 0 9 -12 14 -32 15
-19 1 -24 -1 -13 -4z"/>
<path d="M1385 633 c11 -3 26 -10 33 -15 8 -8 12 -6 12 4 0 9 -12 14 -32 15
-19 1 -24 -1 -13 -4z"/>
<path d="M1455 595 l0 -45 40 2 c37 1 37 2 8 5 -21 3 -33 10 -33 20 0 9 6 13
15 9 9 -3 15 0 15 9 0 9 -6 12 -15 9 -9 -4 -15 0 -15 9 0 9 11 17 28 20 23 3
22 4 -8 6 l-35 1 0 -45z"/>
<path d="M1564 625 c-8 -20 4 -35 26 -35 10 0 22 -5 25 -10 10 -16 -26 -24
-46 -11 -15 9 -19 8 -19 -2 0 -16 49 -21 67 -6 17 15 -1 39 -28 39 -11 0 -19
7 -19 16 0 12 7 15 25 12 14 -3 25 -1 25 3 0 15 -50 10 -56 -6z"/>
<path d="M1664 625 c-8 -20 4 -35 26 -35 10 0 22 -5 25 -10 10 -16 -26 -24
-46 -11 -15 9 -19 8 -19 -2 0 -16 49 -21 67 -6 17 15 -1 39 -28 39 -11 0 -19
7 -19 16 0 12 7 15 25 12 14 -3 25 -1 25 3 0 15 -50 10 -56 -6z"/>
<path d="M1758 633 c6 -2 12 -20 12 -38 0 -18 -6 -36 -12 -38 -7 -3 1 -5 17
-5 17 0 24 2 18 5 -7 2 -13 12 -13 20 0 9 6 13 15 9 9 -3 15 0 15 9 0 9 -6 12
-15 9 -9 -4 -15 0 -15 10 0 19 36 22 43 4 3 -8 6 -6 6 5 1 14 -7 17 -41 16
-24 0 -37 -3 -30 -6z"/>
<path d="M1847 632 c6 -4 13 -23 15 -42 2 -29 7 -35 27 -35 13 0 25 6 27 13 1
7 0 8 -3 2 -2 -5 -14 -10 -25 -10 -17 0 -20 5 -16 40 3 35 1 40 -17 40 -12 0
-16 -3 -8 -8z"/>
<path d="M1908 633 c6 -2 18 -2 25 0 6 3 1 5 -13 5 -14 0 -19 -2 -12 -5z"/>
<path d="M1958 633 c6 -2 12 -20 12 -38 0 -18 -6 -36 -12 -38 -7 -3 6 -6 30
-6 37 -1 42 1 41 22 -1 16 -2 18 -6 5 -2 -10 -13 -18 -24 -18 -15 0 -19 7 -19
34 0 19 6 37 13 39 6 3 -1 5 -18 5 -16 0 -24 -2 -17 -5z"/>
<path d="M2196 624 c-10 -27 -7 -59 10 -80 14 -18 15 -18 3 5 -6 13 -9 39 -6
57 6 36 3 44 -7 18z"/>
<path d="M2262 624 c-7 -8 -8 -14 -2 -14 5 0 10 -11 10 -25 0 -30 21 -41 47
-26 15 9 13 10 -9 5 -25 -6 -28 -3 -28 20 0 20 5 26 23 27 20 1 20 2 2 6 -11
3 -22 9 -25 13 -3 4 -11 2 -18 -6z"/>
<path d="M2462 624 c-7 -8 -8 -14 -2 -14 5 0 10 -11 10 -25 0 -30 21 -41 47
-26 15 9 13 10 -9 5 -25 -6 -28 -3 -28 20 0 20 5 26 23 27 20 1 20 2 2 6 -11
3 -22 9 -25 13 -3 4 -11 2 -18 -6z"/>
<path d="M2862 624 c-7 -8 -8 -14 -2 -14 5 0 10 -11 10 -25 0 -30 21 -41 47
-26 15 9 13 10 -9 5 -25 -6 -28 -3 -28 20 0 20 5 26 23 27 20 1 20 2 2 6 -11
3 -22 9 -25 13 -3 4 -11 2 -18 -6z"/>
<path d="M1251 600 c0 -15 4 -31 11 -38 13 -13 54 -16 61 -4 3 4 -9 7 -26 7
-27 0 -33 4 -38 30 -6 28 -7 28 -8 5z"/>
<path d="M1351 600 c0 -15 4 -31 11 -38 13 -13 54 -16 61 -4 3 4 -9 7 -26 7
-27 0 -33 4 -38 30 -6 28 -7 28 -8 5z"/>
<path d="M2359 604 c-26 -31 25 -70 56 -44 8 7 15 20 14 29 0 10 -3 8 -10 -7
-6 -17 -15 -22 -31 -20 -32 4 -31 40 2 49 22 6 23 7 4 8 -12 1 -27 -6 -35 -15z"/>
<path d="M2570 613 c42 -14 44 -16 15 -22 -44 -9 -39 -36 6 -37 34 -2 36 0 31
25 -6 30 -19 41 -47 40 -14 0 -15 -2 -5 -6z m35 -43 c-3 -5 -15 -10 -26 -10
-10 0 -19 5 -19 10 0 6 12 10 26 10 14 0 23 -4 19 -10z"/>
<path d="M2968 613 c7 -3 16 -2 19 1 4 3 -2 6 -13 5 -11 0 -14 -3 -6 -6z"/>
<path d="M3045 585 c0 -19 5 -35 11 -35 6 0 9 13 6 30 -3 18 0 30 7 30 6 0 11
-13 11 -30 0 -22 5 -30 18 -30 13 0 14 2 4 9 -16 10 -12 43 6 49 8 2 12 -7 12
-27 0 -17 4 -31 9 -31 5 0 6 14 2 32 -6 29 -10 32 -46 35 -39 2 -40 2 -40 -32z"/>
<path d="M3185 613 c40 -10 41 -25 3 -21 -25 3 -38 0 -38 -8 0 -18 27 -36 47
-31 14 4 14 5 -4 6 -38 2 -37 21 1 21 20 0 36 4 36 8 0 15 -24 32 -44 31 -21
-1 -21 -1 -1 -6z"/>
<path d="M3280 610 c0 -5 5 -10 10 -10 6 0 10 5 10 10 0 6 -4 10 -10 10 -5 0
-10 -4 -10 -10z"/>
<path d="M3765 610 c-9 -15 4 -30 26 -30 10 0 19 -5 19 -11 0 -7 -10 -9 -25
-7 -14 3 -25 1 -25 -4 0 -5 12 -8 28 -6 33 4 37 32 5 36 -13 2 -23 8 -23 14 0
6 11 8 25 6 14 -3 25 -1 25 3 0 12 -47 11 -55 -1z"/>
<path d="M3885 613 c40 -10 41 -25 3 -21 -25 3 -38 0 -38 -8 0 -18 27 -36 47
-31 14 4 14 5 -4 6 -38 2 -37 21 1 21 20 0 36 4 36 8 0 15 -24 32 -44 31 -21
-1 -21 -1 -1 -6z"/>
<path d="M3959 604 c-9 -11 -10 -20 -2 -32 11 -19 51 -28 64 -15 4 4 -6 8 -24
8 -25 0 -32 4 -32 20 0 12 9 22 25 26 22 6 23 7 4 8 -12 1 -27 -6 -35 -15z"/>
<path d="M4059 604 c-26 -31 25 -70 56 -44 8 7 15 20 14 29 0 10 -3 8 -10 -7
-6 -17 -15 -22 -31 -20 -32 4 -31 40 2 49 22 6 23 7 4 8 -12 1 -27 -6 -35 -15z"/>
<path d="M4155 584 c0 -19 5 -34 10 -34 6 0 11 12 10 27 0 19 6 29 19 31 16 3
18 -1 14 -27 -3 -20 0 -31 7 -31 9 0 10 10 6 33 -6 27 -11 32 -36 34 -28 1
-30 -2 -30 -33z"/>
<path d="M4278 613 c7 -3 16 -2 19 1 4 3 -2 6 -13 5 -11 0 -14 -3 -6 -6z"/>
<path d="M4365 610 c-9 -15 4 -30 26 -30 10 0 19 -5 19 -11 0 -7 -10 -9 -25
-7 -14 3 -25 1 -25 -4 0 -5 12 -8 28 -6 33 4 37 32 5 36 -13 2 -23 8 -23 14 0
6 11 8 25 6 14 -3 25 -1 25 3 0 12 -47 11 -55 -1z"/>
<path d="M3491 588 c0 -16 -8 -28 -18 -31 -10 -3 -2 -5 17 -6 19 0 30 3 24 7
-7 4 -14 18 -17 32 l-4 25 -2 -27z"/>
<path d="M4251 584 c0 -11 3 -14 6 -6 3 7 2 16 -1 19 -3 4 -6 -2 -5 -13z"/>
<path d="M4310 571 c0 -10 19 -25 25 -20 1 2 -3 10 -11 17 -8 7 -14 8 -14 3z"/>
<path d="M3280 560 c0 -5 5 -10 10 -10 6 0 10 5 10 10 0 6 -4 10 -10 10 -5 0
-10 -4 -10 -10z"/>
<path d="M673 553 c9 -2 25 -2 35 0 9 3 1 5 -18 5 -19 0 -27 -2 -17 -5z"/>
<path d="M2678 553 c12 -2 30 -2 40 0 9 3 -1 5 -23 4 -22 0 -30 -2 -17 -4z"/>
<path d="M2978 553 c12 -2 30 -2 40 0 9 3 -1 5 -23 4 -22 0 -30 -2 -17 -4z"/>
<path d="M4278 553 c7 -3 16 -2 19 1 4 3 -2 6 -13 5 -11 0 -14 -3 -6 -6z"/>
<path d="M440 390 c0 -67 4 -110 10 -110 6 0 10 43 10 110 0 67 -4 110 -10
110 -6 0 -10 -43 -10 -110z"/>
<path d="M13290 349 c0 -9 8 -23 18 -33 18 -15 20 -15 35 2 24 26 23 50 -1 29
-17 -15 -19 -15 -35 0 -15 15 -17 15 -17 2z"/>
<path d="M12763 143 c21 -5 21 -7 2 -43 -9 -17 -13 -30 -10 -30 2 0 14 18 25
40 l20 40 -27 -1 c-17 -1 -21 -3 -10 -6z"/>
<path d="M12810 136 c-18 -23 -9 -61 15 -61 29 0 32 35 4 42 -21 6 -21 7 -4
20 11 7 14 13 8 13 -6 0 -16 -7 -23 -14z m30 -41 c0 -8 -7 -15 -15 -15 -8 0
-15 7 -15 15 0 8 7 15 15 15 8 0 15 -7 15 -15z"/>
<path d="M12910 136 c-18 -23 -9 -61 15 -61 29 0 32 35 4 42 -21 6 -21 7 -4
20 11 7 14 13 8 13 -6 0 -16 -7 -23 -14z m30 -41 c0 -8 -7 -15 -15 -15 -8 0
-15 7 -15 15 0 8 7 15 15 15 8 0 15 -7 15 -15z"/>
<path d="M13445 110 c0 -22 5 -40 10 -40 6 0 10 18 10 40 0 22 -4 40 -10 40
-5 0 -10 -18 -10 -40z"/>
<path d="M13482 110 c1 -45 1 -45 8 -10 4 19 8 31 9 25 1 -5 10 -21 21 -35
l20 -25 -2 45 c-1 32 -2 37 -5 16 l-5 -29 -23 29 -24 29 1 -45z"/>
<path d="M13557 143 c-13 -13 -7 -31 13 -36 11 -3 20 -11 20 -17 0 -7 -8 -10
-20 -7 -11 3 -20 1 -20 -5 0 -5 10 -8 22 -6 30 4 35 34 9 43 -27 8 -27 29 -1
22 11 -3 18 -1 14 4 -6 11 -28 12 -37 2z"/>
</g>
</svg>
