<?xml version="1.0" standalone="no"?>
<!DOCTYPE svg PUBLIC "-//W3C//DTD SVG 20010904//EN"
 "http://www.w3.org/TR/2001/REC-SVG-20010904/DTD/svg10.dtd">
<svg version="1.0" xmlns="http://www.w3.org/2000/svg"
 width="820.000000pt" height="480.000000pt" viewBox="0 0 820.000000 480.000000"
 preserveAspectRatio="xMidYMid meet">
<metadata>
Created by potrace 1.16, written by Peter Selinger 2001-2019
</metadata>
<g transform="translate(0.000000,480.000000) scale(0.100000,-0.100000)"
fill="#000000" stroke="none">
<path d="M3560 4389 c-492 -16 -988 -107 -1142 -209 -86 -57 -208 -203 -268
-320 -65 -126 -14 -470 162 -1100 l40 -145 -11 -95 -12 -96 -57 -61 c-212
-222 -227 -573 -36 -817 53 -67 160 -149 226 -173 43 -15 52 -24 91 -92 112
-192 316 -415 497 -544 118 -83 341 -195 480 -241 434 -143 921 -111 1335 89
312 150 582 398 755 693 40 68 47 75 124 114 197 103 326 317 326 543 0 146
-65 310 -166 423 l-57 63 -18 122 c-39 271 -104 463 -213 629 l-16 25 237 47
c131 27 244 53 251 58 6 6 12 19 12 30 0 19 -209 297 -248 330 -9 8 -69 22
-136 32 -176 25 -224 53 -485 284 -171 151 -234 197 -355 256 -183 90 -466
141 -836 152 -96 2 -197 6 -225 7 -27 2 -142 0 -255 -4z m1109 -1554 c1 -68
-10 -115 -45 -192 -32 -68 -23 -89 42 -99 68 -10 368 3 448 19 l69 14 81 -82
c57 -58 100 -91 147 -114 75 -36 79 -45 79 -151 l0 -57 35 -6 c156 -25 227
-246 124 -385 -44 -59 -105 -86 -180 -78 -46 4 -59 3 -59 -8 0 -30 -134 -277
-194 -357 -169 -224 -424 -407 -687 -492 -158 -52 -230 -62 -444 -62 -213 0
-250 5 -417 56 -395 120 -708 401 -877 790 l-33 75 -72 0 c-63 -1 -78 3 -114
26 -22 15 -54 49 -69 75 -24 42 -28 58 -28 128 0 70 4 86 28 127 32 55 86 96
139 104 l37 6 6 67 c12 138 37 334 45 355 7 21 47 30 512 124 276 56 508 102
514 102 6 0 29 -20 52 -45 22 -25 47 -45 55 -45 29 0 46 25 49 74 l3 50 53 11
53 12 42 -49 c60 -70 171 -156 251 -194 90 -43 100 -38 132 75 38 131 86 205
155 240 l44 21 12 -37 c6 -21 12 -65 12 -98z"/>
<path d="M3398 2456 c-57 -20 -85 -42 -115 -86 -89 -136 16 -320 183 -320 17
0 55 12 85 28 150 76 149 289 -1 367 -41 21 -111 26 -152 11z"/>
<path d="M4664 2461 c-93 -24 -157 -104 -158 -200 -1 -188 218 -280 350 -147
78 77 84 183 17 274 -43 58 -138 91 -209 73z"/>
<path d="M4014 1779 c-111 -14 -180 -61 -155 -107 37 -69 268 -94 388 -42 163
70 -5 177 -233 149z"/>
</g>
</svg>
